{
.appVersion = "3087";
.formatVersion = 3;
date = "2013-06-27 05:17:11 +0000";
familyName = "Néo-castel";
featurePrefixes = (
{
automatic = 1;
code = "languagesystem DFLT dflt;

languagesystem latn dflt;
languagesystem latn AZE;
languagesystem latn CRT;
languagesystem latn KAZ;
languagesystem latn TAT;
languagesystem latn TRK;
languagesystem latn NLD;
";
name = Languagesystems;
}
);
features = (
{
automatic = 1;
code = "feature locl;
";
tag = aalt;
},
{
automatic = 1;
code = "lookup ccmp_Other_1 {
	@CombiningTopAccents = [acutecomb circumflexcomb dieresiscomb dotaccentcomb gravecomb ringcomb tildecomb];
	@CombiningNonTopAccents = [cedillacomb];
	sub [i j]' @CombiningTopAccents by [idotless jdotless];
	sub [i j]' @CombiningNonTopAccents @CombiningTopAccents by [idotless jdotless];
} ccmp_Other_1;
";
tag = ccmp;
},
{
automatic = 1;
code = "lookup locl_latn_0 {
	script latn;
	language AZE;
	sub i by i;
	language CRT;
	sub i by i;
	language KAZ;
	sub i by i;
	language TAT;
	sub i by i;
	language TRK;
	sub i by i;
} locl_latn_0;

lookup locl_latn_1 {
	script latn;
	language NLD;
	sub iacute j' by jacute;
	sub Iacute J' by Jacute;
} locl_latn_1;
";
tag = locl;
}
);
fontMaster = (
{
id = m002;
metricValues = (
{
pos = 704;
},
{
},
{
pos = -192;
},
{
pos = 512;
}
);
name = ":-)";
userData = {
GSCornerRadius = 75;
GSExtrudeAngle = 30;
GSExtrudeDontSubtract = 1;
GSExtrudeOffset = 165;
GSRoughenHorizontal = 15;
GSRoughenSegmentLength = 15;
GSRoughenVertical = 10;
};
}
);
glyphs = (
{
glyphname = A;
lastChange = "2023-11-28 13:21:43 +0000";
layers = (
{
anchors = (
{
name = bottom;
pos = (288,0);
},
{
name = ogonek;
pos = (518,10);
},
{
name = top;
pos = (258,724);
}
);
layerId = m002;
shapes = (
{
closed = 1;
nodes = (
(448,51,o),
(462,64,o),
(480,64,cs),
(498,64,o),
(512,78,o),
(512,96,cs),
(512,114,o),
(498,128,o),
(480,128,cs),
(462,128,o),
(448,144,o),
(448,164,cs),
(448,540,ls),
(448,560,o),
(434,576,o),
(416,576,cs),
(398,576,o),
(384,590,o),
(384,608,cs),
(384,626,o),
(370,640,o),
(352,640,cs),
(334,640,o),
(320,654,o),
(320,672,cs),
(320,690,o),
(304,704,o),
(284,704,cs),
(228,704,ls),
(208,704,o),
(192,690,o),
(192,672,cs),
(192,654,o),
(178,640,o),
(160,640,cs),
(142,640,o),
(128,626,o),
(128,608,cs),
(128,590,o),
(114,576,o),
(96,576,cs),
(78,576,o),
(64,562,o),
(64,544,cs),
(64,526,o),
(50,512,o),
(32,512,cs),
(14,512,o),
(0,496,o),
(0,476,cs),
(0,36,ls),
(0,16,o),
(16,0,o),
(36,0,cs),
(92,0,ls),
(112,0,o),
(128,14,o),
(128,32,cs),
(128,50,o),
(142,64,o),
(160,64,cs),
(178,64,o),
(192,78,o),
(192,96,cs),
(192,114,o),
(178,128,o),
(160,128,cs),
(142,128,o),
(128,142,o),
(128,160,cs),
(128,178,o),
(142,192,o),
(160,192,cs),
(178,192,o),
(192,206,o),
(192,224,cs),
(192,242,o),
(178,256,o),
(160,256,cs),
(142,256,o),
(128,272,o),
(128,292,cs),
(128,540,ls),
(128,560,o),
(144,576,o),
(164,576,cs),
(220,576,ls),
(240,576,o),
(256,562,o),
(256,544,cs),
(256,526,o),
(270,512,o),
(288,512,cs),
(306,512,o),
(320,496,o),
(320,476,cs),
(320,420,ls),
(320,400,o),
(306,384,o),
(288,384,cs),
(270,384,o),
(256,370,o),
(256,352,cs),
(256,334,o),
(242,320,o),
(224,320,cs),
(206,320,o),
(192,306,o),
(192,288,cs),
(192,270,o),
(206,256,o),
(224,256,cs),
(242,256,o),
(256,270,o),
(256,288,cs),
(256,306,o),
(270,320,o),
(288,320,cs),
(306,320,o),
(320,304,o),
(320,284,cs),
(320,36,ls),
(320,16,o),
(336,0,o),
(356,0,cs),
(412,0,ls),
(432,0,o),
(448,14,o),
(448,32,cs)
);
}
);
width = 576;
}
);
note = A;
unicode = 65;
},
{
glyphname = AE;
lastChange = "2023-08-28 11:03:12 +0000";
layers = (
{
layerId = m002;
shapes = (
{
closed = 1;
nodes = (
(548,64,ls),
(528,64,o),
(512,78,o),
(512,96,cs),
(512,114,o),
(498,128,o),
(480,128,cs),
(462,128,o),
(448,144,o),
(448,164,cs),
(448,284,ls),
(448,304,o),
(464,320,o),
(484,320,cs),
(604,320,ls),
(624,320,o),
(640,334,o),
(640,352,cs),
(640,370,o),
(624,384,o),
(604,384,cs),
(484,384,ls),
(464,384,o),
(448,400,o),
(448,420,cs),
(448,540,ls),
(448,560,o),
(462,576,o),
(480,576,cs),
(498,576,o),
(512,590,o),
(512,608,cs),
(512,626,o),
(498,640,o),
(480,640,cs),
(462,640,o),
(448,654,o),
(448,672,cs),
(448,690,o),
(434,704,o),
(416,704,cs),
(398,704,o),
(384,690,o),
(384,672,cs),
(384,654,o),
(370,640,o),
(352,640,cs),
(334,640,o),
(320,654,o),
(320,672,cs),
(320,690,o),
(304,704,o),
(284,704,cs),
(228,704,ls),
(208,704,o),
(192,690,o),
(192,672,cs),
(192,654,o),
(178,640,o),
(160,640,cs),
(142,640,o),
(128,626,o),
(128,608,cs),
(128,590,o),
(114,576,o),
(96,576,cs),
(78,576,o),
(64,562,o),
(64,544,cs),
(64,526,o),
(50,512,o),
(32,512,cs),
(14,512,o),
(0,496,o),
(0,476,cs),
(0,36,ls),
(0,16,o),
(16,0,o),
(36,0,cs),
(92,0,ls),
(112,0,o),
(128,14,o),
(128,32,cs),
(128,50,o),
(142,64,o),
(160,64,cs),
(178,64,o),
(192,78,o),
(192,96,cs),
(192,114,o),
(178,128,o),
(160,128,cs),
(142,128,o),
(128,142,o),
(128,160,cs),
(128,178,o),
(142,192,o),
(160,192,cs),
(178,192,o),
(192,206,o),
(192,224,cs),
(192,242,o),
(178,256,o),
(160,256,cs),
(142,256,o),
(128,272,o),
(128,292,cs),
(128,540,ls),
(128,560,o),
(144,576,o),
(164,576,cs),
(220,576,ls),
(240,576,o),
(256,562,o),
(256,544,cs),
(256,526,o),
(270,512,o),
(288,512,cs),
(306,512,o),
(320,496,o),
(320,476,cs),
(320,420,ls),
(320,400,o),
(306,384,o),
(288,384,cs),
(270,384,o),
(256,370,o),
(256,352,cs),
(256,334,o),
(242,320,o),
(224,320,cs),
(206,320,o),
(192,306,o),
(192,288,cs),
(192,270,o),
(206,256,o),
(224,256,cs),
(242,256,o),
(256,270,o),
(256,288,cs),
(256,306,o),
(270,320,o),
(288,320,cs),
(306,320,o),
(320,304,o),
(320,284,cs),
(320,36,ls),
(320,16,o),
(336,0,o),
(356,0,cs),
(412,0,ls),
(413,0,o),
(415,0,o),
(416,0.189,cs),
(420,0,l),
(668,0,ls),
(688,0,o),
(704,14,o),
(704,32,cs),
(704,50,o),
(688,64,o),
(668,64,cs)
);
},
{
closed = 1;
nodes = (
(512,654,o),
(526,640,o),
(544,640,cs),
(562,640,o),
(576,626,o),
(576,608,cs),
(576,590,o),
(590,576,o),
(608,576,cs),
(626,576,o),
(640,562,o),
(640,544,cs),
(640,526,o),
(656,512,o),
(676,512,cs),
(732,512,ls),
(752,512,o),
(768,526,o),
(768,544,cs),
(768,563,o),
(782,576,o),
(800,576,cs),
(818,576,o),
(832,592,o),
(832,612,cs),
(832,668,ls),
(832,688,o),
(818,704,o),
(800,704,cs),
(782,704,o),
(768,690,o),
(768,672,cs),
(768,654,o),
(754,640,o),
(736,640,cs),
(718,640,o),
(704,654,o),
(704,672,cs),
(704,690,o),
(688,704,o),
(668,704,cs),
(548,704,ls),
(528,704,o),
(512,690,o),
(512,672,cs)
);
},
{
closed = 1;
nodes = (
(704,78,o),
(718,64,o),
(736,64,cs),
(754,64,o),
(768,78,o),
(768,96,cs),
(768,115,o),
(754,128,o),
(736,128,cs),
(718,128,o),
(704,114,o),
(704,96,cs)
);
}
);
width = 896;
}
);
unicode = 198;
},
{
glyphname = B;
lastChange = "2023-08-27 17:41:06 +0000";
layers = (
{
layerId = m002;
shapes = (
{
closed = 1;
nodes = (
(228,64,ls),
(208,64,o),
(192,80,o),
(192,100,cs),
(192,604,ls),
(192,624,o),
(206,640,o),
(224,640,cs),
(242,640,o),
(256,626,o),
(256,608,cs),
(256,590,o),
(270,576,o),
(288,576,cs),
(306,576,o),
(320,562,o),
(320,544,cs),
(320,526,o),
(334,512,o),
(352,512,cs),
(370,512,o),
(384,498,o),
(384,480,cs),
(384,462,o),
(370,448,o),
(352,448,cs),
(334,448,o),
(320,434,o),
(320,416,cs),
(320,398,o),
(306,384,o),
(288,384,cs),
(270,384,o),
(256,370,o),
(256,352,cs),
(256,334,o),
(270,320,o),
(288,320,cs),
(306,320,o),
(320,306,o),
(320,288,cs),
(320,270,o),
(334,256,o),
(352,256,cs),
(370,256,o),
(384,240,o),
(384,220,cs),
(384,100,ls),
(384,80,o),
(368,64,o),
(348,64,cs)
);
},
{
closed = 1;
nodes = (
(384,51,o),
(398,64,o),
(416,64,cs),
(434,64,o),
(448,78,o),
(448,96,cs),
(448,114,o),
(462,128,o),
(480,128,cs),
(498,128,o),
(512,144,o),
(512,164,cs),
(512,284,ls),
(512,304,o),
(498,320,o),
(480,320,cs),
(462,320,o),
(448,334,o),
(448,352,cs),
(448,370,o),
(434,384,o),
(416,384,cs),
(398,384,o),
(384,398,o),
(384,416,cs),
(384,434,o),
(398,448,o),
(416,448,cs),
(434,448,o),
(448,462,o),
(448,480,cs),
(448,498,o),
(462,512,o),
(480,512,cs),
(498,512,o),
(512,526,o),
(512,544,cs),
(512,562,o),
(498,576,o),
(480,576,cs),
(462,576,o),
(448,590,o),
(448,608,cs),
(448,626,o),
(434,640,o),
(416,640,cs),
(398,640,o),
(384,654,o),
(384,672,cs),
(384,690,o),
(368,704,o),
(348,704,cs),
(164,704,ls),
(144,704,o),
(128,690,o),
(128,672,cs),
(128,654,o),
(114,640,o),
(96,640,cs),
(78,640,o),
(64,626,o),
(64,608,cs),
(64,590,o),
(50,576,o),
(32,576,cs),
(14,576,o),
(0,562,o),
(0,544,cs),
(0,526,o),
(14,512,o),
(32,512,cs),
(50,512,o),
(64,496,o),
(64,476,cs),
(64,164,ls),
(64,144,o),
(50,128,o),
(32,128,cs),
(14,128,o),
(0,114,o),
(0,96,cs),
(0,78,o),
(14,64,o),
(32,64,cs),
(50,64,o),
(64,50,o),
(64,32,cs),
(64,14,o),
(80,0,o),
(100,0,cs),
(348,0,ls),
(368,0,o),
(384,14,o),
(384,32,cs)
);
}
);
width = 576;
}
);
note = B;
unicode = 66;
},
{
glyphname = C;
lastChange = "2023-08-27 17:41:21 +0000";
layers = (
{
layerId = m002;
shapes = (
{
closed = 1;
nodes = (
(256,115,o),
(242,128,o),
(224,128,cs),
(206,128,o),
(192,142,o),
(192,160,cs),
(192,178,o),
(178,192,o),
(160,192,cs),
(142,192,o),
(128,208,o),
(128,228,cs),
(128,540,ls),
(128,560,o),
(114,576,o),
(96,576,cs),
(78,576,o),
(64,562,o),
(64,544,cs),
(64,526,o),
(50,512,o),
(32,512,cs),
(14,512,o),
(0,496,o),
(0,476,cs),
(0,164,ls),
(0,144,o),
(14,128,o),
(32,128,cs),
(50,128,o),
(64,114,o),
(64,96,cs),
(64,78,o),
(78,64,o),
(96,64,cs),
(114,64,o),
(128,50,o),
(128,32,cs),
(128,14,o),
(144,0,o),
(164,0,cs),
(348,0,ls),
(368,0,o),
(384,14,o),
(384,32,cs),
(384,50,o),
(368,64,o),
(348,64,cs),
(292,64,ls),
(272,64,o),
(256,78,o),
(256,96,cs)
);
},
{
closed = 1;
nodes = (
(448,115,o),
(434,128,o),
(416,128,cs),
(398,128,o),
(384,114,o),
(384,96,cs),
(384,78,o),
(398,64,o),
(416,64,cs),
(434,64,o),
(448,78,o),
(448,96,cs)
);
},
{
closed = 1;
nodes = (
(512,179,o),
(498,192,o),
(480,192,cs),
(462,192,o),
(448,178,o),
(448,160,cs),
(448,142,o),
(462,128,o),
(480,128,cs),
(498,128,o),
(512,142,o),
(512,160,cs)
);
},
{
closed = 1;
nodes = (
(512,668,ls),
(512,688,o),
(498,704,o),
(480,704,cs),
(462,704,o),
(448,690,o),
(448,672,cs),
(448,654,o),
(434,640,o),
(416,640,cs),
(398,640,o),
(384,654,o),
(384,672,cs),
(384,690,o),
(368,704,o),
(348,704,cs),
(228,704,ls),
(208,704,o),
(192,690,o),
(192,672,cs),
(192,654,o),
(178,640,o),
(160,640,cs),
(142,640,o),
(128,626,o),
(128,608,cs),
(128,590,o),
(142,576,o),
(160,576,cs),
(178,576,o),
(192,590,o),
(192,608,cs),
(192,626,o),
(206,640,o),
(224,640,cs),
(242,640,o),
(256,626,o),
(256,608,cs),
(256,590,o),
(270,576,o),
(288,576,cs),
(306,576,o),
(320,562,o),
(320,544,cs),
(320,526,o),
(336,512,o),
(356,512,cs),
(476,512,ls),
(496,512,o),
(512,528,o),
(512,548,cs)
);
}
);
width = 576;
}
);
note = C;
unicode = 67;
},
{
glyphname = D;
lastChange = "2023-08-27 17:41:31 +0000";
layers = (
{
layerId = m002;
shapes = (
{
closed = 1;
nodes = (
(192,604,ls),
(192,624,o),
(208,640,o),
(228,640,cs),
(284,640,ls),
(304,640,o),
(320,626,o),
(320,608,cs),
(320,590,o),
(334,576,o),
(352,576,cs),
(370,576,o),
(384,562,o),
(384,544,cs),
(384,526,o),
(398,512,o),
(416,512,cs),
(434,512,o),
(448,496,o),
(448,476,cs),
(448,228,ls),
(448,208,o),
(434,192,o),
(416,192,cs),
(398,192,o),
(384,178,o),
(384,160,cs),
(384,142,o),
(370,128,o),
(352,128,cs),
(334,128,o),
(320,114,o),
(320,96,cs),
(320,78,o),
(304,64,o),
(284,64,cs),
(228,64,ls),
(208,64,o),
(192,80,o),
(192,100,cs)
);
},
{
closed = 1;
nodes = (
(320,51,o),
(334,64,o),
(352,64,cs),
(370,64,o),
(384,78,o),
(384,96,cs),
(384,114,o),
(398,128,o),
(416,128,cs),
(434,128,o),
(448,142,o),
(448,160,cs),
(448,178,o),
(462,192,o),
(480,192,cs),
(498,192,o),
(512,206,o),
(512,224,cs),
(512,242,o),
(526,256,o),
(544,256,cs),
(562,256,o),
(576,272,o),
(576,292,cs),
(576,540,ls),
(576,560,o),
(562,576,o),
(544,576,cs),
(526,576,o),
(512,590,o),
(512,608,cs),
(512,626,o),
(498,640,o),
(480,640,cs),
(462,640,o),
(448,654,o),
(448,672,cs),
(448,690,o),
(432,704,o),
(412,704,cs),
(164,704,ls),
(144,704,o),
(128,690,o),
(128,672,cs),
(128,654,o),
(114,640,o),
(96,640,cs),
(78,640,o),
(64,626,o),
(64,608,cs),
(64,590,o),
(50,576,o),
(32,576,cs),
(14,576,o),
(0,562,o),
(0,544,cs),
(0,526,o),
(14,512,o),
(32,512,cs),
(50,512,o),
(64,496,o),
(64,476,cs),
(64,36,ls),
(64,16,o),
(80,0,o),
(100,0,cs),
(284,0,ls),
(304,0,o),
(320,14,o),
(320,32,cs)
);
}
);
width = 640;
}
);
note = D;
unicode = 68;
},
{
glyphname = E;
lastChange = "2023-11-28 13:26:11 +0000";
layers = (
{
anchors = (
{
name = bottom;
pos = (320,0);
},
{
name = ogonek;
pos = (576,10);
},
{
name = top;
pos = (320,704);
},
{
name = topleft;
pos = (20,704);
}
);
layerId = m002;
shapes = (
{
closed = 1;
nodes = (
(292,64,ls),
(272,64,o),
(256,78,o),
(256,96,cs),
(256,114,o),
(242,128,o),
(224,128,cs),
(206,128,o),
(192,144,o),
(192,164,cs),
(192,284,ls),
(192,304,o),
(208,320,o),
(228,320,cs),
(348,320,ls),
(368,320,o),
(384,334,o),
(384,352,cs),
(384,370,o),
(368,384,o),
(348,384,cs),
(228,384,ls),
(208,384,o),
(192,400,o),
(192,420,cs),
(192,540,ls),
(192,560,o),
(206,576,o),
(224,576,cs),
(242,576,o),
(256,590,o),
(256,608,cs),
(256,626,o),
(242,640,o),
(224,640,cs),
(206,640,o),
(192,654,o),
(192,672,cs),
(192,690,o),
(178,704,o),
(160,704,cs),
(142,704,o),
(128,690,o),
(128,672,cs),
(128,654,o),
(114,640,o),
(96,640,cs),
(78,640,o),
(64,626,o),
(64,608,cs),
(64,590,o),
(50,576,o),
(32,576,cs),
(14,576,o),
(0,562,o),
(0,544,cs),
(0,526,o),
(14,512,o),
(32,512,cs),
(50,512,o),
(64,496,o),
(64,476,cs),
(64,100,ls),
(64,80,o),
(78,64,o),
(96,64,cs),
(114,64,o),
(128,50,o),
(128,32,cs),
(128,14,o),
(144,0,o),
(164,0,cs),
(412,0,ls),
(432,0,o),
(448,14,o),
(448,32,cs),
(448,50,o),
(432,64,o),
(412,64,cs)
);
},
{
closed = 1;
nodes = (
(512,115,o),
(498,128,o),
(480,128,cs),
(462,128,o),
(448,114,o),
(448,96,cs),
(448,78,o),
(462,64,o),
(480,64,cs),
(498,64,o),
(512,78,o),
(512,96,cs)
);
},
{
closed = 1;
nodes = (
(512,563,o),
(526,576,o),
(544,576,cs),
(562,576,o),
(576,592,o),
(576,612,cs),
(576,668,ls),
(576,688,o),
(562,704,o),
(544,704,cs),
(526,704,o),
(512,690,o),
(512,672,cs),
(512,654,o),
(498,640,o),
(480,640,cs),
(462,640,o),
(448,654,o),
(448,672,cs),
(448,690,o),
(432,704,o),
(412,704,cs),
(292,704,ls),
(272,704,o),
(256,690,o),
(256,672,cs),
(256,654,o),
(270,640,o),
(288,640,cs),
(306,640,o),
(320,626,o),
(320,608,cs),
(320,590,o),
(334,576,o),
(352,576,cs),
(370,576,o),
(384,562,o),
(384,544,cs),
(384,526,o),
(400,512,o),
(420,512,cs),
(476,512,ls),
(496,512,o),
(512,526,o),
(512,544,cs)
);
}
);
width = 640;
}
);
note = E;
unicode = 69;
},
{
glyphname = F;
lastChange = "2023-08-27 17:41:58 +0000";
layers = (
{
layerId = m002;
shapes = (
{
closed = 1;
nodes = (
(192,51,o),
(206,64,o),
(224,64,cs),
(242,64,o),
(256,78,o),
(256,96,cs),
(256,114,o),
(242,128,o),
(224,128,cs),
(206,128,o),
(192,144,o),
(192,164,cs),
(192,284,ls),
(192,304,o),
(208,320,o),
(228,320,cs),
(348,320,ls),
(368,320,o),
(384,334,o),
(384,352,cs),
(384,370,o),
(368,384,o),
(348,384,cs),
(228,384,ls),
(208,384,o),
(192,400,o),
(192,420,cs),
(192,540,ls),
(192,560,o),
(206,576,o),
(224,576,cs),
(242,576,o),
(256,590,o),
(256,608,cs),
(256,626,o),
(242,640,o),
(224,640,cs),
(206,640,o),
(192,654,o),
(192,672,cs),
(192,690,o),
(178,704,o),
(160,704,cs),
(142,704,o),
(128,690,o),
(128,672,cs),
(128,654,o),
(114,640,o),
(96,640,cs),
(78,640,o),
(64,626,o),
(64,608,cs),
(64,590,o),
(50,576,o),
(32,576,cs),
(14,576,o),
(0,562,o),
(0,544,cs),
(0,526,o),
(14,512,o),
(32,512,cs),
(50,512,o),
(64,496,o),
(64,476,cs),
(64,36,ls),
(64,16,o),
(80,0,o),
(100,0,cs),
(156,0,ls),
(176,0,o),
(192,14,o),
(192,32,cs)
);
},
{
closed = 1;
nodes = (
(512,563,o),
(526,576,o),
(544,576,cs),
(562,576,o),
(576,592,o),
(576,612,cs),
(576,668,ls),
(576,688,o),
(562,704,o),
(544,704,cs),
(526,704,o),
(512,690,o),
(512,672,cs),
(512,654,o),
(498,640,o),
(480,640,cs),
(462,640,o),
(448,654,o),
(448,672,cs),
(448,690,o),
(432,704,o),
(412,704,cs),
(292,704,ls),
(272,704,o),
(256,690,o),
(256,672,cs),
(256,654,o),
(270,640,o),
(288,640,cs),
(306,640,o),
(320,626,o),
(320,608,cs),
(320,590,o),
(334,576,o),
(352,576,cs),
(370,576,o),
(384,562,o),
(384,544,cs),
(384,526,o),
(400,512,o),
(420,512,cs),
(476,512,ls),
(496,512,o),
(512,526,o),
(512,544,cs)
);
}
);
width = 640;
}
);
note = F;
unicode = 70;
},
{
glyphname = G;
lastChange = "2023-08-27 17:42:02 +0000";
layers = (
{
layerId = m002;
shapes = (
{
closed = 1;
nodes = (
(256,115,o),
(242,128,o),
(224,128,cs),
(206,128,o),
(192,142,o),
(192,160,cs),
(192,178,o),
(178,192,o),
(160,192,cs),
(142,192,o),
(128,208,o),
(128,228,cs),
(128,540,ls),
(128,560,o),
(114,576,o),
(96,576,cs),
(78,576,o),
(64,562,o),
(64,544,cs),
(64,526,o),
(50,512,o),
(32,512,cs),
(14,512,o),
(0,496,o),
(0,476,cs),
(0,164,ls),
(0,144,o),
(14,128,o),
(32,128,cs),
(50,128,o),
(64,114,o),
(64,96,cs),
(64,78,o),
(78,64,o),
(96,64,cs),
(114,64,o),
(128,50,o),
(128,32,cs),
(128,14,o),
(144,0,o),
(164,0,cs),
(348,0,ls),
(368,0,o),
(384,14,o),
(384,32,cs),
(384,50,o),
(368,64,o),
(348,64,cs),
(292,64,ls),
(272,64,o),
(256,78,o),
(256,96,cs)
);
},
{
closed = 1;
nodes = (
(448,115,o),
(462,128,o),
(480,128,cs),
(498,128,o),
(512,144,o),
(512,164,cs),
(512,284,ls),
(512,304,o),
(496,320,o),
(476,320,cs),
(356,320,ls),
(336,320,o),
(320,306,o),
(320,288,cs),
(320,270,o),
(334,256,o),
(352,256,cs),
(370,256,o),
(384,240,o),
(384,220,cs),
(384,100,ls),
(384,80,o),
(398,64,o),
(416,64,cs),
(434,64,o),
(448,78,o),
(448,96,cs)
);
},
{
closed = 1;
nodes = (
(512,604,ls),
(512,624,o),
(498,640,o),
(480,640,cs),
(462,640,o),
(448,654,o),
(448,672,cs),
(448,690,o),
(432,704,o),
(412,704,cs),
(228,704,ls),
(208,704,o),
(192,690,o),
(192,672,cs),
(192,654,o),
(178,640,o),
(160,640,cs),
(142,640,o),
(128,626,o),
(128,608,cs),
(128,590,o),
(142,576,o),
(160,576,cs),
(178,576,o),
(192,590,o),
(192,608,cs),
(192,626,o),
(208,640,o),
(228,640,cs),
(284,640,ls),
(304,640,o),
(320,626,o),
(320,608,cs),
(320,590,o),
(334,576,o),
(352,576,cs),
(370,576,o),
(384,562,o),
(384,544,cs),
(384,526,o),
(400,512,o),
(420,512,cs),
(476,512,ls),
(496,512,o),
(512,528,o),
(512,548,cs)
);
}
);
width = 576;
}
);
note = G;
unicode = 71;
},
{
glyphname = H;
lastChange = "2023-08-27 17:42:06 +0000";
layers = (
{
layerId = m002;
shapes = (
{
closed = 1;
nodes = (
(512,51,o),
(526,64,o),
(544,64,cs),
(562,64,o),
(576,78,o),
(576,96,cs),
(576,114,o),
(562,128,o),
(544,128,cs),
(526,128,o),
(512,144,o),
(512,164,cs),
(512,668,ls),
(512,688,o),
(498,704,o),
(480,704,cs),
(462,704,o),
(448,690,o),
(448,672,cs),
(448,654,o),
(434,640,o),
(416,640,cs),
(398,640,o),
(384,624,o),
(384,604,cs),
(384,420,ls),
(384,400,o),
(368,384,o),
(348,384,cs),
(228,384,ls),
(208,384,o),
(192,400,o),
(192,420,cs),
(192,668,ls),
(192,688,o),
(178,704,o),
(160,704,cs),
(142,704,o),
(128,690,o),
(128,672,cs),
(128,654,o),
(114,640,o),
(96,640,cs),
(78,640,o),
(64,626,o),
(64,608,cs),
(64,590,o),
(50,576,o),
(32,576,cs),
(14,576,o),
(0,562,o),
(0,544,cs),
(0,526,o),
(14,512,o),
(32,512,cs),
(50,512,o),
(64,496,o),
(64,476,cs),
(64,36,ls),
(64,16,o),
(80,0,o),
(100,0,cs),
(156,0,ls),
(176,0,o),
(192,16,o),
(192,36,cs),
(192,284,ls),
(192,304,o),
(208,320,o),
(228,320,cs),
(348,320,ls),
(368,320,o),
(384,304,o),
(384,284,cs),
(384,36,ls),
(384,16,o),
(400,0,o),
(420,0,cs),
(476,0,ls),
(496,0,o),
(512,14,o),
(512,32,cs)
);
}
);
width = 640;
}
);
note = H;
unicode = 72;
},
{
glyphname = I;
lastChange = "2023-11-28 13:29:06 +0000";
layers = (
{
anchors = (
{
name = bottom;
pos = (160,0);
},
{
name = ogonek;
pos = (288,10);
},
{
name = top;
pos = (160,704);
},
{
name = topleft;
pos = (20,704);
}
);
layerId = m002;
shapes = (
{
closed = 1;
nodes = (
(192,51,o),
(206,64,o),
(224,64,cs),
(242,64,o),
(256,78,o),
(256,96,cs),
(256,114,o),
(242,128,o),
(224,128,cs),
(206,128,o),
(192,144,o),
(192,164,cs),
(192,668,ls),
(192,688,o),
(178,704,o),
(160,704,cs),
(142,704,o),
(128,690,o),
(128,672,cs),
(128,654,o),
(114,640,o),
(96,640,cs),
(78,640,o),
(64,626,o),
(64,608,cs),
(64,590,o),
(50,576,o),
(32,576,cs),
(14,576,o),
(0,562,o),
(0,544,cs),
(0,526,o),
(14,512,o),
(32,512,cs),
(50,512,o),
(64,496,o),
(64,476,cs),
(64,36,ls),
(64,16,o),
(80,0,o),
(100,0,cs),
(156,0,ls),
(176,0,o),
(192,14,o),
(192,32,cs)
);
}
);
width = 320;
}
);
note = I;
unicode = 73;
},
{
glyphname = J;
lastChange = "2023-08-27 17:42:11 +0000";
layers = (
{
layerId = m002;
shapes = (
{
closed = 1;
nodes = (
(64,-77,o),
(50,-64,o),
(32,-64,cs),
(14,-64,o),
(0,-78,o),
(0,-96,cs),
(0,-114,o),
(14,-128,o),
(32,-128,cs),
(50,-128,o),
(64,-114,o),
(64,-96,cs)
);
},
{
closed = 1;
nodes = (
(128,-13,o),
(142,0,o),
(160,0,cs),
(178,0,o),
(192,16,o),
(192,36,cs),
(192,668,ls),
(192,688,o),
(178,704,o),
(160,704,cs),
(142,704,o),
(128,690,o),
(128,672,cs),
(128,654,o),
(114,640,o),
(96,640,cs),
(78,640,o),
(64,626,o),
(64,608,cs),
(64,590,o),
(50,576,o),
(32,576,cs),
(14,576,o),
(0,562,o),
(0,544,cs),
(0,526,o),
(14,512,o),
(32,512,cs),
(50,512,o),
(64,496,o),
(64,476,cs),
(64,-28,ls),
(64,-48,o),
(78,-64,o),
(96,-64,cs),
(114,-64,o),
(128,-50,o),
(128,-32,cs)
);
}
);
width = 256;
}
);
note = J;
unicode = 74;
},
{
glyphname = K;
lastChange = "2023-08-27 17:42:14 +0000";
layers = (
{
layerId = m002;
shapes = (
{
closed = 1;
nodes = (
(512,51,o),
(526,64,o),
(544,64,cs),
(562,64,o),
(576,78,o),
(576,96,cs),
(576,114,o),
(560,128,o),
(540,128,cs),
(524,128,o),
(512,144,o),
(512,164,cs),
(512,284,ls),
(512,304,o),
(496,320,o),
(476,320,cs),
(460,320,o),
(448,334,o),
(448,352,cs),
(448,370,o),
(432,384,o),
(412,384,cs),
(396,384,o),
(384,398,o),
(384,416,cs),
(384,434,o),
(398,448,o),
(416,448,cs),
(434,448,o),
(448,464,o),
(448,484,cs),
(448,500,o),
(462,512,o),
(480,512,cs),
(498,512,o),
(512,528,o),
(512,548,cs),
(512,668,ls),
(512,688,o),
(498,704,o),
(480,704,cs),
(462,704,o),
(448,688,o),
(448,668,cs),
(448,652,o),
(434,640,o),
(416,640,cs),
(398,640,o),
(384,624,o),
(384,604,cs),
(384,548,ls),
(384,528,o),
(370,512,o),
(352,512,cs),
(334,512,o),
(320,496,o),
(320,476,cs),
(320,460,o),
(306,448,o),
(288,448,cs),
(270,448,o),
(256,432,o),
(256,412,cs),
(256,396,o),
(242,384,o),
(224,384,cs),
(206,384,o),
(192,400,o),
(192,420,cs),
(192,668,ls),
(192,688,o),
(178,704,o),
(160,704,cs),
(142,704,o),
(128,688,o),
(128,668,cs),
(128,652,o),
(114,640,o),
(96,640,cs),
(78,640,o),
(64,624,o),
(64,604,cs),
(64,588,o),
(50,576,o),
(32,576,cs),
(14,576,o),
(0,562,o),
(0,544,cs),
(0,526,o),
(16,512,o),
(36,512,cs),
(52,512,o),
(64,496,o),
(64,476,cs),
(64,36,ls),
(64,16,o),
(80,0,o),
(100,0,cs),
(156,0,ls),
(176,0,o),
(192,16,o),
(192,36,cs),
(192,52,o),
(206,64,o),
(224,64,cs),
(242,64,o),
(256,78,o),
(256,96,cs),
(256,114,o),
(240,128,o),
(220,128,cs),
(204,128,o),
(192,144,o),
(192,164,cs),
(192,220,ls),
(192,240,o),
(206,256,o),
(224,256,cs),
(242,256,o),
(256,272,o),
(256,292,cs),
(256,308,o),
(270,320,o),
(288,320,cs),
(306,320,o),
(320,306,o),
(320,288,cs),
(320,270,o),
(336,256,o),
(356,256,cs),
(372,256,o),
(384,240,o),
(384,220,cs),
(384,36,ls),
(384,16,o),
(400,0,o),
(420,0,cs),
(476,0,ls),
(496,0,o),
(512,14,o),
(512,32,cs)
);
}
);
width = 640;
}
);
note = K;
unicode = 75;
},
{
glyphname = L;
lastChange = "2023-08-27 17:42:22 +0000";
layers = (
{
layerId = m002;
shapes = (
{
closed = 1;
nodes = (
(228,64,ls),
(208,64,o),
(192,80,o),
(192,100,cs),
(192,668,ls),
(192,688,o),
(178,704,o),
(160,704,cs),
(142,704,o),
(128,690,o),
(128,672,cs),
(128,654,o),
(114,640,o),
(96,640,cs),
(78,640,o),
(64,626,o),
(64,608,cs),
(64,590,o),
(50,576,o),
(32,576,cs),
(14,576,o),
(0,562,o),
(0,544,cs),
(0,526,o),
(14,512,o),
(32,512,cs),
(50,512,o),
(64,496,o),
(64,476,cs),
(64,36,ls),
(64,16,o),
(80,0,o),
(100,0,cs),
(348,0,ls),
(368,0,o),
(384,14,o),
(384,32,cs),
(384,50,o),
(368,64,o),
(348,64,cs)
);
},
{
closed = 1;
nodes = (
(448,115,o),
(434,128,o),
(416,128,cs),
(398,128,o),
(384,114,o),
(384,96,cs),
(384,78,o),
(398,64,o),
(416,64,cs),
(434,64,o),
(448,78,o),
(448,96,cs)
);
}
);
width = 512;
}
);
note = L;
unicode = 76;
},
{
glyphname = M;
lastChange = "2023-08-27 17:42:29 +0000";
layers = (
{
layerId = m002;
shapes = (
{
closed = 1;
nodes = (
(704,51,o),
(718,64,o),
(736,64,cs),
(754,64,o),
(768,78,o),
(768,96,cs),
(768,114,o),
(754,128,o),
(736,128,cs),
(718,128,o),
(704,144,o),
(704,164,cs),
(704,668,ls),
(704,688,o),
(688,704,o),
(668,704,cs),
(612,704,ls),
(592,704,o),
(576,690,o),
(576,672,cs),
(576,654,o),
(562,640,o),
(544,640,cs),
(526,640,o),
(512,626,o),
(512,608,cs),
(512,590,o),
(498,576,o),
(480,576,cs),
(462,576,o),
(448,592,o),
(448,612,cs),
(448,668,ls),
(448,688,o),
(432,704,o),
(412,704,cs),
(356,704,ls),
(336,704,o),
(320,690,o),
(320,672,cs),
(320,654,o),
(306,640,o),
(288,640,cs),
(270,640,o),
(256,626,o),
(256,608,cs),
(256,590,o),
(242,576,o),
(224,576,cs),
(206,576,o),
(192,592,o),
(192,612,cs),
(192,668,ls),
(192,688,o),
(178,704,o),
(160,704,cs),
(142,704,o),
(128,690,o),
(128,672,cs),
(128,654,o),
(114,640,o),
(96,640,cs),
(78,640,o),
(64,626,o),
(64,608,cs),
(64,590,o),
(50,576,o),
(32,576,cs),
(14,576,o),
(0,562,o),
(0,544,cs),
(0,526,o),
(14,512,o),
(32,512,cs),
(50,512,o),
(64,496,o),
(64,476,cs),
(64,36,ls),
(64,16,o),
(80,0,o),
(100,0,cs),
(156,0,ls),
(176,0,o),
(192,14,o),
(192,32,cs),
(192,50,o),
(206,64,o),
(224,64,cs),
(242,64,o),
(256,78,o),
(256,96,cs),
(256,114,o),
(242,128,o),
(224,128,cs),
(206,128,o),
(192,144,o),
(192,164,cs),
(192,476,ls),
(192,496,o),
(206,512,o),
(224,512,cs),
(242,512,o),
(256,526,o),
(256,544,cs),
(256,562,o),
(270,576,o),
(288,576,cs),
(306,576,o),
(320,560,o),
(320,540,cs),
(320,36,ls),
(320,16,o),
(336,0,o),
(356,0,cs),
(412,0,ls),
(432,0,o),
(448,14,o),
(448,32,cs),
(448,50,o),
(462,64,o),
(480,64,cs),
(498,64,o),
(512,78,o),
(512,96,cs),
(512,114,o),
(498,128,o),
(480,128,cs),
(462,128,o),
(448,144,o),
(448,164,cs),
(448,476,ls),
(448,496,o),
(462,512,o),
(480,512,cs),
(498,512,o),
(512,526,o),
(512,544,cs),
(512,562,o),
(526,576,o),
(544,576,cs),
(562,576,o),
(576,560,o),
(576,540,cs),
(576,36,ls),
(576,16,o),
(592,0,o),
(612,0,cs),
(668,0,ls),
(688,0,o),
(704,14,o),
(704,32,cs)
);
}
);
width = 832;
}
);
note = M;
unicode = 77;
},
{
glyphname = N;
lastChange = "2023-11-28 13:30:27 +0000";
layers = (
{
anchors = (
{
name = bottom;
pos = (352,0);
},
{
name = top;
pos = (352,704);
}
);
layerId = m002;
shapes = (
{
closed = 1;
nodes = (
(576,51,o),
(590,64,o),
(608,64,cs),
(626,64,o),
(640,78,o),
(640,96,cs),
(640,114,o),
(626,128,o),
(608,128,cs),
(590,128,o),
(576,144,o),
(576,164,cs),
(576,668,ls),
(576,688,o),
(562,704,o),
(544,704,cs),
(526,704,o),
(512,690,o),
(512,672,cs),
(512,654,o),
(498,640,o),
(480,640,cs),
(462,640,o),
(448,624,o),
(448,604,cs),
(448,356,ls),
(448,336,o),
(434,320,o),
(416,320,cs),
(398,320,o),
(384,306,o),
(384,288,cs),
(384,270,o),
(398,256,o),
(416,256,cs),
(434,256,o),
(448,240,o),
(448,220,cs),
(448,36,ls),
(448,16,o),
(464,0,o),
(484,0,cs),
(540,0,ls),
(560,0,o),
(576,14,o),
(576,32,cs)
);
},
{
closed = 1;
nodes = (
(192,51,o),
(206,64,o),
(224,64,cs),
(242,64,o),
(256,78,o),
(256,96,cs),
(256,114,o),
(242,128,o),
(224,128,cs),
(206,128,o),
(192,144,o),
(192,164,cs),
(192,412,ls),
(192,432,o),
(206,448,o),
(224,448,cs),
(242,448,o),
(256,434,o),
(256,416,cs),
(256,398,o),
(270,384,o),
(288,384,cs),
(306,384,o),
(320,370,o),
(320,352,cs),
(320,334,o),
(334,320,o),
(352,320,cs),
(370,320,o),
(384,334,o),
(384,352,cs),
(384,370,o),
(370,384,o),
(352,384,cs),
(334,384,o),
(320,398,o),
(320,416,cs),
(320,434,o),
(306,448,o),
(288,448,cs),
(270,448,o),
(256,462,o),
(256,480,cs),
(256,498,o),
(242,512,o),
(224,512,cs),
(206,512,o),
(192,528,o),
(192,548,cs),
(192,668,ls),
(192,688,o),
(178,704,o),
(160,704,cs),
(142,704,o),
(128,690,o),
(128,672,cs),
(128,654,o),
(114,640,o),
(96,640,cs),
(78,640,o),
(64,626,o),
(64,608,cs),
(64,590,o),
(50,576,o),
(32,576,cs),
(14,576,o),
(0,562,o),
(0,544,cs),
(0,526,o),
(14,512,o),
(32,512,cs),
(50,512,o),
(64,496,o),
(64,476,cs),
(64,36,ls),
(64,16,o),
(80,0,o),
(100,0,cs),
(156,0,ls),
(176,0,o),
(192,14,o),
(192,32,cs)
);
}
);
width = 704;
}
);
note = N;
unicode = 78;
},
{
glyphname = O;
lastChange = "2023-11-28 13:30:46 +0000";
layers = (
{
anchors = (
{
name = bottom;
pos = (288,0);
},
{
name = center;
pos = (288,352);
},
{
name = ogonek;
pos = (518,10);
},
{
name = top;
pos = (288,704);
},
{
name = topleft;
pos = (20,704);
},
{
name = topright;
pos = (556,704);
}
);
layerId = m002;
shapes = (
{
closed = 1;
nodes = (
(320,51,o),
(306,64,o),
(288,64,cs),
(270,64,o),
(256,78,o),
(256,96,cs),
(256,114,o),
(242,128,o),
(224,128,cs),
(206,128,o),
(192,142,o),
(192,160,cs),
(192,178,o),
(178,192,o),
(160,192,cs),
(142,192,o),
(128,208,o),
(128,228,cs),
(128,540,ls),
(128,560,o),
(114,576,o),
(96,576,cs),
(78,576,o),
(64,562,o),
(64,544,cs),
(64,526,o),
(50,512,o),
(32,512,cs),
(14,512,o),
(0,496,o),
(0,476,cs),
(0,164,ls),
(0,144,o),
(14,128,o),
(32,128,cs),
(50,128,o),
(64,114,o),
(64,96,cs),
(64,78,o),
(78,64,o),
(96,64,cs),
(114,64,o),
(128,50,o),
(128,32,cs),
(128,14,o),
(144,0,o),
(164,0,cs),
(284,0,ls),
(304,0,o),
(320,14,o),
(320,32,cs)
);
},
{
closed = 1;
nodes = (
(384,115,o),
(370,128,o),
(352,128,cs),
(334,128,o),
(320,114,o),
(320,96,cs),
(320,78,o),
(334,64,o),
(352,64,cs),
(370,64,o),
(384,78,o),
(384,96,cs)
);
},
{
closed = 1;
nodes = (
(448,179,o),
(462,192,o),
(480,192,cs),
(498,192,o),
(512,208,o),
(512,228,cs),
(512,540,ls),
(512,560,o),
(498,576,o),
(480,576,cs),
(462,576,o),
(448,590,o),
(448,608,cs),
(448,626,o),
(434,640,o),
(416,640,cs),
(398,640,o),
(384,654,o),
(384,672,cs),
(384,690,o),
(368,704,o),
(348,704,cs),
(228,704,ls),
(208,704,o),
(192,690,o),
(192,672,cs),
(192,654,o),
(178,640,o),
(160,640,cs),
(142,640,o),
(128,626,o),
(128,608,cs),
(128,590,o),
(142,576,o),
(160,576,cs),
(178,576,o),
(192,590,o),
(192,608,cs),
(192,626,o),
(206,640,o),
(224,640,cs),
(242,640,o),
(256,626,o),
(256,608,cs),
(256,590,o),
(270,576,o),
(288,576,cs),
(306,576,o),
(320,562,o),
(320,544,cs),
(320,526,o),
(334,512,o),
(352,512,cs),
(370,512,o),
(384,496,o),
(384,476,cs),
(384,164,ls),
(384,144,o),
(398,128,o),
(416,128,cs),
(434,128,o),
(448,142,o),
(448,160,cs)
);
}
);
width = 576;
}
);
note = O;
unicode = 79;
},
{
glyphname = OE;
lastChange = "2023-08-28 11:04:32 +0000";
layers = (
{
layerId = m002;
shapes = (
{
closed = 1;
nodes = (
(320,51,o),
(306,64,o),
(288,64,cs),
(270,64,o),
(256,78,o),
(256,96,cs),
(256,114,o),
(242,128,o),
(224,128,cs),
(206,128,o),
(192,142,o),
(192,160,cs),
(192,178,o),
(178,192,o),
(160,192,cs),
(142,192,o),
(128,208,o),
(128,228,cs),
(128,540,ls),
(128,560,o),
(114,576,o),
(96,576,cs),
(78,576,o),
(64,562,o),
(64,544,cs),
(64,526,o),
(50,512,o),
(32,512,cs),
(14,512,o),
(0,496,o),
(0,476,cs),
(0,164,ls),
(0,144,o),
(14,128,o),
(32,128,cs),
(50,128,o),
(64,114,o),
(64,96,cs),
(64,78,o),
(78,64,o),
(96,64,cs),
(114,64,o),
(128,50,o),
(128,32,cs),
(128,14,o),
(144,0,o),
(164,0,cs),
(284,0,ls),
(304,0,o),
(320,14,o),
(320,32,cs)
);
},
{
closed = 1;
nodes = (
(128,590,o),
(142,576,o),
(160,576,cs),
(178,576,o),
(192,590,o),
(192,608,cs),
(192,626,o),
(206,640,o),
(224,640,cs),
(242,640,o),
(256,626,o),
(256,608,cs),
(256,590,o),
(270,576,o),
(288,576,cs),
(306,576,o),
(320,562,o),
(320,544,cs),
(320,526,o),
(334,512,o),
(352,512,cs),
(370,512,o),
(384,496,o),
(384,476,cs),
(384,100,ls),
(384,80,o),
(398,64,o),
(416,64,cs),
(434,64,o),
(448,50,o),
(448,32,cs),
(448,14,o),
(464,0,o),
(484,0,cs),
(732,0,ls),
(752,0,o),
(768,14,o),
(768,32,cs),
(768,50,o),
(752,64,o),
(732,64,cs),
(612,64,ls),
(592,64,o),
(576,78,o),
(576,96,cs),
(576,114,o),
(562,128,o),
(544,128,cs),
(526,128,o),
(512,144,o),
(512,164,cs),
(512,284,ls),
(512,304,o),
(528,320,o),
(548,320,cs),
(668,320,ls),
(688,320,o),
(704,334,o),
(704,352,cs),
(704,370,o),
(688,384,o),
(668,384,cs),
(548,384,ls),
(528,384,o),
(512,400,o),
(512,420,cs),
(512,540,ls),
(512,560,o),
(526,576,o),
(544,576,cs),
(562,576,o),
(576,590,o),
(576,608,cs),
(576,626,o),
(562,640,o),
(544,640,cs),
(526,640,o),
(512,654,o),
(512,672,cs),
(512,690,o),
(498,704,o),
(480,704,cs),
(462,704,o),
(448,690,o),
(448,672,cs),
(448,654,o),
(434,640,o),
(416,640,cs),
(398,640,o),
(384,654,o),
(384,672,cs),
(384,690,o),
(368,704,o),
(348,704,cs),
(228,704,ls),
(208,704,o),
(192,690,o),
(192,672,cs),
(192,654,o),
(178,640,o),
(160,640,cs),
(142,640,o),
(128,626,o),
(128,608,cs)
);
},
{
closed = 1;
nodes = (
(576,654,o),
(590,640,o),
(608,640,cs),
(626,640,o),
(640,626,o),
(640,608,cs),
(640,590,o),
(654,576,o),
(672,576,cs),
(690,576,o),
(704,562,o),
(704,544,cs),
(704,526,o),
(720,512,o),
(740,512,cs),
(796,512,ls),
(816,512,o),
(832,526,o),
(832,544,cs),
(832,563,o),
(846,576,o),
(864,576,cs),
(882,576,o),
(896,592,o),
(896,612,cs),
(896,668,ls),
(896,688,o),
(882,704,o),
(864,704,cs),
(846,704,o),
(832,690,o),
(832,672,cs),
(832,654,o),
(818,640,o),
(800,640,cs),
(782,640,o),
(768,654,o),
(768,672,cs),
(768,690,o),
(752,704,o),
(732,704,cs),
(612,704,ls),
(592,704,o),
(576,690,o),
(576,672,cs)
);
},
{
closed = 1;
nodes = (
(768,78,o),
(782,64,o),
(800,64,cs),
(818,64,o),
(832,78,o),
(832,96,cs),
(832,115,o),
(818,128,o),
(800,128,cs),
(782,128,o),
(768,114,o),
(768,96,cs)
);
}
);
width = 960;
}
);
unicode = 338;
},
{
glyphname = P;
lastChange = "2023-08-27 17:42:46 +0000";
layers = (
{
layerId = m002;
shapes = (
{
closed = 1;
nodes = (
(192,51,o),
(206,64,o),
(224,64,cs),
(242,64,o),
(256,78,o),
(256,96,cs),
(256,114,o),
(242,128,o),
(224,128,cs),
(206,128,o),
(192,142,o),
(192,160,cs),
(192,178,o),
(208,192,o),
(228,192,cs),
(284,192,ls),
(304,192,o),
(320,206,o),
(320,224,cs),
(320,242,o),
(334,256,o),
(352,256,cs),
(370,256,o),
(384,270,o),
(384,288,cs),
(384,306,o),
(368,320,o),
(348,320,cs),
(228,320,ls),
(208,320,o),
(192,336,o),
(192,356,cs),
(192,540,ls),
(192,560,o),
(206,576,o),
(224,576,cs),
(242,576,o),
(256,590,o),
(256,608,cs),
(256,626,o),
(242,640,o),
(224,640,cs),
(206,640,o),
(192,654,o),
(192,672,cs),
(192,690,o),
(178,704,o),
(160,704,cs),
(142,704,o),
(128,690,o),
(128,672,cs),
(128,654,o),
(114,640,o),
(96,640,cs),
(78,640,o),
(64,626,o),
(64,608,cs),
(64,590,o),
(50,576,o),
(32,576,cs),
(14,576,o),
(0,562,o),
(0,544,cs),
(0,526,o),
(14,512,o),
(32,512,cs),
(50,512,o),
(64,496,o),
(64,476,cs),
(64,36,ls),
(64,16,o),
(80,0,o),
(100,0,cs),
(156,0,ls),
(176,0,o),
(192,14,o),
(192,32,cs)
);
},
{
closed = 1;
nodes = (
(448,371,o),
(462,384,o),
(480,384,cs),
(498,384,o),
(512,400,o),
(512,420,cs),
(512,604,ls),
(512,624,o),
(498,640,o),
(480,640,cs),
(462,640,o),
(448,654,o),
(448,672,cs),
(448,690,o),
(432,704,o),
(412,704,cs),
(292,704,ls),
(272,704,o),
(256,690,o),
(256,672,cs),
(256,654,o),
(270,640,o),
(288,640,cs),
(306,640,o),
(320,626,o),
(320,608,cs),
(320,590,o),
(334,576,o),
(352,576,cs),
(370,576,o),
(384,560,o),
(384,540,cs),
(384,356,ls),
(384,336,o),
(398,320,o),
(416,320,cs),
(434,320,o),
(448,334,o),
(448,352,cs)
);
}
);
width = 576;
}
);
note = P;
unicode = 80;
},
{
glyphname = Q;
lastChange = "2023-08-27 17:42:50 +0000";
layers = (
{
layerId = m002;
shapes = (
{
closed = 1;
nodes = (
(448,-77,o),
(462,-64,o),
(480,-64,cs),
(498,-64,o),
(512,-50,o),
(512,-32,cs),
(512,-14,o),
(498,0,o),
(480,0,cs),
(462,0,o),
(448,14,o),
(448,32,cs),
(448,50,o),
(434,64,o),
(416,64,cs),
(398,64,o),
(384,78,o),
(384,96,cs),
(384,114,o),
(370,128,o),
(352,128,cs),
(334,128,o),
(320,114,o),
(320,96,cs),
(320,78,o),
(306,64,o),
(288,64,cs),
(270,64,o),
(256,78,o),
(256,96,cs),
(256,114,o),
(242,128,o),
(224,128,cs),
(206,128,o),
(192,142,o),
(192,160,cs),
(192,178,o),
(178,192,o),
(160,192,cs),
(142,192,o),
(128,208,o),
(128,228,cs),
(128,540,ls),
(128,560,o),
(114,576,o),
(96,576,cs),
(78,576,o),
(64,562,o),
(64,544,cs),
(64,526,o),
(50,512,o),
(32,512,cs),
(14,512,o),
(0,496,o),
(0,476,cs),
(0,164,ls),
(0,144,o),
(14,128,o),
(32,128,cs),
(50,128,o),
(64,114,o),
(64,96,cs),
(64,78,o),
(78,64,o),
(96,64,cs),
(114,64,o),
(128,50,o),
(128,32,cs),
(128,14,o),
(144,0,o),
(164,0,cs),
(284,0,ls),
(304,0,o),
(320,-14,o),
(320,-32,cs),
(320,-50,o),
(334,-64,o),
(352,-64,cs),
(370,-64,o),
(384,-78,o),
(384,-96,cs),
(384,-114,o),
(398,-128,o),
(416,-128,cs),
(434,-128,o),
(448,-114,o),
(448,-96,cs)
);
},
{
closed = 1;
nodes = (
(576,51,o),
(562,64,o),
(544,64,cs),
(526,64,o),
(512,50,o),
(512,32,cs),
(512,14,o),
(526,0,o),
(544,0,cs),
(562,0,o),
(576,14,o),
(576,32,cs)
);
},
{
closed = 1;
nodes = (
(448,179,o),
(462,192,o),
(480,192,cs),
(498,192,o),
(512,208,o),
(512,228,cs),
(512,540,ls),
(512,560,o),
(498,576,o),
(480,576,cs),
(462,576,o),
(448,590,o),
(448,608,cs),
(448,626,o),
(434,640,o),
(416,640,cs),
(398,640,o),
(384,654,o),
(384,672,cs),
(384,690,o),
(368,704,o),
(348,704,cs),
(228,704,ls),
(208,704,o),
(192,690,o),
(192,672,cs),
(192,654,o),
(178,640,o),
(160,640,cs),
(142,640,o),
(128,626,o),
(128,608,cs),
(128,590,o),
(142,576,o),
(160,576,cs),
(178,576,o),
(192,590,o),
(192,608,cs),
(192,626,o),
(206,640,o),
(224,640,cs),
(242,640,o),
(256,626,o),
(256,608,cs),
(256,590,o),
(270,576,o),
(288,576,cs),
(306,576,o),
(320,562,o),
(320,544,cs),
(320,526,o),
(334,512,o),
(352,512,cs),
(370,512,o),
(384,496,o),
(384,476,cs),
(384,164,ls),
(384,144,o),
(398,128,o),
(416,128,cs),
(434,128,o),
(448,142,o),
(448,160,cs)
);
}
);
width = 640;
}
);
note = Q;
unicode = 81;
},
{
glyphname = R;
lastChange = "2023-08-27 17:42:53 +0000";
layers = (
{
layerId = m002;
shapes = (
{
closed = 1;
nodes = (
(512,51,o),
(526,64,o),
(544,64,cs),
(562,64,o),
(576,78,o),
(576,96,cs),
(576,114,o),
(562,128,o),
(544,128,cs),
(526,128,o),
(512,144,o),
(512,164,cs),
(512,348,ls),
(512,368,o),
(498,384,o),
(480,384,cs),
(462,384,o),
(448,400,o),
(448,420,cs),
(448,476,ls),
(448,496,o),
(462,512,o),
(480,512,cs),
(498,512,o),
(512,528,o),
(512,548,cs),
(512,604,ls),
(512,624,o),
(498,640,o),
(480,640,cs),
(462,640,o),
(448,654,o),
(448,672,cs),
(448,690,o),
(432,704,o),
(412,704,cs),
(292,704,ls),
(272,704,o),
(256,690,o),
(256,672,cs),
(256,654,o),
(242,640,o),
(224,640,cs),
(206,640,o),
(192,654,o),
(192,672,cs),
(192,690,o),
(178,704,o),
(160,704,cs),
(142,704,o),
(128,690,o),
(128,672,cs),
(128,654,o),
(114,640,o),
(96,640,cs),
(78,640,o),
(64,626,o),
(64,608,cs),
(64,590,o),
(50,576,o),
(32,576,cs),
(14,576,o),
(0,562,o),
(0,544,cs),
(0,526,o),
(14,512,o),
(32,512,cs),
(50,512,o),
(64,496,o),
(64,476,cs),
(64,36,ls),
(64,16,o),
(80,0,o),
(100,0,cs),
(156,0,ls),
(176,0,o),
(192,14,o),
(192,32,cs),
(192,50,o),
(206,64,o),
(224,64,cs),
(242,64,o),
(256,78,o),
(256,96,cs),
(256,114,o),
(242,128,o),
(224,128,cs),
(206,128,o),
(192,144,o),
(192,164,cs),
(192,220,ls),
(192,240,o),
(206,256,o),
(224,256,cs),
(242,256,o),
(256,270,o),
(256,288,cs),
(256,306,o),
(242,320,o),
(224,320,cs),
(206,320,o),
(192,336,o),
(192,356,cs),
(192,540,ls),
(192,560,o),
(206,576,o),
(224,576,cs),
(242,576,o),
(256,590,o),
(256,608,cs),
(256,626,o),
(270,640,o),
(288,640,cs),
(306,640,o),
(320,626,o),
(320,608,cs),
(320,590,o),
(334,576,o),
(352,576,cs),
(370,576,o),
(384,560,o),
(384,540,cs),
(384,484,ls),
(384,464,o),
(370,448,o),
(352,448,cs),
(334,448,o),
(320,434,o),
(320,416,cs),
(320,398,o),
(306,384,o),
(288,384,cs),
(270,384,o),
(256,370,o),
(256,352,cs),
(256,334,o),
(272,320,o),
(292,320,cs),
(348,320,ls),
(368,320,o),
(384,304,o),
(384,284,cs),
(384,36,ls),
(384,16,o),
(400,0,o),
(420,0,cs),
(476,0,ls),
(496,0,o),
(512,14,o),
(512,32,cs)
);
}
);
width = 640;
}
);
note = R;
unicode = 82;
},
{
glyphname = S;
lastChange = "2023-08-27 17:43:12 +0000";
layers = (
{
layerId = m002;
shapes = (
{
closed = 1;
nodes = (
(192,115,o),
(178,128,o),
(160,128,cs),
(142,128,o),
(128,142,o),
(128,160,cs),
(128,178,o),
(112,192,o),
(92,192,cs),
(36,192,ls),
(16,192,o),
(0,176,o),
(0,156,cs),
(0,100,ls),
(0,80,o),
(14,64,o),
(32,64,cs),
(50,64,o),
(64,50,o),
(64,32,cs),
(64,14,o),
(80,0,o),
(100,0,cs),
(284,0,ls),
(304,0,o),
(320,14,o),
(320,32,cs),
(320,50,o),
(304,64,o),
(284,64,cs),
(228,64,ls),
(208,64,o),
(192,78,o),
(192,96,cs)
);
},
{
closed = 1;
nodes = (
(384,115,o),
(370,128,o),
(352,128,cs),
(334,128,o),
(320,114,o),
(320,96,cs),
(320,78,o),
(334,64,o),
(352,64,cs),
(370,64,o),
(384,78,o),
(384,96,cs)
);
},
{
closed = 1;
nodes = (
(448,179,o),
(462,192,o),
(480,192,cs),
(498,192,o),
(512,208,o),
(512,228,cs),
(512,284,ls),
(512,304,o),
(498,320,o),
(480,320,cs),
(462,320,o),
(448,334,o),
(448,352,cs),
(448,370,o),
(434,384,o),
(416,384,cs),
(398,384,o),
(384,398,o),
(384,416,cs),
(384,434,o),
(368,448,o),
(348,448,cs),
(164,448,ls),
(144,448,o),
(128,464,o),
(128,484,cs),
(128,540,ls),
(128,560,o),
(114,576,o),
(96,576,cs),
(78,576,o),
(64,562,o),
(64,544,cs),
(64,526,o),
(50,512,o),
(32,512,cs),
(14,512,o),
(0,496,o),
(0,476,cs),
(0,420,ls),
(0,400,o),
(14,384,o),
(32,384,cs),
(50,384,o),
(64,370,o),
(64,352,cs),
(64,334,o),
(80,320,o),
(100,320,cs),
(284,320,ls),
(304,320,o),
(320,306,o),
(320,288,cs),
(320,270,o),
(334,256,o),
(352,256,cs),
(370,256,o),
(384,240,o),
(384,220,cs),
(384,164,ls),
(384,144,o),
(398,128,o),
(416,128,cs),
(434,128,o),
(448,142,o),
(448,160,cs)
);
},
{
closed = 1;
nodes = (
(448,563,o),
(462,576,o),
(480,576,cs),
(498,576,o),
(512,590,o),
(512,608,cs),
(512,626,o),
(496,640,o),
(476,640,cs),
(420,640,ls),
(400,640,o),
(384,654,o),
(384,672,cs),
(384,690,o),
(368,704,o),
(348,704,cs),
(228,704,ls),
(208,704,o),
(192,690,o),
(192,672,cs),
(192,654,o),
(178,640,o),
(160,640,cs),
(142,640,o),
(128,626,o),
(128,608,cs),
(128,590,o),
(142,576,o),
(160,576,cs),
(178,576,o),
(192,590,o),
(192,608,cs),
(192,626,o),
(206,640,o),
(224,640,cs),
(242,640,o),
(256,626,o),
(256,608,cs),
(256,590,o),
(270,576,o),
(288,576,cs),
(306,576,o),
(320,562,o),
(320,544,cs),
(320,526,o),
(336,512,o),
(356,512,cs),
(412,512,ls),
(432,512,o),
(448,526,o),
(448,544,cs)
);
}
);
width = 576;
}
);
note = S;
unicode = 83;
},
{
glyphname = T;
lastChange = "2023-08-27 17:43:19 +0000";
layers = (
{
layerId = m002;
shapes = (
{
closed = 1;
nodes = (
(64,563,o),
(50,576,o),
(32,576,cs),
(14,576,o),
(0,562,o),
(0,544,cs),
(0,526,o),
(14,512,o),
(32,512,cs),
(50,512,o),
(64,526,o),
(64,544,cs)
);
},
{
closed = 1;
nodes = (
(448,51,o),
(434,64,o),
(416,64,cs),
(398,64,o),
(384,78,o),
(384,96,cs),
(384,114,o),
(370,128,o),
(352,128,cs),
(334,128,o),
(320,144,o),
(320,164,cs),
(320,604,ls),
(320,624,o),
(334,640,o),
(352,640,cs),
(370,640,o),
(384,626,o),
(384,608,cs),
(384,590,o),
(398,576,o),
(416,576,cs),
(434,576,o),
(448,562,o),
(448,544,cs),
(448,526,o),
(464,512,o),
(484,512,cs),
(540,512,ls),
(560,512,o),
(576,528,o),
(576,548,cs),
(576,668,ls),
(576,688,o),
(562,704,o),
(544,704,cs),
(526,704,o),
(512,690,o),
(512,672,cs),
(512,654,o),
(498,640,o),
(480,640,cs),
(462,640,o),
(448,654,o),
(448,672,cs),
(448,690,o),
(432,704,o),
(412,704,cs),
(164,704,ls),
(144,704,o),
(128,690,o),
(128,672,cs),
(128,654,o),
(114,640,o),
(96,640,cs),
(78,640,o),
(64,626,o),
(64,608,cs),
(64,590,o),
(78,576,o),
(96,576,cs),
(114,576,o),
(128,590,o),
(128,608,cs),
(128,626,o),
(144,640,o),
(164,640,cs),
(220,640,ls),
(240,640,o),
(256,626,o),
(256,608,cs),
(256,590,o),
(242,576,o),
(224,576,cs),
(206,576,o),
(192,560,o),
(192,540,cs),
(192,100,ls),
(192,80,o),
(206,64,o),
(224,64,cs),
(242,64,o),
(256,50,o),
(256,32,cs),
(256,14,o),
(272,0,o),
(292,0,cs),
(412,0,ls),
(432,0,o),
(448,14,o),
(448,32,cs)
);
},
{
closed = 1;
nodes = (
(512,115,o),
(498,128,o),
(480,128,cs),
(462,128,o),
(448,114,o),
(448,96,cs),
(448,78,o),
(462,64,o),
(480,64,cs),
(498,64,o),
(512,78,o),
(512,96,cs)
);
},
{
closed = 1;
nodes = (
(576,179,o),
(562,192,o),
(544,192,cs),
(526,192,o),
(512,178,o),
(512,160,cs),
(512,142,o),
(526,128,o),
(544,128,cs),
(562,128,o),
(576,142,o),
(576,160,cs)
);
}
);
width = 640;
}
);
note = T;
unicode = 84;
},
{
glyphname = U;
lastChange = "2023-11-28 13:32:01 +0000";
layers = (
{
anchors = (
{
name = bottom;
pos = (352,0);
},
{
name = ogonek;
pos = (634,10);
},
{
name = top;
pos = (352,704);
},
{
name = topright;
pos = (684,704);
}
);
layerId = m002;
shapes = (
{
closed = 1;
nodes = (
(576,51,o),
(590,64,o),
(608,64,cs),
(626,64,o),
(640,78,o),
(640,96,cs),
(640,114,o),
(626,128,o),
(608,128,cs),
(590,128,o),
(576,144,o),
(576,164,cs),
(576,668,ls),
(576,688,o),
(562,704,o),
(544,704,cs),
(526,704,o),
(512,690,o),
(512,672,cs),
(512,654,o),
(498,640,o),
(480,640,cs),
(462,640,o),
(448,626,o),
(448,608,cs),
(448,590,o),
(434,576,o),
(416,576,cs),
(398,576,o),
(384,562,o),
(384,544,cs),
(384,526,o),
(398,512,o),
(416,512,cs),
(434,512,o),
(448,496,o),
(448,476,cs),
(448,100,ls),
(448,80,o),
(432,64,o),
(412,64,cs),
(292,64,ls),
(272,64,o),
(256,78,o),
(256,96,cs),
(256,114,o),
(242,128,o),
(224,128,cs),
(206,128,o),
(192,144,o),
(192,164,cs),
(192,668,ls),
(192,688,o),
(178,704,o),
(160,704,cs),
(142,704,o),
(128,690,o),
(128,672,cs),
(128,654,o),
(114,640,o),
(96,640,cs),
(78,640,o),
(64,626,o),
(64,608,cs),
(64,590,o),
(50,576,o),
(32,576,cs),
(14,576,o),
(0,562,o),
(0,544,cs),
(0,526,o),
(14,512,o),
(32,512,cs),
(50,512,o),
(64,496,o),
(64,476,cs),
(64,100,ls),
(64,80,o),
(78,64,o),
(96,64,cs),
(114,64,o),
(128,50,o),
(128,32,cs),
(128,14,o),
(144,0,o),
(164,0,cs),
(540,0,ls),
(560,0,o),
(576,14,o),
(576,32,cs)
);
}
);
width = 704;
}
);
note = U;
unicode = 85;
},
{
glyphname = V;
lastChange = "2023-08-27 17:43:26 +0000";
layers = (
{
layerId = m002;
shapes = (
{
closed = 1;
nodes = (
(384,51,o),
(398,64,o),
(416,64,cs),
(434,64,o),
(448,78,o),
(448,96,cs),
(448,114,o),
(432,128,o),
(412,128,cs),
(356,128,ls),
(336,128,o),
(320,142,o),
(320,160,cs),
(320,178,o),
(306,192,o),
(288,192,cs),
(270,192,o),
(256,206,o),
(256,224,cs),
(256,242,o),
(242,256,o),
(224,256,cs),
(206,256,o),
(192,272,o),
(192,292,cs),
(192,668,ls),
(192,688,o),
(178,704,o),
(160,704,cs),
(142,704,o),
(128,690,o),
(128,672,cs),
(128,654,o),
(114,640,o),
(96,640,cs),
(78,640,o),
(64,626,o),
(64,608,cs),
(64,590,o),
(50,576,o),
(32,576,cs),
(14,576,o),
(0,562,o),
(0,544,cs),
(0,526,o),
(14,512,o),
(32,512,cs),
(50,512,o),
(64,496,o),
(64,476,cs),
(64,228,ls),
(64,208,o),
(78,192,o),
(96,192,cs),
(114,192,o),
(128,178,o),
(128,160,cs),
(128,142,o),
(142,128,o),
(160,128,cs),
(178,128,o),
(192,114,o),
(192,96,cs),
(192,78,o),
(206,64,o),
(224,64,cs),
(242,64,o),
(256,50,o),
(256,32,cs),
(256,14,o),
(272,0,o),
(292,0,cs),
(348,0,ls),
(368,0,o),
(384,14,o),
(384,32,cs)
);
},
{
closed = 1;
nodes = (
(512,179,o),
(526,192,o),
(544,192,cs),
(562,192,o),
(576,208,o),
(576,228,cs),
(576,668,ls),
(576,688,o),
(562,704,o),
(544,704,cs),
(526,704,o),
(512,690,o),
(512,672,cs),
(512,654,o),
(498,640,o),
(480,640,cs),
(462,640,o),
(448,624,o),
(448,604,cs),
(448,164,ls),
(448,144,o),
(462,128,o),
(480,128,cs),
(498,128,o),
(512,142,o),
(512,160,cs)
);
}
);
width = 640;
}
);
note = V;
unicode = 86;
},
{
glyphname = W;
lastChange = "2023-11-28 13:32:42 +0000";
layers = (
{
anchors = (
{
name = bottom;
pos = (384,0);
},
{
name = top;
pos = (384,704);
}
);
layerId = m002;
shapes = (
{
closed = 1;
nodes = (
(256,51,o),
(270,64,o),
(288,64,cs),
(306,64,o),
(320,50,o),
(320,32,cs),
(320,14,o),
(336,0,o),
(356,0,cs),
(476,0,ls),
(496,0,o),
(512,14,o),
(512,32,cs),
(512,50,o),
(498,64,o),
(480,64,cs),
(462,64,o),
(448,80,o),
(448,100,cs),
(448,476,ls),
(448,496,o),
(434,512,o),
(416,512,cs),
(398,512,o),
(384,498,o),
(384,480,cs),
(384,462,o),
(370,448,o),
(352,448,cs),
(334,448,o),
(320,432,o),
(320,412,cs),
(320,164,ls),
(320,144,o),
(306,128,o),
(288,128,cs),
(270,128,o),
(256,142,o),
(256,160,cs),
(256,178,o),
(242,192,o),
(224,192,cs),
(206,192,o),
(192,208,o),
(192,228,cs),
(192,668,ls),
(192,688,o),
(178,704,o),
(160,704,cs),
(142,704,o),
(128,690,o),
(128,672,cs),
(128,654,o),
(114,640,o),
(96,640,cs),
(78,640,o),
(64,626,o),
(64,608,cs),
(64,590,o),
(50,576,o),
(32,576,cs),
(14,576,o),
(0,562,o),
(0,544,cs),
(0,526,o),
(14,512,o),
(32,512,cs),
(50,512,o),
(64,496,o),
(64,476,cs),
(64,164,ls),
(64,144,o),
(78,128,o),
(96,128,cs),
(114,128,o),
(128,114,o),
(128,96,cs),
(128,78,o),
(142,64,o),
(160,64,cs),
(178,64,o),
(192,50,o),
(192,32,cs),
(192,14,o),
(206,0,o),
(224,0,cs),
(242,0,o),
(256,14,o),
(256,32,cs)
);
},
{
closed = 1;
nodes = (
(576,115,o),
(562,128,o),
(544,128,cs),
(526,128,o),
(512,114,o),
(512,96,cs),
(512,78,o),
(526,64,o),
(544,64,cs),
(562,64,o),
(576,78,o),
(576,96,cs)
);
},
{
closed = 1;
nodes = (
(640,179,o),
(654,192,o),
(672,192,cs),
(690,192,o),
(704,208,o),
(704,228,cs),
(704,668,ls),
(704,688,o),
(690,704,o),
(672,704,cs),
(654,704,o),
(640,690,o),
(640,672,cs),
(640,654,o),
(626,640,o),
(608,640,cs),
(590,640,o),
(576,624,o),
(576,604,cs),
(576,164,ls),
(576,144,o),
(590,128,o),
(608,128,cs),
(626,128,o),
(640,142,o),
(640,160,cs)
);
}
);
width = 768;
}
);
note = W;
unicode = 87;
},
{
glyphname = X;
lastChange = "2023-08-27 17:43:35 +0000";
layers = (
{
layerId = m002;
shapes = (
{
closed = 1;
nodes = (
(512,51,o),
(526,64,o),
(544,64,cs),
(562,64,o),
(576,78,o),
(576,96,cs),
(576,114,o),
(562,128,o),
(544,128,cs),
(526,128,o),
(512,144,o),
(512,164,cs),
(512,220,ls),
(512,240,o),
(498,256,o),
(480,256,cs),
(462,256,o),
(448,270,o),
(448,288,cs),
(448,306,o),
(434,320,o),
(416,320,cs),
(398,320,o),
(384,334,o),
(384,352,cs),
(384,370,o),
(370,384,o),
(352,384,cs),
(334,384,o),
(320,398,o),
(320,416,cs),
(320,434,o),
(306,448,o),
(288,448,cs),
(270,448,o),
(256,462,o),
(256,480,cs),
(256,498,o),
(242,512,o),
(224,512,cs),
(206,512,o),
(192,528,o),
(192,548,cs),
(192,668,ls),
(192,688,o),
(178,704,o),
(160,704,cs),
(142,704,o),
(128,690,o),
(128,672,cs),
(128,654,o),
(114,640,o),
(96,640,cs),
(78,640,o),
(64,626,o),
(64,608,cs),
(64,590,o),
(50,576,o),
(32,576,cs),
(14,576,o),
(0,562,o),
(0,544,cs),
(0,526,o),
(14,512,o),
(32,512,cs),
(50,512,o),
(64,498,o),
(64,480,cs),
(64,462,o),
(78,448,o),
(96,448,cs),
(114,448,o),
(128,434,o),
(128,416,cs),
(128,398,o),
(142,384,o),
(160,384,cs),
(178,384,o),
(192,370,o),
(192,352,cs),
(192,334,o),
(178,320,o),
(160,320,cs),
(142,320,o),
(128,306,o),
(128,288,cs),
(128,270,o),
(114,256,o),
(96,256,cs),
(78,256,o),
(64,240,o),
(64,220,cs),
(64,164,ls),
(64,144,o),
(50,128,o),
(32,128,cs),
(14,128,o),
(0,114,o),
(0,96,cs),
(0,78,o),
(14,64,o),
(32,64,cs),
(50,64,o),
(64,50,o),
(64,32,cs),
(64,14,o),
(80,0,o),
(100,0,cs),
(156,0,ls),
(176,0,o),
(192,16,o),
(192,36,cs),
(192,284,ls),
(192,304,o),
(206,320,o),
(224,320,cs),
(242,320,o),
(256,306,o),
(256,288,cs),
(256,270,o),
(270,256,o),
(288,256,cs),
(306,256,o),
(320,242,o),
(320,224,cs),
(320,206,o),
(334,192,o),
(352,192,cs),
(370,192,o),
(384,176,o),
(384,156,cs),
(384,36,ls),
(384,16,o),
(400,0,o),
(420,0,cs),
(476,0,ls),
(496,0,o),
(512,14,o),
(512,32,cs)
);
},
{
closed = 1;
nodes = (
(448,435,o),
(462,448,o),
(480,448,cs),
(498,448,o),
(512,464,o),
(512,484,cs),
(512,668,ls),
(512,688,o),
(498,704,o),
(480,704,cs),
(462,704,o),
(448,690,o),
(448,672,cs),
(448,654,o),
(434,640,o),
(416,640,cs),
(398,640,o),
(384,624,o),
(384,604,cs),
(384,420,ls),
(384,400,o),
(398,384,o),
(416,384,cs),
(434,384,o),
(448,398,o),
(448,416,cs)
);
}
);
width = 640;
}
);
note = X;
unicode = 88;
},
{
glyphname = Y;
lastChange = "2023-11-28 13:33:27 +0000";
layers = (
{
anchors = (
{
name = bottom;
pos = (320,0);
},
{
name = top;
pos = (320,704);
},
{
name = topleft;
pos = (20,704);
}
);
layerId = m002;
shapes = (
{
closed = 1;
nodes = (
(384,51,o),
(398,64,o),
(416,64,cs),
(434,64,o),
(448,78,o),
(448,96,cs),
(448,114,o),
(434,128,o),
(416,128,cs),
(398,128,o),
(384,144,o),
(384,164,cs),
(384,284,ls),
(384,304,o),
(370,320,o),
(352,320,cs),
(334,320,o),
(320,334,o),
(320,352,cs),
(320,370,o),
(306,384,o),
(288,384,cs),
(270,384,o),
(256,398,o),
(256,416,cs),
(256,434,o),
(242,448,o),
(224,448,cs),
(206,448,o),
(192,464,o),
(192,484,cs),
(192,668,ls),
(192,688,o),
(178,704,o),
(160,704,cs),
(142,704,o),
(128,690,o),
(128,672,cs),
(128,654,o),
(114,640,o),
(96,640,cs),
(78,640,o),
(64,626,o),
(64,608,cs),
(64,590,o),
(50,576,o),
(32,576,cs),
(14,576,o),
(0,562,o),
(0,544,cs),
(0,526,o),
(14,512,o),
(32,512,cs),
(50,512,o),
(64,496,o),
(64,476,cs),
(64,420,ls),
(64,400,o),
(78,384,o),
(96,384,cs),
(114,384,o),
(128,370,o),
(128,352,cs),
(128,334,o),
(142,320,o),
(160,320,cs),
(178,320,o),
(192,306,o),
(192,288,cs),
(192,270,o),
(206,256,o),
(224,256,cs),
(242,256,o),
(256,240,o),
(256,220,cs),
(256,36,ls),
(256,16,o),
(272,0,o),
(292,0,cs),
(348,0,ls),
(368,0,o),
(384,14,o),
(384,32,cs)
);
},
{
closed = 1;
nodes = (
(448,371,o),
(434,384,o),
(416,384,cs),
(398,384,o),
(384,370,o),
(384,352,cs),
(384,334,o),
(398,320,o),
(416,320,cs),
(434,320,o),
(448,334,o),
(448,352,cs)
);
},
{
closed = 1;
nodes = (
(512,435,o),
(526,448,o),
(544,448,cs),
(562,448,o),
(576,464,o),
(576,484,cs),
(576,668,ls),
(576,688,o),
(562,704,o),
(544,704,cs),
(526,704,o),
(512,690,o),
(512,672,cs),
(512,654,o),
(498,640,o),
(480,640,cs),
(462,640,o),
(448,624,o),
(448,604,cs),
(448,420,ls),
(448,400,o),
(462,384,o),
(480,384,cs),
(498,384,o),
(512,398,o),
(512,416,cs)
);
}
);
width = 640;
}
);
note = Y;
unicode = 89;
},
{
glyphname = Z;
lastChange = "2023-08-27 17:43:47 +0000";
layers = (
{
layerId = m002;
shapes = (
{
closed = 1;
nodes = (
(64,563,o),
(50,576,o),
(32,576,cs),
(14,576,o),
(0,562,o),
(0,544,cs),
(0,526,o),
(14,512,o),
(32,512,cs),
(50,512,o),
(64,526,o),
(64,544,cs)
);
},
{
closed = 1;
nodes = (
(384,51,o),
(398,64,o),
(416,64,cs),
(434,64,o),
(448,78,o),
(448,96,cs),
(448,114,o),
(432,128,o),
(412,128,cs),
(164,128,ls),
(144,128,o),
(128,144,o),
(128,164,cs),
(128,220,ls),
(128,240,o),
(114,256,o),
(96,256,cs),
(78,256,o),
(64,242,o),
(64,224,cs),
(64,206,o),
(50,192,o),
(32,192,cs),
(14,192,o),
(0,176,o),
(0,156,cs),
(0,100,ls),
(0,80,o),
(14,64,o),
(32,64,cs),
(50,64,o),
(64,50,o),
(64,32,cs),
(64,14,o),
(80,0,o),
(100,0,cs),
(348,0,ls),
(368,0,o),
(384,14,o),
(384,32,cs)
);
},
{
closed = 1;
nodes = (
(512,179,o),
(498,192,o),
(480,192,cs),
(462,192,o),
(448,178,o),
(448,160,cs),
(448,142,o),
(462,128,o),
(480,128,cs),
(498,128,o),
(512,142,o),
(512,160,cs)
);
},
{
closed = 1;
nodes = (
(192,307,o),
(208,320,o),
(228,320,cs),
(348,320,ls),
(368,320,o),
(384,334,o),
(384,352,cs),
(384,370,o),
(370,384,o),
(352,384,cs),
(334,384,o),
(320,398,o),
(320,416,cs),
(320,434,o),
(306,448,o),
(288,448,cs),
(270,448,o),
(256,434,o),
(256,416,cs),
(256,398,o),
(240,384,o),
(220,384,cs),
(100,384,ls),
(80,384,o),
(64,370,o),
(64,352,cs),
(64,334,o),
(78,320,o),
(96,320,cs),
(114,320,o),
(128,306,o),
(128,288,cs),
(128,270,o),
(142,256,o),
(160,256,cs),
(178,256,o),
(192,270,o),
(192,288,cs)
);
},
{
closed = 1;
nodes = (
(384,499,o),
(370,512,o),
(352,512,cs),
(334,512,o),
(320,498,o),
(320,480,cs),
(320,462,o),
(334,448,o),
(352,448,cs),
(370,448,o),
(384,462,o),
(384,480,cs)
);
},
{
closed = 1;
nodes = (
(448,563,o),
(462,576,o),
(480,576,cs),
(498,576,o),
(512,590,o),
(512,608,cs),
(512,626,o),
(498,640,o),
(480,640,cs),
(462,640,o),
(448,654,o),
(448,672,cs),
(448,690,o),
(432,704,o),
(412,704,cs),
(164,704,ls),
(144,704,o),
(128,690,o),
(128,672,cs),
(128,654,o),
(114,640,o),
(96,640,cs),
(78,640,o),
(64,626,o),
(64,608,cs),
(64,590,o),
(80,576,o),
(100,576,cs),
(348,576,ls),
(368,576,o),
(384,562,o),
(384,544,cs),
(384,526,o),
(398,512,o),
(416,512,cs),
(434,512,o),
(448,526,o),
(448,544,cs)
);
}
);
width = 576;
}
);
note = Z;
unicode = 90;
},
{
glyphname = a;
lastChange = "2023-08-30 17:42:40 +0000";
layers = (
{
anchors = (
{
name = bottom;
pos = (256,0);
},
{
name = ogonek;
pos = (461,10);
},
{
name = top;
pos = (256,512);
}
);
layerId = m002;
shapes = (
{
closed = 1;
nodes = (
(64,371,o),
(50,384,o),
(32,384,cs),
(14,384,o),
(0,370,o),
(0,352,cs),
(0,334,o),
(14,320,o),
(32,320,cs),
(50,320,o),
(64,334,o),
(64,352,cs)
);
},
{
closed = 1;
nodes = (
(384,51,o),
(398,64,o),
(416,64,cs),
(434,64,o),
(448,78,o),
(448,96,cs),
(448,114,o),
(434,128,o),
(416,128,cs),
(398,128,o),
(384,144,o),
(384,164,cs),
(384,412,ls),
(384,432,o),
(370,448,o),
(352,448,cs),
(334,448,o),
(320,462,o),
(320,480,cs),
(320,498,o),
(304,512,o),
(284,512,cs),
(164,512,ls),
(144,512,o),
(128,498,o),
(128,480,cs),
(128,462,o),
(114,448,o),
(96,448,cs),
(78,448,o),
(64,434,o),
(64,416,cs),
(64,398,o),
(80,384,o),
(100,384,cs),
(220,384,ls),
(240,384,o),
(256,370,o),
(256,352,cs),
(256,334,o),
(240,320,o),
(220,320,cs),
(164,320,ls),
(144,320,o),
(128,306,o),
(128,288,cs),
(128,270,o),
(114,256,o),
(96,256,cs),
(78,256,o),
(64,242,o),
(64,224,cs),
(64,206,o),
(50,192,o),
(32,192,cs),
(14,192,o),
(0,176,o),
(0,156,cs),
(0,100,ls),
(0,80,o),
(14,64,o),
(32,64,cs),
(50,64,o),
(64,50,o),
(64,32,cs),
(64,14,o),
(80,0,o),
(100,0,cs),
(348,0,ls),
(368,0,o),
(384,14,o),
(384,32,cs)
);
},
{
closed = 1;
nodes = (
(128,220,ls),
(128,240,o),
(144,256,o),
(164,256,cs),
(220,256,ls),
(240,256,o),
(256,240,o),
(256,220,cs),
(256,100,ls),
(256,80,o),
(240,64,o),
(220,64,cs),
(164,64,ls),
(144,64,o),
(128,80,o),
(128,100,cs)
);
}
);
width = 512;
}
);
note = a;
unicode = 97;
},
{
glyphname = ae;
lastChange = "2023-08-28 11:06:09 +0000";
layers = (
{
layerId = m002;
shapes = (
{
closed = 1;
nodes = (
(64,371,o),
(50,384,o),
(32,384,cs),
(14,384,o),
(0,370,o),
(0,352,cs),
(0,334,o),
(14,320,o),
(32,320,cs),
(50,320,o),
(64,334,o),
(64,352,cs)
);
},
{
closed = 1;
nodes = (
(0,80,o),
(14,64,o),
(32,64,cs),
(50,64,o),
(64,50,o),
(64,32,cs),
(64,14,o),
(80,0,o),
(100,0,cs),
(348,0,ls),
(350,0,o),
(351,0,o),
(352.5,0.24,cs),
(357,0,l),
(605,0,ls),
(625,0,o),
(641,14,o),
(641,32,cs),
(641,50,o),
(625,64,o),
(605,64,cs),
(485,64,ls),
(465,64,o),
(449,80,o),
(449,100,cs),
(449,156,ls),
(449,176,o),
(435,192,o),
(417,192,cs),
(399,192,o),
(385,208,o),
(385,228,cs),
(385,412,ls),
(385,432,o),
(371,448,o),
(352,448,cs),
(334,448,o),
(320,462,o),
(320,480,cs),
(320,498,o),
(304,512,o),
(284,512,cs),
(164,512,ls),
(144,512,o),
(128,498,o),
(128,480,cs),
(128,462,o),
(114,448,o),
(96,448,cs),
(78,448,o),
(64,434,o),
(64,416,cs),
(64,398,o),
(80,384,o),
(100,384,cs),
(220,384,ls),
(240,384,o),
(256,370,o),
(256,352,cs),
(256,334,o),
(240,320,o),
(220,320,cs),
(164,320,ls),
(144,320,o),
(128,306,o),
(128,288,cs),
(128,270,o),
(114,256,o),
(96,256,cs),
(78,256,o),
(64,242,o),
(64,224,cs),
(64,206,o),
(50,192,o),
(32,192,cs),
(14,192,o),
(0,176,o),
(0,156,cs),
(0,100,ls)
);
},
{
closed = 1;
nodes = (
(128,220,ls),
(128,240,o),
(144,256,o),
(164,256,cs),
(220,256,ls),
(240,256,o),
(256,240,o),
(256,220,cs),
(256,100,ls),
(256,80,o),
(240,64,o),
(220,64,cs),
(164,64,ls),
(144,64,o),
(128,80,o),
(128,100,cs)
);
},
{
closed = 1;
nodes = (
(385,462,o),
(401,448,o),
(421,448,cs),
(477,448,ls),
(497,448,o),
(513,434,o),
(513,416,cs),
(513,398,o),
(527,384,o),
(545,384,cs),
(563,384,o),
(577,370,o),
(577,352,cs),
(577,334,o),
(591,320,o),
(609,320,cs),
(627,320,o),
(641,334,o),
(641,352,cs),
(641,371,o),
(655,384,o),
(673,384,cs),
(691,384,o),
(705,398,o),
(705,416,cs),
(705,434,o),
(691,448,o),
(673,448,cs),
(655,448,o),
(641,462,o),
(641,480,cs),
(641,498,o),
(625,512,o),
(605,512,cs),
(421,512,ls),
(401,512,o),
(385,498,o),
(385,480,cs)
);
},
{
closed = 1;
nodes = (
(449,206,o),
(463,192,o),
(481,192,cs),
(499,192,o),
(513,206,o),
(513,224,cs),
(513,243,o),
(499,256,o),
(481,256,cs),
(463,256,o),
(449,242,o),
(449,224,cs)
);
},
{
closed = 1;
nodes = (
(513,270,o),
(527,256,o),
(545,256,cs),
(563,256,o),
(577,270,o),
(577,288,cs),
(577,307,o),
(563,320,o),
(545,320,cs),
(527,320,o),
(513,306,o),
(513,288,cs)
);
},
{
closed = 1;
nodes = (
(641,78,o),
(655,64,o),
(673,64,cs),
(691,64,o),
(705,78,o),
(705,96,cs),
(705,115,o),
(691,128,o),
(673,128,cs),
(655,128,o),
(641,114,o),
(641,96,cs)
);
}
);
width = 769;
}
);
unicode = 230;
},
{
glyphname = b;
lastChange = "2023-08-27 17:45:20 +0000";
layers = (
{
layerId = m002;
shapes = (
{
closed = 1;
nodes = (
(228,64,ls),
(208,64,o),
(192,80,o),
(192,100,cs),
(192,284,ls),
(192,304,o),
(206,320,o),
(224,320,cs),
(242,320,o),
(256,334,o),
(256,352,cs),
(256,370,o),
(242,384,o),
(224,384,cs),
(206,384,o),
(192,400,o),
(192,420,cs),
(192,668,ls),
(192,688,o),
(178,704,o),
(160,704,cs),
(142,704,o),
(128,690,o),
(128,672,cs),
(128,654,o),
(114,640,o),
(96,640,cs),
(78,640,o),
(64,626,o),
(64,608,cs),
(64,590,o),
(50,576,o),
(32,576,cs),
(14,576,o),
(0,562,o),
(0,544,cs),
(0,526,o),
(14,512,o),
(32,512,cs),
(50,512,o),
(64,496,o),
(64,476,cs),
(64,36,ls),
(64,16,o),
(80,0,o),
(100,0,cs),
(348,0,ls),
(368,0,o),
(384,14,o),
(384,32,cs),
(384,50,o),
(368,64,o),
(348,64,cs)
);
},
{
closed = 1;
nodes = (
(448,115,o),
(462,128,o),
(480,128,cs),
(498,128,o),
(512,144,o),
(512,164,cs),
(512,412,ls),
(512,432,o),
(498,448,o),
(480,448,cs),
(462,448,o),
(448,462,o),
(448,480,cs),
(448,498,o),
(432,512,o),
(412,512,cs),
(356,512,ls),
(336,512,o),
(320,498,o),
(320,480,cs),
(320,462,o),
(306,448,o),
(288,448,cs),
(270,448,o),
(256,434,o),
(256,416,cs),
(256,398,o),
(272,384,o),
(292,384,cs),
(348,384,ls),
(368,384,o),
(384,368,o),
(384,348,cs),
(384,100,ls),
(384,80,o),
(398,64,o),
(416,64,cs),
(434,64,o),
(448,78,o),
(448,96,cs)
);
}
);
width = 576;
}
);
note = b;
unicode = 98;
},
{
glyphname = c;
lastChange = "2023-08-27 17:45:23 +0000";
layers = (
{
layerId = m002;
shapes = (
{
closed = 1;
nodes = (
(256,115,o),
(242,128,o),
(224,128,cs),
(206,128,o),
(192,142,o),
(192,160,cs),
(192,178,o),
(178,192,o),
(160,192,cs),
(142,192,o),
(128,208,o),
(128,228,cs),
(128,412,ls),
(128,432,o),
(114,448,o),
(96,448,cs),
(78,448,o),
(64,434,o),
(64,416,cs),
(64,398,o),
(50,384,o),
(32,384,cs),
(14,384,o),
(0,368,o),
(0,348,cs),
(0,164,ls),
(0,144,o),
(14,128,o),
(32,128,cs),
(50,128,o),
(64,114,o),
(64,96,cs),
(64,78,o),
(78,64,o),
(96,64,cs),
(114,64,o),
(128,50,o),
(128,32,cs),
(128,14,o),
(144,0,o),
(164,0,cs),
(348,0,ls),
(368,0,o),
(384,14,o),
(384,32,cs),
(384,50,o),
(368,64,o),
(348,64,cs),
(292,64,ls),
(272,64,o),
(256,78,o),
(256,96,cs)
);
},
{
closed = 1;
nodes = (
(448,115,o),
(434,128,o),
(416,128,cs),
(398,128,o),
(384,114,o),
(384,96,cs),
(384,78,o),
(398,64,o),
(416,64,cs),
(434,64,o),
(448,78,o),
(448,96,cs)
);
},
{
closed = 1;
nodes = (
(448,476,ls),
(448,496,o),
(434,512,o),
(416,512,cs),
(398,512,o),
(384,498,o),
(384,480,cs),
(384,462,o),
(370,448,o),
(352,448,cs),
(334,448,o),
(320,462,o),
(320,480,cs),
(320,498,o),
(304,512,o),
(284,512,cs),
(164,512,ls),
(144,512,o),
(128,498,o),
(128,480,cs),
(128,462,o),
(144,448,o),
(164,448,cs),
(220,448,ls),
(240,448,o),
(256,434,o),
(256,416,cs),
(256,398,o),
(270,384,o),
(288,384,cs),
(306,384,o),
(320,370,o),
(320,352,cs),
(320,334,o),
(336,320,o),
(356,320,cs),
(412,320,ls),
(432,320,o),
(448,336,o),
(448,356,cs)
);
}
);
width = 512;
}
);
note = c;
unicode = 99;
},
{
glyphname = d;
lastChange = "2023-08-27 17:45:31 +0000";
layers = (
{
layerId = m002;
shapes = (
{
closed = 1;
nodes = (
(448,51,o),
(462,64,o),
(480,64,cs),
(498,64,o),
(512,78,o),
(512,96,cs),
(512,114,o),
(498,128,o),
(480,128,cs),
(462,128,o),
(448,144,o),
(448,164,cs),
(448,668,ls),
(448,688,o),
(432,704,o),
(412,704,cs),
(356,704,ls),
(336,704,o),
(320,690,o),
(320,672,cs),
(320,654,o),
(306,640,o),
(288,640,cs),
(270,640,o),
(256,626,o),
(256,608,cs),
(256,590,o),
(270,576,o),
(288,576,cs),
(306,576,o),
(320,560,o),
(320,540,cs),
(320,484,ls),
(320,464,o),
(306,448,o),
(288,448,cs),
(270,448,o),
(256,462,o),
(256,480,cs),
(256,498,o),
(240,512,o),
(220,512,cs),
(100,512,ls),
(80,512,o),
(64,498,o),
(64,480,cs),
(64,462,o),
(50,448,o),
(32,448,cs),
(14,448,o),
(0,432,o),
(0,412,cs),
(0,164,ls),
(0,144,o),
(14,128,o),
(32,128,cs),
(50,128,o),
(64,114,o),
(64,96,cs),
(64,78,o),
(78,64,o),
(96,64,cs),
(114,64,o),
(128,50,o),
(128,32,cs),
(128,14,o),
(144,0,o),
(164,0,cs),
(220,0,ls),
(240,0,o),
(256,14,o),
(256,32,cs),
(256,50,o),
(270,64,o),
(288,64,cs),
(306,64,o),
(320,50,o),
(320,32,cs),
(320,14,o),
(336,0,o),
(356,0,cs),
(412,0,ls),
(432,0,o),
(448,14,o),
(448,32,cs)
);
},
{
closed = 1;
nodes = (
(192,179,o),
(178,192,o),
(160,192,cs),
(142,192,o),
(128,208,o),
(128,228,cs),
(128,412,ls),
(128,432,o),
(142,448,o),
(160,448,cs),
(178,448,o),
(192,434,o),
(192,416,cs),
(192,398,o),
(206,384,o),
(224,384,cs),
(242,384,o),
(256,370,o),
(256,352,cs),
(256,334,o),
(270,320,o),
(288,320,cs),
(306,320,o),
(320,304,o),
(320,284,cs),
(320,164,ls),
(320,144,o),
(304,128,o),
(284,128,cs),
(228,128,ls),
(208,128,o),
(192,142,o),
(192,160,cs)
);
}
);
width = 576;
}
);
note = d;
unicode = 100;
},
{
glyphname = e;
lastChange = "2023-08-30 16:15:51 +0000";
layers = (
{
anchors = (
{
name = bottom;
pos = (256,0);
},
{
name = ogonek;
pos = (461,10);
},
{
name = top;
pos = (256,512);
}
);
layerId = m002;
shapes = (
{
closed = 1;
nodes = (
(228,64,ls),
(208,64,o),
(192,80,o),
(192,100,cs),
(192,156,ls),
(192,176,o),
(178,192,o),
(160,192,cs),
(142,192,o),
(128,208,o),
(128,228,cs),
(128,412,ls),
(128,432,o),
(114,448,o),
(96,448,cs),
(78,448,o),
(64,434,o),
(64,416,cs),
(64,398,o),
(50,384,o),
(32,384,cs),
(14,384,o),
(0,368,o),
(0,348,cs),
(0,100,ls),
(0,80,o),
(14,64,o),
(32,64,cs),
(50,64,o),
(64,50,o),
(64,32,cs),
(64,14,o),
(80,0,o),
(100,0,cs),
(348,0,ls),
(368,0,o),
(384,14,o),
(384,32,cs),
(384,50,o),
(368,64,o),
(348,64,cs)
);
},
{
closed = 1;
nodes = (
(448,115,o),
(434,128,o),
(416,128,cs),
(398,128,o),
(384,114,o),
(384,96,cs),
(384,78,o),
(398,64,o),
(416,64,cs),
(434,64,o),
(448,78,o),
(448,96,cs)
);
},
{
closed = 1;
nodes = (
(256,243,o),
(242,256,o),
(224,256,cs),
(206,256,o),
(192,242,o),
(192,224,cs),
(192,206,o),
(206,192,o),
(224,192,cs),
(242,192,o),
(256,206,o),
(256,224,cs)
);
},
{
closed = 1;
nodes = (
(320,307,o),
(306,320,o),
(288,320,cs),
(270,320,o),
(256,306,o),
(256,288,cs),
(256,270,o),
(270,256,o),
(288,256,cs),
(306,256,o),
(320,270,o),
(320,288,cs)
);
},
{
closed = 1;
nodes = (
(384,371,o),
(398,384,o),
(416,384,cs),
(434,384,o),
(448,398,o),
(448,416,cs),
(448,434,o),
(434,448,o),
(416,448,cs),
(398,448,o),
(384,462,o),
(384,480,cs),
(384,498,o),
(368,512,o),
(348,512,cs),
(164,512,ls),
(144,512,o),
(128,498,o),
(128,480,cs),
(128,462,o),
(144,448,o),
(164,448,cs),
(220,448,ls),
(240,448,o),
(256,434,o),
(256,416,cs),
(256,398,o),
(270,384,o),
(288,384,cs),
(306,384,o),
(320,370,o),
(320,352,cs),
(320,334,o),
(334,320,o),
(352,320,cs),
(370,320,o),
(384,334,o),
(384,352,cs)
);
}
);
width = 512;
}
);
note = e;
unicode = 101;
},
{
glyphname = f;
lastChange = "2023-08-27 17:45:42 +0000";
layers = (
{
layerId = m002;
shapes = (
{
closed = 1;
nodes = (
(192,51,o),
(206,64,o),
(224,64,cs),
(242,64,o),
(256,78,o),
(256,96,cs),
(256,114,o),
(242,128,o),
(224,128,cs),
(206,128,o),
(192,144,o),
(192,164,cs),
(192,284,ls),
(192,304,o),
(208,320,o),
(228,320,cs),
(284,320,ls),
(304,320,o),
(320,334,o),
(320,352,cs),
(320,370,o),
(304,384,o),
(284,384,cs),
(228,384,ls),
(208,384,o),
(192,400,o),
(192,420,cs),
(192,604,ls),
(192,624,o),
(178,640,o),
(160,640,cs),
(142,640,o),
(128,626,o),
(128,608,cs),
(128,590,o),
(114,576,o),
(96,576,cs),
(78,576,o),
(64,560,o),
(64,540,cs),
(64,420,ls),
(64,400,o),
(50,384,o),
(32,384,cs),
(14,384,o),
(0,370,o),
(0,352,cs),
(0,334,o),
(14,320,o),
(32,320,cs),
(50,320,o),
(64,304,o),
(64,284,cs),
(64,36,ls),
(64,16,o),
(80,0,o),
(100,0,cs),
(156,0,ls),
(176,0,o),
(192,14,o),
(192,32,cs)
);
},
{
closed = 1;
nodes = (
(448,668,ls),
(448,688,o),
(434,704,o),
(416,704,cs),
(398,704,o),
(384,690,o),
(384,672,cs),
(384,654,o),
(370,640,o),
(352,640,cs),
(334,640,o),
(320,654,o),
(320,672,cs),
(320,690,o),
(304,704,o),
(284,704,cs),
(228,704,ls),
(208,704,o),
(192,690,o),
(192,672,cs),
(192,654,o),
(206,640,o),
(224,640,cs),
(242,640,o),
(256,626,o),
(256,608,cs),
(256,590,o),
(270,576,o),
(288,576,cs),
(306,576,o),
(320,562,o),
(320,544,cs),
(320,526,o),
(336,512,o),
(356,512,cs),
(412,512,ls),
(432,512,o),
(448,528,o),
(448,548,cs)
);
}
);
width = 512;
}
);
note = f;
unicode = 102;
},
{
glyphname = g;
lastChange = "2023-08-27 17:45:45 +0000";
layers = (
{
layerId = m002;
shapes = (
{
closed = 1;
nodes = (
(192,-77,o),
(178,-64,o),
(160,-64,cs),
(142,-64,o),
(128,-50,o),
(128,-32,cs),
(128,-14,o),
(112,0,o),
(92,0,cs),
(36,0,ls),
(16,0,o),
(0,-16,o),
(0,-36,cs),
(0,-92,ls),
(0,-112,o),
(14,-128,o),
(32,-128,cs),
(50,-128,o),
(64,-142,o),
(64,-160,cs),
(64,-178,o),
(80,-192,o),
(100,-192,cs),
(284,-192,ls),
(304,-192,o),
(320,-178,o),
(320,-160,cs),
(320,-142,o),
(304,-128,o),
(284,-128,cs),
(228,-128,ls),
(208,-128,o),
(192,-114,o),
(192,-96,cs)
);
},
{
closed = 1;
nodes = (
(384,-77,o),
(398,-64,o),
(416,-64,cs),
(434,-64,o),
(448,-48,o),
(448,-28,cs),
(448,348,ls),
(448,368,o),
(462,384,o),
(480,384,cs),
(498,384,o),
(512,398,o),
(512,416,cs),
(512,434,o),
(498,448,o),
(480,448,cs),
(462,448,o),
(448,462,o),
(448,480,cs),
(448,498,o),
(432,512,o),
(412,512,cs),
(356,512,ls),
(336,512,o),
(320,498,o),
(320,480,cs),
(320,462,o),
(306,448,o),
(288,448,cs),
(270,448,o),
(256,462,o),
(256,480,cs),
(256,498,o),
(240,512,o),
(220,512,cs),
(164,512,ls),
(144,512,o),
(128,498,o),
(128,480,cs),
(128,462,o),
(114,448,o),
(96,448,cs),
(78,448,o),
(64,434,o),
(64,416,cs),
(64,398,o),
(50,384,o),
(32,384,cs),
(14,384,o),
(0,368,o),
(0,348,cs),
(0,164,ls),
(0,144,o),
(14,128,o),
(32,128,cs),
(50,128,o),
(64,114,o),
(64,96,cs),
(64,78,o),
(78,64,o),
(96,64,cs),
(114,64,o),
(128,50,o),
(128,32,cs),
(128,14,o),
(144,0,o),
(164,0,cs),
(220,0,ls),
(240,0,o),
(256,14,o),
(256,32,cs),
(256,50,o),
(242,64,o),
(224,64,cs),
(206,64,o),
(192,78,o),
(192,96,cs),
(192,114,o),
(178,128,o),
(160,128,cs),
(142,128,o),
(128,144,o),
(128,164,cs),
(128,412,ls),
(128,432,o),
(142,448,o),
(160,448,cs),
(178,448,o),
(192,434,o),
(192,416,cs),
(192,398,o),
(206,384,o),
(224,384,cs),
(242,384,o),
(256,370,o),
(256,352,cs),
(256,334,o),
(270,320,o),
(288,320,cs),
(306,320,o),
(320,304,o),
(320,284,cs),
(320,164,ls),
(320,144,o),
(306,128,o),
(288,128,cs),
(270,128,o),
(256,114,o),
(256,96,cs),
(256,78,o),
(270,64,o),
(288,64,cs),
(306,64,o),
(320,48,o),
(320,28,cs),
(320,-92,ls),
(320,-112,o),
(334,-128,o),
(352,-128,cs),
(370,-128,o),
(384,-114,o),
(384,-96,cs)
);
}
);
width = 576;
}
);
note = g;
unicode = 103;
},
{
glyphname = h;
lastChange = "2023-08-27 17:45:47 +0000";
layers = (
{
layerId = m002;
shapes = (
{
closed = 1;
nodes = (
(512,51,o),
(526,64,o),
(544,64,cs),
(562,64,o),
(576,78,o),
(576,96,cs),
(576,114,o),
(562,128,o),
(544,128,cs),
(526,128,o),
(512,144,o),
(512,164,cs),
(512,412,ls),
(512,432,o),
(498,448,o),
(480,448,cs),
(462,448,o),
(448,462,o),
(448,480,cs),
(448,498,o),
(432,512,o),
(412,512,cs),
(356,512,ls),
(336,512,o),
(320,498,o),
(320,480,cs),
(320,462,o),
(306,448,o),
(288,448,cs),
(270,448,o),
(256,434,o),
(256,416,cs),
(256,398,o),
(242,384,o),
(224,384,cs),
(206,384,o),
(192,400,o),
(192,420,cs),
(192,668,ls),
(192,688,o),
(178,704,o),
(160,704,cs),
(142,704,o),
(128,690,o),
(128,672,cs),
(128,654,o),
(114,640,o),
(96,640,cs),
(78,640,o),
(64,626,o),
(64,608,cs),
(64,590,o),
(50,576,o),
(32,576,cs),
(14,576,o),
(0,562,o),
(0,544,cs),
(0,526,o),
(14,512,o),
(32,512,cs),
(50,512,o),
(64,496,o),
(64,476,cs),
(64,36,ls),
(64,16,o),
(80,0,o),
(100,0,cs),
(156,0,ls),
(176,0,o),
(192,16,o),
(192,36,cs),
(192,284,ls),
(192,304,o),
(206,320,o),
(224,320,cs),
(242,320,o),
(256,334,o),
(256,352,cs),
(256,370,o),
(272,384,o),
(292,384,cs),
(348,384,ls),
(368,384,o),
(384,368,o),
(384,348,cs),
(384,36,ls),
(384,16,o),
(400,0,o),
(420,0,cs),
(476,0,ls),
(496,0,o),
(512,14,o),
(512,32,cs)
);
}
);
width = 640;
}
);
note = h;
unicode = 104;
},
{
glyphname = i;
lastChange = "2023-11-28 13:35:46 +0000";
layers = (
{
layerId = m002;
shapes = (
{
closed = 1;
nodes = (
(128,563,o),
(142,576,o),
(160,576,cs),
(178,576,o),
(192,592,o),
(192,612,cs),
(192,668,ls),
(192,688,o),
(178,704,o),
(160,704,cs),
(142,704,o),
(128,690,o),
(128,672,cs),
(128,654,o),
(114,640,o),
(96,640,cs),
(78,640,o),
(64,624,o),
(64,604,cs),
(64,548,ls),
(64,528,o),
(78,512,o),
(96,512,cs),
(114,512,o),
(128,526,o),
(128,544,cs)
);
},
{
ref = idotless;
}
);
width = 320;
}
);
note = i;
unicode = 105;
},
{
glyphname = idotless;
lastChange = "2023-11-28 13:35:36 +0000";
layers = (
{
anchors = (
{
name = bottom;
pos = (160,0);
},
{
name = ogonek;
pos = (288,10);
},
{
name = top;
pos = (160,512);
}
);
layerId = m002;
shapes = (
{
closed = 1;
nodes = (
(192,51,o),
(206,64,o),
(224,64,cs),
(242,64,o),
(256,78,o),
(256,96,cs),
(256,114,o),
(242,128,o),
(224,128,cs),
(206,128,o),
(192,144,o),
(192,164,cs),
(192,412,ls),
(192,432,o),
(178,448,o),
(160,448,cs),
(142,448,o),
(128,434,o),
(128,416,cs),
(128,398,o),
(114,384,o),
(96,384,cs),
(78,384,o),
(64,370,o),
(64,352,cs),
(64,334,o),
(50,320,o),
(32,320,cs),
(14,320,o),
(0,306,o),
(0,288,cs),
(0,270,o),
(14,256,o),
(32,256,cs),
(50,256,o),
(64,240,o),
(64,220,cs),
(64,36,ls),
(64,16,o),
(80,0,o),
(100,0,cs),
(156,0,ls),
(176,0,o),
(192,14,o),
(192,32,cs)
);
}
);
width = 320;
}
);
metricLeft = "=i";
metricRight = "=i";
unicode = 305;
},
{
glyphname = j;
lastChange = "2023-11-28 13:39:21 +0000";
layers = (
{
layerId = m002;
shapes = (
{
closed = 1;
nodes = (
(128,526,o),
(114,512,o),
(96,512,cs),
(78,512,o),
(64,528,o),
(64,548,cs),
(64,604,ls),
(64,624,o),
(78,640,o),
(96,640,cs),
(114,640,o),
(128,654,o),
(128,672,cs),
(128,690,o),
(142,704,o),
(160,704,cs),
(178,704,o),
(192,688,o),
(192,668,cs),
(192,612,ls),
(192,592,o),
(178,576,o),
(160,576,cs),
(142,576,o),
(128,563,o),
(128,544,cs)
);
},
{
ref = jdotless;
}
);
width = 256;
}
);
note = j;
unicode = 106;
},
{
glyphname = jdotless;
lastChange = "2023-11-28 13:39:13 +0000";
layers = (
{
anchors = (
{
name = bottom;
pos = (128,-192);
},
{
name = top;
pos = (128,512);
}
);
layerId = m002;
shapes = (
{
closed = 1;
nodes = (
(64,-141,o),
(50,-128,o),
(32,-128,cs),
(14,-128,o),
(0,-142,o),
(0,-160,cs),
(0,-178,o),
(14,-192,o),
(32,-192,cs),
(50,-192,o),
(64,-178,o),
(64,-160,cs)
);
},
{
closed = 1;
nodes = (
(128,-77,o),
(142,-64,o),
(160,-64,cs),
(178,-64,o),
(192,-48,o),
(192,-28,cs),
(192,412,ls),
(192,432,o),
(178,448,o),
(160,448,cs),
(142,448,o),
(128,434,o),
(128,416,cs),
(128,398,o),
(114,384,o),
(96,384,cs),
(78,384,o),
(64,370,o),
(64,352,cs),
(64,334,o),
(50,320,o),
(32,320,cs),
(14,320,o),
(0,306,o),
(0,288,cs),
(0,270,o),
(14,256,o),
(32,256,cs),
(50,256,o),
(64,240,o),
(64,220,cs),
(64,-92,ls),
(64,-112,o),
(78,-128,o),
(96,-128,cs),
(114,-128,o),
(128,-114,o),
(128,-96,cs)
);
}
);
width = 256;
}
);
metricLeft = "=j";
metricRight = "=j";
unicode = 567;
},
{
glyphname = k;
lastChange = "2023-08-27 17:46:01 +0000";
layers = (
{
layerId = m002;
shapes = (
{
closed = 1;
nodes = (
(512,51,o),
(526,64,o),
(544,64,cs),
(562,64,o),
(576,78,o),
(576,96,cs),
(576,114,o),
(562,128,o),
(544,128,cs),
(526,128,o),
(512,144,o),
(512,164,cs),
(512,284,ls),
(512,304,o),
(498,320,o),
(480,320,cs),
(462,320,o),
(448,334,o),
(448,352,cs),
(448,370,o),
(434,384,o),
(416,384,cs),
(398,384,o),
(384,398,o),
(384,416,cs),
(384,434,o),
(398,448,o),
(416,448,cs),
(434,448,o),
(448,464,o),
(448,484,cs),
(448,540,ls),
(448,560,o),
(432,576,o),
(412,576,cs),
(356,576,ls),
(336,576,o),
(320,560,o),
(320,540,cs),
(320,484,ls),
(320,464,o),
(306,448,o),
(288,448,cs),
(270,448,o),
(256,434,o),
(256,416,cs),
(256,398,o),
(242,384,o),
(224,384,cs),
(206,384,o),
(192,400,o),
(192,420,cs),
(192,668,ls),
(192,688,o),
(178,704,o),
(160,704,cs),
(142,704,o),
(128,690,o),
(128,672,cs),
(128,654,o),
(114,640,o),
(96,640,cs),
(78,640,o),
(64,626,o),
(64,608,cs),
(64,590,o),
(50,576,o),
(32,576,cs),
(14,576,o),
(0,562,o),
(0,544,cs),
(0,526,o),
(14,512,o),
(32,512,cs),
(50,512,o),
(64,496,o),
(64,476,cs),
(64,36,ls),
(64,16,o),
(80,0,o),
(100,0,cs),
(156,0,ls),
(176,0,o),
(192,14,o),
(192,32,cs),
(192,50,o),
(206,64,o),
(224,64,cs),
(242,64,o),
(256,78,o),
(256,96,cs),
(256,114,o),
(242,128,o),
(224,128,cs),
(206,128,o),
(192,144,o),
(192,164,cs),
(192,220,ls),
(192,240,o),
(206,256,o),
(224,256,cs),
(242,256,o),
(256,270,o),
(256,288,cs),
(256,306,o),
(270,320,o),
(288,320,cs),
(306,320,o),
(320,306,o),
(320,288,cs),
(320,270,o),
(334,256,o),
(352,256,cs),
(370,256,o),
(384,240,o),
(384,220,cs),
(384,36,ls),
(384,16,o),
(400,0,o),
(420,0,cs),
(476,0,ls),
(496,0,o),
(512,14,o),
(512,32,cs)
);
}
);
width = 640;
}
);
note = k;
unicode = 107;
},
{
glyphname = l;
lastChange = "2023-08-27 17:46:13 +0000";
layers = (
{
layerId = m002;
shapes = (
{
closed = 1;
nodes = (
(192,51,o),
(206,64,o),
(224,64,cs),
(242,64,o),
(256,78,o),
(256,96,cs),
(256,114,o),
(242,128,o),
(224,128,cs),
(206,128,o),
(192,144,o),
(192,164,cs),
(192,668,ls),
(192,688,o),
(178,704,o),
(160,704,cs),
(142,704,o),
(128,690,o),
(128,672,cs),
(128,654,o),
(114,640,o),
(96,640,cs),
(78,640,o),
(64,626,o),
(64,608,cs),
(64,590,o),
(50,576,o),
(32,576,cs),
(14,576,o),
(0,562,o),
(0,544,cs),
(0,526,o),
(14,512,o),
(32,512,cs),
(50,512,o),
(64,496,o),
(64,476,cs),
(64,36,ls),
(64,16,o),
(80,0,o),
(100,0,cs),
(156,0,ls),
(176,0,o),
(192,14,o),
(192,32,cs)
);
}
);
width = 320;
}
);
note = l;
unicode = 108;
},
{
glyphname = m;
lastChange = "2023-08-27 17:46:15 +0000";
layers = (
{
layerId = m002;
shapes = (
{
closed = 1;
nodes = (
(704,51,o),
(718,64,o),
(736,64,cs),
(754,64,o),
(768,78,o),
(768,96,cs),
(768,114,o),
(754,128,o),
(736,128,cs),
(718,128,o),
(704,144,o),
(704,164,cs),
(704,476,ls),
(704,496,o),
(688,512,o),
(668,512,cs),
(612,512,ls),
(592,512,o),
(576,498,o),
(576,480,cs),
(576,462,o),
(562,448,o),
(544,448,cs),
(526,448,o),
(512,434,o),
(512,416,cs),
(512,398,o),
(498,384,o),
(480,384,cs),
(462,384,o),
(448,400,o),
(448,420,cs),
(448,476,ls),
(448,496,o),
(432,512,o),
(412,512,cs),
(356,512,ls),
(336,512,o),
(320,498,o),
(320,480,cs),
(320,462,o),
(306,448,o),
(288,448,cs),
(270,448,o),
(256,434,o),
(256,416,cs),
(256,398,o),
(242,384,o),
(224,384,cs),
(206,384,o),
(192,400,o),
(192,420,cs),
(192,476,ls),
(192,496,o),
(178,512,o),
(160,512,cs),
(142,512,o),
(128,498,o),
(128,480,cs),
(128,462,o),
(114,448,o),
(96,448,cs),
(78,448,o),
(64,434,o),
(64,416,cs),
(64,398,o),
(50,384,o),
(32,384,cs),
(14,384,o),
(0,370,o),
(0,352,cs),
(0,334,o),
(14,320,o),
(32,320,cs),
(50,320,o),
(64,304,o),
(64,284,cs),
(64,36,ls),
(64,16,o),
(80,0,o),
(100,0,cs),
(156,0,ls),
(176,0,o),
(192,16,o),
(192,36,cs),
(192,284,ls),
(192,304,o),
(206,320,o),
(224,320,cs),
(242,320,o),
(256,334,o),
(256,352,cs),
(256,370,o),
(270,384,o),
(288,384,cs),
(306,384,o),
(320,368,o),
(320,348,cs),
(320,36,ls),
(320,16,o),
(336,0,o),
(356,0,cs),
(412,0,ls),
(432,0,o),
(448,16,o),
(448,36,cs),
(448,284,ls),
(448,304,o),
(462,320,o),
(480,320,cs),
(498,320,o),
(512,334,o),
(512,352,cs),
(512,370,o),
(526,384,o),
(544,384,cs),
(562,384,o),
(576,368,o),
(576,348,cs),
(576,36,ls),
(576,16,o),
(592,0,o),
(612,0,cs),
(668,0,ls),
(688,0,o),
(704,14,o),
(704,32,cs)
);
}
);
width = 832;
}
);
note = m;
unicode = 109;
},
{
glyphname = n;
lastChange = "2023-11-28 13:39:37 +0000";
layers = (
{
anchors = (
{
name = bottom;
pos = (320,0);
},
{
name = top;
pos = (320,512);
}
);
layerId = m002;
shapes = (
{
closed = 1;
nodes = (
(512,51,o),
(526,64,o),
(544,64,cs),
(562,64,o),
(576,78,o),
(576,96,cs),
(576,114,o),
(562,128,o),
(544,128,cs),
(526,128,o),
(512,144,o),
(512,164,cs),
(512,476,ls),
(512,496,o),
(496,512,o),
(476,512,cs),
(356,512,ls),
(336,512,o),
(320,498,o),
(320,480,cs),
(320,462,o),
(306,448,o),
(288,448,cs),
(270,448,o),
(256,434,o),
(256,416,cs),
(256,398,o),
(242,384,o),
(224,384,cs),
(206,384,o),
(192,400,o),
(192,420,cs),
(192,476,ls),
(192,496,o),
(178,512,o),
(160,512,cs),
(142,512,o),
(128,498,o),
(128,480,cs),
(128,462,o),
(114,448,o),
(96,448,cs),
(78,448,o),
(64,434,o),
(64,416,cs),
(64,398,o),
(50,384,o),
(32,384,cs),
(14,384,o),
(0,370,o),
(0,352,cs),
(0,334,o),
(14,320,o),
(32,320,cs),
(50,320,o),
(64,304,o),
(64,284,cs),
(64,36,ls),
(64,16,o),
(80,0,o),
(100,0,cs),
(156,0,ls),
(176,0,o),
(192,14,o),
(192,32,cs),
(192,50,o),
(206,64,o),
(224,64,cs),
(242,64,o),
(256,78,o),
(256,96,cs),
(256,114,o),
(242,128,o),
(224,128,cs),
(206,128,o),
(192,144,o),
(192,164,cs),
(192,284,ls),
(192,304,o),
(206,320,o),
(224,320,cs),
(242,320,o),
(256,334,o),
(256,352,cs),
(256,370,o),
(270,384,o),
(288,384,cs),
(306,384,o),
(320,398,o),
(320,416,cs),
(320,434,o),
(334,448,o),
(352,448,cs),
(370,448,o),
(384,432,o),
(384,412,cs),
(384,36,ls),
(384,16,o),
(400,0,o),
(420,0,cs),
(476,0,ls),
(496,0,o),
(512,14,o),
(512,32,cs)
);
}
);
width = 640;
}
);
note = n;
unicode = 110;
},
{
glyphname = o;
lastChange = "2023-11-28 13:40:09 +0000";
layers = (
{
anchors = (
{
name = bottom;
pos = (256,0);
},
{
name = center;
pos = (256,256);
},
{
name = ogonek;
pos = (461,10);
},
{
name = top;
pos = (256,512);
},
{
name = topright;
pos = (492,512);
}
);
layerId = m002;
shapes = (
{
closed = 1;
nodes = (
(320,51,o),
(306,64,o),
(288,64,cs),
(270,64,o),
(256,78,o),
(256,96,cs),
(256,114,o),
(242,128,o),
(224,128,cs),
(206,128,o),
(192,142,o),
(192,160,cs),
(192,178,o),
(178,192,o),
(160,192,cs),
(142,192,o),
(128,208,o),
(128,228,cs),
(128,412,ls),
(128,432,o),
(114,448,o),
(96,448,cs),
(78,448,o),
(64,434,o),
(64,416,cs),
(64,398,o),
(50,384,o),
(32,384,cs),
(14,384,o),
(0,368,o),
(0,348,cs),
(0,164,ls),
(0,144,o),
(14,128,o),
(32,128,cs),
(50,128,o),
(64,114,o),
(64,96,cs),
(64,78,o),
(78,64,o),
(96,64,cs),
(114,64,o),
(128,50,o),
(128,32,cs),
(128,14,o),
(144,0,o),
(164,0,cs),
(284,0,ls),
(304,0,o),
(320,14,o),
(320,32,cs)
);
},
{
closed = 1;
nodes = (
(384,115,o),
(398,128,o),
(416,128,cs),
(434,128,o),
(448,144,o),
(448,164,cs),
(448,348,ls),
(448,368,o),
(434,384,o),
(416,384,cs),
(398,384,o),
(384,398,o),
(384,416,cs),
(384,434,o),
(370,448,o),
(352,448,cs),
(334,448,o),
(320,462,o),
(320,480,cs),
(320,498,o),
(304,512,o),
(284,512,cs),
(164,512,ls),
(144,512,o),
(128,498,o),
(128,480,cs),
(128,462,o),
(142,448,o),
(160,448,cs),
(178,448,o),
(192,434,o),
(192,416,cs),
(192,398,o),
(206,384,o),
(224,384,cs),
(242,384,o),
(256,370,o),
(256,352,cs),
(256,334,o),
(270,320,o),
(288,320,cs),
(306,320,o),
(320,304,o),
(320,284,cs),
(320,100,ls),
(320,80,o),
(334,64,o),
(352,64,cs),
(370,64,o),
(384,78,o),
(384,96,cs)
);
}
);
width = 512;
},
{
associatedMasterId = m002;
layerId = "076F6DC7-7D26-4F74-9722-72664391B729";
name = "30 août 23 à 19:11";
shapes = (
{
closed = 1;
nodes = (
(320,51,o),
(306,64,o),
(288,64,cs),
(270,64,o),
(256,78,o),
(256,96,cs),
(256,114,o),
(242,128,o),
(224,128,cs),
(206,128,o),
(192,142,o),
(192,160,cs),
(192,178,o),
(178,192,o),
(160,192,cs),
(142,192,o),
(128,208,o),
(128,228,cs),
(128,412,ls),
(128,432,o),
(114,448,o),
(96,448,cs),
(78,448,o),
(64,434,o),
(64,416,cs),
(64,398,o),
(50,384,o),
(32,384,cs),
(14,384,o),
(0,368,o),
(0,348,cs),
(0,164,ls),
(0,144,o),
(14,128,o),
(32,128,cs),
(50,128,o),
(64,114,o),
(64,96,cs),
(64,78,o),
(78,64,o),
(96,64,cs),
(114,64,o),
(128,50,o),
(128,32,cs),
(128,14,o),
(144,0,o),
(164,0,cs),
(284,0,ls),
(304,0,o),
(320,14,o),
(320,32,cs)
);
},
{
closed = 1;
nodes = (
(384,115,o),
(398,128,o),
(416,128,cs),
(434,128,o),
(448,144,o),
(448,164,cs),
(448,348,ls),
(448,368,o),
(434,384,o),
(416,384,cs),
(398,384,o),
(384,398,o),
(384,416,cs),
(384,434,o),
(370,448,o),
(352,448,cs),
(334,448,o),
(320,462,o),
(320,480,cs),
(320,498,o),
(304,512,o),
(284,512,cs),
(164,512,ls),
(144,512,o),
(128,498,o),
(128,480,cs),
(128,462,o),
(142,448,o),
(160,448,cs),
(178,448,o),
(192,434,o),
(192,416,cs),
(192,398,o),
(206,384,o),
(224,384,cs),
(242,384,o),
(256,370,o),
(256,352,cs),
(256,334,o),
(270,320,o),
(288,320,cs),
(306,320,o),
(320,304,o),
(320,284,cs),
(320,100,ls),
(320,80,o),
(334,64,o),
(352,64,cs),
(370,64,o),
(384,78,o),
(384,96,cs)
);
}
);
width = 512;
}
);
note = o;
unicode = 111;
},
{
glyphname = oe;
lastChange = "2023-08-28 11:07:20 +0000";
layers = (
{
layerId = m002;
shapes = (
{
closed = 1;
nodes = (
(320,51,o),
(306,64,o),
(288,64,cs),
(270,64,o),
(256,78,o),
(256,96,cs),
(256,114,o),
(242,128,o),
(224,128,cs),
(206,128,o),
(192,142,o),
(192,160,cs),
(192,178,o),
(178,192,o),
(160,192,cs),
(142,192,o),
(128,208,o),
(128,228,cs),
(128,412,ls),
(128,432,o),
(114,448,o),
(96,448,cs),
(78,448,o),
(64,434,o),
(64,416,cs),
(64,398,o),
(50,384,o),
(32,384,cs),
(14,384,o),
(0,368,o),
(0,348,cs),
(0,164,ls),
(0,144,o),
(14,128,o),
(32,128,cs),
(50,128,o),
(64,114,o),
(64,96,cs),
(64,78,o),
(78,64,o),
(96,64,cs),
(114,64,o),
(128,50,o),
(128,32,cs),
(128,14,o),
(144,0,o),
(164,0,cs),
(284,0,ls),
(304,0,o),
(320,14,o),
(320,32,cs)
);
},
{
closed = 1;
nodes = (
(128,462,o),
(142,448,o),
(160,448,cs),
(178,448,o),
(192,434,o),
(192,416,cs),
(192,398,o),
(206,384,o),
(224,384,cs),
(242,384,o),
(256,370,o),
(256,352,cs),
(256,334,o),
(270,320,o),
(288,320,cs),
(306,320,o),
(320,304,o),
(320,284,cs),
(320,100,ls),
(320,80,o),
(334,64,o),
(352,64,cs),
(370,64,o),
(384,50,o),
(384,32,cs),
(384,14,o),
(400,0,o),
(420,0,cs),
(668,0,ls),
(688,0,o),
(704,14,o),
(704,32,cs),
(704,50,o),
(688,64,o),
(668,64,cs),
(548,64,ls),
(528,64,o),
(512,80,o),
(512,100,cs),
(512,156,ls),
(512,176,o),
(498,192,o),
(480,192,cs),
(462,192,o),
(448,208,o),
(448,228,cs),
(448,348,ls),
(448,368,o),
(434,384,o),
(416,384,cs),
(398,384,o),
(384,398,o),
(384,416,cs),
(384,434,o),
(370,448,o),
(352,448,cs),
(334,448,o),
(320,462,o),
(320,480,cs),
(320,498,o),
(304,512,o),
(284,512,cs),
(164,512,ls),
(144,512,o),
(128,498,o),
(128,480,cs)
);
},
{
closed = 1;
nodes = (
(448,462,o),
(464,448,o),
(484,448,cs),
(540,448,ls),
(560,448,o),
(576,434,o),
(576,416,cs),
(576,398,o),
(590,384,o),
(608,384,cs),
(626,384,o),
(640,370,o),
(640,352,cs),
(640,334,o),
(654,320,o),
(672,320,cs),
(690,320,o),
(704,334,o),
(704,352,cs),
(704,371,o),
(718,384,o),
(736,384,cs),
(754,384,o),
(768,398,o),
(768,416,cs),
(768,434,o),
(754,448,o),
(736,448,cs),
(718,448,o),
(704,462,o),
(704,480,cs),
(704,498,o),
(688,512,o),
(668,512,cs),
(484,512,ls),
(464,512,o),
(448,498,o),
(448,480,cs)
);
},
{
closed = 1;
nodes = (
(512,206,o),
(526,192,o),
(544,192,cs),
(562,192,o),
(576,206,o),
(576,224,cs),
(576,243,o),
(562,256,o),
(544,256,cs),
(526,256,o),
(512,242,o),
(512,224,cs)
);
},
{
closed = 1;
nodes = (
(576,270,o),
(590,256,o),
(608,256,cs),
(626,256,o),
(640,270,o),
(640,288,cs),
(640,307,o),
(626,320,o),
(608,320,cs),
(590,320,o),
(576,306,o),
(576,288,cs)
);
},
{
closed = 1;
nodes = (
(704,78,o),
(718,64,o),
(736,64,cs),
(754,64,o),
(768,78,o),
(768,96,cs),
(768,115,o),
(754,128,o),
(736,128,cs),
(718,128,o),
(704,114,o),
(704,96,cs)
);
}
);
width = 832;
}
);
unicode = 339;
},
{
glyphname = p;
lastChange = "2023-08-27 17:47:00 +0000";
layers = (
{
layerId = m002;
shapes = (
{
closed = 1;
nodes = (
(192,-141,o),
(206,-128,o),
(224,-128,cs),
(242,-128,o),
(256,-114,o),
(256,-96,cs),
(256,-78,o),
(242,-64,o),
(224,-64,cs),
(206,-64,o),
(192,-48,o),
(192,-28,cs),
(192,28,ls),
(192,48,o),
(206,64,o),
(224,64,cs),
(242,64,o),
(256,50,o),
(256,32,cs),
(256,14,o),
(272,0,o),
(292,0,cs),
(348,0,ls),
(368,0,o),
(384,14,o),
(384,32,cs),
(384,50,o),
(370,64,o),
(352,64,cs),
(334,64,o),
(320,78,o),
(320,96,cs),
(320,114,o),
(306,128,o),
(288,128,cs),
(270,128,o),
(256,142,o),
(256,160,cs),
(256,178,o),
(242,192,o),
(224,192,cs),
(206,192,o),
(192,208,o),
(192,228,cs),
(192,412,ls),
(192,432,o),
(178,448,o),
(160,448,cs),
(142,448,o),
(128,434,o),
(128,416,cs),
(128,398,o),
(114,384,o),
(96,384,cs),
(78,384,o),
(64,370,o),
(64,352,cs),
(64,334,o),
(50,320,o),
(32,320,cs),
(14,320,o),
(0,306,o),
(0,288,cs),
(0,270,o),
(14,256,o),
(32,256,cs),
(50,256,o),
(64,240,o),
(64,220,cs),
(64,-156,ls),
(64,-176,o),
(80,-192,o),
(100,-192,cs),
(156,-192,ls),
(176,-192,o),
(192,-178,o),
(192,-160,cs)
);
},
{
closed = 1;
nodes = (
(448,115,o),
(462,128,o),
(480,128,cs),
(498,128,o),
(512,144,o),
(512,164,cs),
(512,348,ls),
(512,368,o),
(498,384,o),
(480,384,cs),
(462,384,o),
(448,398,o),
(448,416,cs),
(448,434,o),
(434,448,o),
(416,448,cs),
(398,448,o),
(384,462,o),
(384,480,cs),
(384,498,o),
(368,512,o),
(348,512,cs),
(228,512,ls),
(208,512,o),
(192,498,o),
(192,480,cs),
(192,462,o),
(206,448,o),
(224,448,cs),
(242,448,o),
(256,434,o),
(256,416,cs),
(256,398,o),
(270,384,o),
(288,384,cs),
(306,384,o),
(320,370,o),
(320,352,cs),
(320,334,o),
(334,320,o),
(352,320,cs),
(370,320,o),
(384,304,o),
(384,284,cs),
(384,100,ls),
(384,80,o),
(398,64,o),
(416,64,cs),
(434,64,o),
(448,78,o),
(448,96,cs)
);
}
);
width = 576;
}
);
note = p;
unicode = 112;
},
{
glyphname = q;
lastChange = "2023-08-27 17:47:02 +0000";
layers = (
{
layerId = m002;
shapes = (
{
closed = 1;
nodes = (
(448,-141,o),
(462,-128,o),
(480,-128,cs),
(498,-128,o),
(512,-114,o),
(512,-96,cs),
(512,-78,o),
(498,-64,o),
(480,-64,cs),
(462,-64,o),
(448,-48,o),
(448,-28,cs),
(448,476,ls),
(448,496,o),
(432,512,o),
(412,512,cs),
(356,512,ls),
(336,512,o),
(320,498,o),
(320,480,cs),
(320,462,o),
(306,448,o),
(288,448,cs),
(270,448,o),
(256,462,o),
(256,480,cs),
(256,498,o),
(240,512,o),
(220,512,cs),
(164,512,ls),
(144,512,o),
(128,498,o),
(128,480,cs),
(128,462,o),
(114,448,o),
(96,448,cs),
(78,448,o),
(64,434,o),
(64,416,cs),
(64,398,o),
(50,384,o),
(32,384,cs),
(14,384,o),
(0,368,o),
(0,348,cs),
(0,164,ls),
(0,144,o),
(14,128,o),
(32,128,cs),
(50,128,o),
(64,114,o),
(64,96,cs),
(64,78,o),
(78,64,o),
(96,64,cs),
(114,64,o),
(128,50,o),
(128,32,cs),
(128,14,o),
(144,0,o),
(164,0,cs),
(220,0,ls),
(240,0,o),
(256,14,o),
(256,32,cs),
(256,50,o),
(270,64,o),
(288,64,cs),
(306,64,o),
(320,48,o),
(320,28,cs),
(320,-156,ls),
(320,-176,o),
(336,-192,o),
(356,-192,cs),
(412,-192,ls),
(432,-192,o),
(448,-178,o),
(448,-160,cs)
);
},
{
closed = 1;
nodes = (
(192,179,o),
(178,192,o),
(160,192,cs),
(142,192,o),
(128,208,o),
(128,228,cs),
(128,412,ls),
(128,432,o),
(142,448,o),
(160,448,cs),
(178,448,o),
(192,434,o),
(192,416,cs),
(192,398,o),
(206,384,o),
(224,384,cs),
(242,384,o),
(256,370,o),
(256,352,cs),
(256,334,o),
(270,320,o),
(288,320,cs),
(306,320,o),
(320,304,o),
(320,284,cs),
(320,164,ls),
(320,144,o),
(304,128,o),
(284,128,cs),
(228,128,ls),
(208,128,o),
(192,142,o),
(192,160,cs)
);
}
);
width = 576;
}
);
note = q;
unicode = 113;
},
{
glyphname = r;
lastChange = "2023-08-27 17:47:22 +0000";
layers = (
{
layerId = m002;
shapes = (
{
closed = 1;
nodes = (
(192,51,o),
(206,64,o),
(224,64,cs),
(242,64,o),
(256,78,o),
(256,96,cs),
(256,114,o),
(242,128,o),
(224,128,cs),
(206,128,o),
(192,144,o),
(192,164,cs),
(192,284,ls),
(192,304,o),
(206,320,o),
(224,320,cs),
(242,320,o),
(256,334,o),
(256,352,cs),
(256,370,o),
(242,384,o),
(224,384,cs),
(206,384,o),
(192,400,o),
(192,420,cs),
(192,476,ls),
(192,496,o),
(178,512,o),
(160,512,cs),
(142,512,o),
(128,498,o),
(128,480,cs),
(128,462,o),
(114,448,o),
(96,448,cs),
(78,448,o),
(64,434,o),
(64,416,cs),
(64,398,o),
(50,384,o),
(32,384,cs),
(14,384,o),
(0,370,o),
(0,352,cs),
(0,334,o),
(14,320,o),
(32,320,cs),
(50,320,o),
(64,304,o),
(64,284,cs),
(64,36,ls),
(64,16,o),
(80,0,o),
(100,0,cs),
(156,0,ls),
(176,0,o),
(192,14,o),
(192,32,cs)
);
},
{
closed = 1;
nodes = (
(448,412,ls),
(448,432,o),
(434,448,o),
(416,448,cs),
(398,448,o),
(384,462,o),
(384,480,cs),
(384,498,o),
(370,512,o),
(352,512,cs),
(334,512,o),
(320,498,o),
(320,480,cs),
(320,462,o),
(306,448,o),
(288,448,cs),
(270,448,o),
(256,434,o),
(256,416,cs),
(256,398,o),
(270,384,o),
(288,384,cs),
(306,384,o),
(320,370,o),
(320,352,cs),
(320,334,o),
(336,320,o),
(356,320,cs),
(412,320,ls),
(432,320,o),
(448,336,o),
(448,356,cs)
);
}
);
width = 512;
}
);
note = r;
unicode = 114;
},
{
glyphname = s;
lastChange = "2023-08-27 17:47:29 +0000";
layers = (
{
layerId = m002;
shapes = (
{
closed = 1;
nodes = (
(320,51,o),
(334,64,o),
(352,64,cs),
(370,64,o),
(384,80,o),
(384,100,cs),
(384,156,ls),
(384,176,o),
(370,192,o),
(352,192,cs),
(334,192,o),
(320,206,o),
(320,224,cs),
(320,242,o),
(306,256,o),
(288,256,cs),
(270,256,o),
(256,270,o),
(256,288,cs),
(256,306,o),
(242,320,o),
(224,320,cs),
(206,320,o),
(192,334,o),
(192,352,cs),
(192,370,o),
(178,384,o),
(160,384,cs),
(142,384,o),
(128,398,o),
(128,416,cs),
(128,434,o),
(144,448,o),
(164,448,cs),
(220,448,ls),
(240,448,o),
(256,434,o),
(256,416,cs),
(256,398,o),
(272,384,o),
(292,384,cs),
(348,384,ls),
(368,384,o),
(384,398,o),
(384,416,cs),
(384,434,o),
(370,448,o),
(352,448,cs),
(334,448,o),
(320,462,o),
(320,480,cs),
(320,498,o),
(304,512,o),
(284,512,cs),
(100,512,ls),
(80,512,o),
(64,498,o),
(64,480,cs),
(64,462,o),
(50,448,o),
(32,448,cs),
(14,448,o),
(0,432,o),
(0,412,cs),
(0,356,ls),
(0,336,o),
(14,320,o),
(32,320,cs),
(50,320,o),
(64,306,o),
(64,288,cs),
(64,270,o),
(78,256,o),
(96,256,cs),
(114,256,o),
(128,242,o),
(128,224,cs),
(128,206,o),
(142,192,o),
(160,192,cs),
(178,192,o),
(192,178,o),
(192,160,cs),
(192,142,o),
(206,128,o),
(224,128,cs),
(242,128,o),
(256,114,o),
(256,96,cs),
(256,78,o),
(240,64,o),
(220,64,cs),
(164,64,ls),
(144,64,o),
(128,78,o),
(128,96,cs),
(128,114,o),
(114,128,o),
(96,128,cs),
(78,128,o),
(64,142,o),
(64,160,cs),
(64,178,o),
(50,192,o),
(32,192,cs),
(14,192,o),
(0,176,o),
(0,156,cs),
(0,100,ls),
(0,80,o),
(14,64,o),
(32,64,cs),
(50,64,o),
(64,50,o),
(64,32,cs),
(64,14,o),
(80,0,o),
(100,0,cs),
(284,0,ls),
(304,0,o),
(320,14,o),
(320,32,cs)
);
}
);
width = 448;
}
);
note = s;
unicode = 115;
},
{
glyphname = t;
lastChange = "2023-08-27 17:47:31 +0000";
layers = (
{
layerId = m002;
shapes = (
{
closed = 1;
nodes = (
(192,51,o),
(206,64,o),
(224,64,cs),
(242,64,o),
(256,78,o),
(256,96,cs),
(256,114,o),
(242,128,o),
(224,128,cs),
(206,128,o),
(192,144,o),
(192,164,cs),
(192,348,ls),
(192,368,o),
(208,384,o),
(228,384,cs),
(284,384,ls),
(304,384,o),
(320,398,o),
(320,416,cs),
(320,434,o),
(304,448,o),
(284,448,cs),
(228,448,ls),
(208,448,o),
(192,464,o),
(192,484,cs),
(192,668,ls),
(192,688,o),
(178,704,o),
(160,704,cs),
(142,704,o),
(128,690,o),
(128,672,cs),
(128,654,o),
(114,640,o),
(96,640,cs),
(78,640,o),
(64,626,o),
(64,608,cs),
(64,590,o),
(50,576,o),
(32,576,cs),
(14,576,o),
(0,562,o),
(0,544,cs),
(0,526,o),
(14,512,o),
(32,512,cs),
(50,512,o),
(64,498,o),
(64,480,cs),
(64,462,o),
(50,448,o),
(32,448,cs),
(14,448,o),
(0,434,o),
(0,416,cs),
(0,398,o),
(14,384,o),
(32,384,cs),
(50,384,o),
(64,368,o),
(64,348,cs),
(64,36,ls),
(64,16,o),
(80,0,o),
(100,0,cs),
(156,0,ls),
(176,0,o),
(192,14,o),
(192,32,cs)
);
},
{
closed = 1;
nodes = (
(320,179,o),
(306,192,o),
(288,192,cs),
(270,192,o),
(256,178,o),
(256,160,cs),
(256,142,o),
(270,128,o),
(288,128,cs),
(306,128,o),
(320,142,o),
(320,160,cs)
);
}
);
width = 384;
}
);
note = t;
unicode = 116;
},
{
glyphname = u;
lastChange = "2023-11-28 13:41:21 +0000";
layers = (
{
anchors = (
{
name = bottom;
pos = (320,0);
},
{
name = ogonek;
pos = (576,10);
},
{
name = top;
pos = (320,512);
},
{
name = topright;
pos = (620,512);
}
);
layerId = m002;
shapes = (
{
closed = 1;
nodes = (
(512,51,o),
(526,64,o),
(544,64,cs),
(562,64,o),
(576,78,o),
(576,96,cs),
(576,114,o),
(562,128,o),
(544,128,cs),
(526,128,o),
(512,144,o),
(512,164,cs),
(512,476,ls),
(512,496,o),
(498,512,o),
(480,512,cs),
(462,512,o),
(448,498,o),
(448,480,cs),
(448,462,o),
(434,448,o),
(416,448,cs),
(398,448,o),
(384,432,o),
(384,412,cs),
(384,228,ls),
(384,208,o),
(370,192,o),
(352,192,cs),
(334,192,o),
(320,178,o),
(320,160,cs),
(320,142,o),
(304,128,o),
(284,128,cs),
(228,128,ls),
(208,128,o),
(192,144,o),
(192,164,cs),
(192,476,ls),
(192,496,o),
(178,512,o),
(160,512,cs),
(142,512,o),
(128,498,o),
(128,480,cs),
(128,462,o),
(114,448,o),
(96,448,cs),
(78,448,o),
(64,434,o),
(64,416,cs),
(64,398,o),
(50,384,o),
(32,384,cs),
(14,384,o),
(0,370,o),
(0,352,cs),
(0,334,o),
(14,320,o),
(32,320,cs),
(50,320,o),
(64,304,o),
(64,284,cs),
(64,100,ls),
(64,80,o),
(78,64,o),
(96,64,cs),
(114,64,o),
(128,50,o),
(128,32,cs),
(128,14,o),
(144,0,o),
(164,0,cs),
(220,0,ls),
(240,0,o),
(256,14,o),
(256,32,cs),
(256,50,o),
(270,64,o),
(288,64,cs),
(306,64,o),
(320,78,o),
(320,96,cs),
(320,114,o),
(334,128,o),
(352,128,cs),
(370,128,o),
(384,112,o),
(384,92,cs),
(384,36,ls),
(384,16,o),
(400,0,o),
(420,0,cs),
(476,0,ls),
(496,0,o),
(512,14,o),
(512,32,cs)
);
}
);
width = 640;
}
);
note = u;
unicode = 117;
},
{
glyphname = v;
lastChange = "2023-08-27 17:47:40 +0000";
layers = (
{
layerId = m002;
shapes = (
{
closed = 1;
nodes = (
(320,51,o),
(334,64,o),
(352,64,cs),
(370,64,o),
(384,78,o),
(384,96,cs),
(384,114,o),
(368,128,o),
(348,128,cs),
(292,128,ls),
(272,128,o),
(256,142,o),
(256,160,cs),
(256,178,o),
(242,192,o),
(224,192,cs),
(206,192,o),
(192,208,o),
(192,228,cs),
(192,476,ls),
(192,496,o),
(178,512,o),
(160,512,cs),
(142,512,o),
(128,498,o),
(128,480,cs),
(128,462,o),
(114,448,o),
(96,448,cs),
(78,448,o),
(64,434,o),
(64,416,cs),
(64,398,o),
(50,384,o),
(32,384,cs),
(14,384,o),
(0,370,o),
(0,352,cs),
(0,334,o),
(14,320,o),
(32,320,cs),
(50,320,o),
(64,304,o),
(64,284,cs),
(64,164,ls),
(64,144,o),
(78,128,o),
(96,128,cs),
(114,128,o),
(128,114,o),
(128,96,cs),
(128,78,o),
(142,64,o),
(160,64,cs),
(178,64,o),
(192,50,o),
(192,32,cs),
(192,14,o),
(208,0,o),
(228,0,cs),
(284,0,ls),
(304,0,o),
(320,14,o),
(320,32,cs)
);
},
{
closed = 1;
nodes = (
(448,179,o),
(462,192,o),
(480,192,cs),
(498,192,o),
(512,208,o),
(512,228,cs),
(512,476,ls),
(512,496,o),
(498,512,o),
(480,512,cs),
(462,512,o),
(448,498,o),
(448,480,cs),
(448,462,o),
(434,448,o),
(416,448,cs),
(398,448,o),
(384,432,o),
(384,412,cs),
(384,164,ls),
(384,144,o),
(398,128,o),
(416,128,cs),
(434,128,o),
(448,142,o),
(448,160,cs)
);
}
);
width = 576;
}
);
note = v;
unicode = 118;
},
{
glyphname = w;
lastChange = "2023-11-28 13:41:49 +0000";
layers = (
{
anchors = (
{
name = bottom;
pos = (384,0);
},
{
name = top;
pos = (384,512);
}
);
layerId = m002;
shapes = (
{
closed = 1;
nodes = (
(576,51,o),
(562,64,o),
(544,64,cs),
(526,64,o),
(512,78,o),
(512,96,cs),
(512,114,o),
(498,128,o),
(480,128,cs),
(462,128,o),
(448,144,o),
(448,164,cs),
(448,348,ls),
(448,368,o),
(434,384,o),
(416,384,cs),
(398,384,o),
(384,370,o),
(384,352,cs),
(384,334,o),
(370,320,o),
(352,320,cs),
(334,320,o),
(320,304,o),
(320,284,cs),
(320,164,ls),
(320,144,o),
(306,128,o),
(288,128,cs),
(270,128,o),
(256,142,o),
(256,160,cs),
(256,178,o),
(242,192,o),
(224,192,cs),
(206,192,o),
(192,208,o),
(192,228,cs),
(192,476,ls),
(192,496,o),
(178,512,o),
(160,512,cs),
(142,512,o),
(128,498,o),
(128,480,cs),
(128,462,o),
(114,448,o),
(96,448,cs),
(78,448,o),
(64,434,o),
(64,416,cs),
(64,398,o),
(50,384,o),
(32,384,cs),
(14,384,o),
(0,370,o),
(0,352,cs),
(0,334,o),
(14,320,o),
(32,320,cs),
(50,320,o),
(64,304,o),
(64,284,cs),
(64,164,ls),
(64,144,o),
(78,128,o),
(96,128,cs),
(114,128,o),
(128,114,o),
(128,96,cs),
(128,78,o),
(142,64,o),
(160,64,cs),
(178,64,o),
(192,50,o),
(192,32,cs),
(192,14,o),
(208,0,o),
(228,0,cs),
(284,0,ls),
(304,0,o),
(320,14,o),
(320,32,cs),
(320,50,o),
(336,64,o),
(356,64,cs),
(412,64,ls),
(432,64,o),
(448,50,o),
(448,32,cs),
(448,14,o),
(464,0,o),
(484,0,cs),
(540,0,ls),
(560,0,o),
(576,14,o),
(576,32,cs)
);
},
{
closed = 1;
nodes = (
(640,115,o),
(654,128,o),
(672,128,cs),
(690,128,o),
(704,144,o),
(704,164,cs),
(704,476,ls),
(704,496,o),
(690,512,o),
(672,512,cs),
(654,512,o),
(640,498,o),
(640,480,cs),
(640,462,o),
(626,448,o),
(608,448,cs),
(590,448,o),
(576,432,o),
(576,412,cs),
(576,100,ls),
(576,80,o),
(590,64,o),
(608,64,cs),
(626,64,o),
(640,78,o),
(640,96,cs)
);
}
);
width = 768;
}
);
note = w;
unicode = 119;
},
{
glyphname = x;
lastChange = "2023-08-27 17:47:45 +0000";
layers = (
{
layerId = m002;
shapes = (
{
closed = 1;
nodes = (
(576,51,o),
(590,64,o),
(608,64,cs),
(626,64,o),
(640,78,o),
(640,96,cs),
(640,114,o),
(624,128,o),
(604,128,cs),
(548,128,ls),
(528,128,o),
(512,142,o),
(512,160,cs),
(512,178,o),
(498,192,o),
(480,192,cs),
(462,192,o),
(448,206,o),
(448,224,cs),
(448,242,o),
(434,256,o),
(416,256,cs),
(398,256,o),
(384,272,o),
(384,292,cs),
(384,348,ls),
(384,368,o),
(368,384,o),
(348,384,cs),
(292,384,ls),
(272,384,o),
(256,398,o),
(256,416,cs),
(256,434,o),
(242,448,o),
(224,448,cs),
(206,448,o),
(192,462,o),
(192,480,cs),
(192,498,o),
(176,512,o),
(156,512,cs),
(100,512,ls),
(80,512,o),
(64,498,o),
(64,480,cs),
(64,462,o),
(50,448,o),
(32,448,cs),
(14,448,o),
(0,434,o),
(0,416,cs),
(0,398,o),
(16,384,o),
(36,384,cs),
(92,384,ls),
(112,384,o),
(128,370,o),
(128,352,cs),
(128,334,o),
(142,320,o),
(160,320,cs),
(178,320,o),
(192,306,o),
(192,288,cs),
(192,270,o),
(206,256,o),
(224,256,cs),
(242,256,o),
(256,240,o),
(256,220,cs),
(256,164,ls),
(256,144,o),
(240,128,o),
(220,128,cs),
(164,128,ls),
(144,128,o),
(128,142,o),
(128,160,cs),
(128,178,o),
(112,192,o),
(92,192,cs),
(36,192,ls),
(16,192,o),
(0,176,o),
(0,156,cs),
(0,100,ls),
(0,80,o),
(14,64,o),
(32,64,cs),
(50,64,o),
(64,50,o),
(64,32,cs),
(64,14,o),
(80,0,o),
(100,0,cs),
(156,0,ls),
(176,0,o),
(192,14,o),
(192,32,cs),
(192,50,o),
(206,64,o),
(224,64,cs),
(242,64,o),
(256,78,o),
(256,96,cs),
(256,114,o),
(272,128,o),
(292,128,cs),
(348,128,ls),
(368,128,o),
(384,114,o),
(384,96,cs),
(384,78,o),
(398,64,o),
(416,64,cs),
(434,64,o),
(448,50,o),
(448,32,cs),
(448,14,o),
(464,0,o),
(484,0,cs),
(540,0,ls),
(560,0,o),
(576,14,o),
(576,32,cs)
);
},
{
closed = 1;
nodes = (
(576,412,ls),
(576,432,o),
(562,448,o),
(544,448,cs),
(526,448,o),
(512,462,o),
(512,480,cs),
(512,498,o),
(498,512,o),
(480,512,cs),
(462,512,o),
(448,498,o),
(448,480,cs),
(448,462,o),
(434,448,o),
(416,448,cs),
(398,448,o),
(384,434,o),
(384,416,cs),
(384,398,o),
(398,384,o),
(416,384,cs),
(434,384,o),
(448,370,o),
(448,352,cs),
(448,334,o),
(464,320,o),
(484,320,cs),
(540,320,ls),
(560,320,o),
(576,336,o),
(576,356,cs)
);
}
);
width = 704;
}
);
note = x;
unicode = 120;
},
{
glyphname = y;
lastChange = "2023-11-28 13:43:54 +0000";
layers = (
{
anchors = (
{
name = bottom;
pos = (256,0);
},
{
name = top;
pos = (256,512);
}
);
layerId = m002;
shapes = (
{
closed = 1;
nodes = (
(192,51,o),
(206,64,o),
(224,64,cs),
(242,64,o),
(256,78,o),
(256,96,cs),
(256,114,o),
(242,128,o),
(224,128,cs),
(206,128,o),
(192,144,o),
(192,164,cs),
(192,476,ls),
(192,496,o),
(178,512,o),
(160,512,cs),
(142,512,o),
(128,498,o),
(128,480,cs),
(128,462,o),
(114,448,o),
(96,448,cs),
(78,448,o),
(64,434,o),
(64,416,cs),
(64,398,o),
(50,384,o),
(32,384,cs),
(14,384,o),
(0,370,o),
(0,352,cs),
(0,334,o),
(14,320,o),
(32,320,cs),
(50,320,o),
(64,304,o),
(64,284,cs),
(64,100,ls),
(64,80,o),
(78,64,o),
(96,64,cs),
(114,64,o),
(128,50,o),
(128,32,cs),
(128,14,o),
(142,0,o),
(160,0,cs),
(178,0,o),
(192,14,o),
(192,32,cs)
);
},
{
closed = 1;
nodes = (
(128,-77,o),
(114,-64,o),
(96,-64,cs),
(78,-64,o),
(64,-50,o),
(64,-32,cs),
(64,-14,o),
(50,0,o),
(32,0,cs),
(14,0,o),
(0,-16,o),
(0,-36,cs),
(0,-92,ls),
(0,-112,o),
(14,-128,o),
(32,-128,cs),
(50,-128,o),
(64,-142,o),
(64,-160,cs),
(64,-178,o),
(80,-192,o),
(100,-192,cs),
(220,-192,ls),
(240,-192,o),
(256,-178,o),
(256,-160,cs),
(256,-142,o),
(240,-128,o),
(220,-128,cs),
(164,-128,ls),
(144,-128,o),
(128,-114,o),
(128,-96,cs)
);
},
{
closed = 1;
nodes = (
(320,-77,o),
(306,-64,o),
(288,-64,cs),
(270,-64,o),
(256,-78,o),
(256,-96,cs),
(256,-114,o),
(270,-128,o),
(288,-128,cs),
(306,-128,o),
(320,-114,o),
(320,-96,cs)
);
},
{
closed = 1;
nodes = (
(384,-13,o),
(398,0,o),
(416,0,cs),
(434,0,o),
(448,16,o),
(448,36,cs),
(448,476,ls),
(448,496,o),
(434,512,o),
(416,512,cs),
(398,512,o),
(384,498,o),
(384,480,cs),
(384,462,o),
(370,448,o),
(352,448,cs),
(334,448,o),
(320,432,o),
(320,412,cs),
(320,228,ls),
(320,208,o),
(306,192,o),
(288,192,cs),
(270,192,o),
(256,178,o),
(256,160,cs),
(256,142,o),
(270,128,o),
(288,128,cs),
(306,128,o),
(320,112,o),
(320,92,cs),
(320,-28,ls),
(320,-48,o),
(334,-64,o),
(352,-64,cs),
(370,-64,o),
(384,-50,o),
(384,-32,cs)
);
}
);
width = 512;
}
);
note = y;
unicode = 121;
},
{
glyphname = z;
lastChange = "2023-08-27 17:47:49 +0000";
layers = (
{
layerId = m002;
shapes = (
{
closed = 1;
nodes = (
(64,371,o),
(50,384,o),
(32,384,cs),
(14,384,o),
(0,370,o),
(0,352,cs),
(0,334,o),
(14,320,o),
(32,320,cs),
(50,320,o),
(64,334,o),
(64,352,cs)
);
},
{
closed = 1;
nodes = (
(320,51,o),
(334,64,o),
(352,64,cs),
(370,64,o),
(384,78,o),
(384,96,cs),
(384,114,o),
(368,128,o),
(348,128,cs),
(164,128,ls),
(144,128,o),
(128,142,o),
(128,160,cs),
(128,178,o),
(114,192,o),
(96,192,cs),
(78,192,o),
(64,178,o),
(64,160,cs),
(64,142,o),
(50,128,o),
(32,128,cs),
(14,128,o),
(0,112,o),
(0,92,cs),
(0,36,ls),
(0,16,o),
(16,0,o),
(36,0,cs),
(284,0,ls),
(304,0,o),
(320,14,o),
(320,32,cs)
);
},
{
closed = 1;
nodes = (
(448,179,o),
(434,192,o),
(416,192,cs),
(398,192,o),
(384,178,o),
(384,160,cs),
(384,142,o),
(398,128,o),
(416,128,cs),
(434,128,o),
(448,142,o),
(448,160,cs)
);
},
{
closed = 1;
nodes = (
(192,243,o),
(178,256,o),
(160,256,cs),
(142,256,o),
(128,242,o),
(128,224,cs),
(128,206,o),
(142,192,o),
(160,192,cs),
(178,192,o),
(192,206,o),
(192,224,cs)
);
},
{
closed = 1;
nodes = (
(256,307,o),
(242,320,o),
(224,320,cs),
(206,320,o),
(192,306,o),
(192,288,cs),
(192,270,o),
(206,256,o),
(224,256,cs),
(242,256,o),
(256,270,o),
(256,288,cs)
);
},
{
closed = 1;
nodes = (
(320,371,o),
(334,384,o),
(352,384,cs),
(370,384,o),
(384,398,o),
(384,416,cs),
(384,434,o),
(398,448,o),
(416,448,cs),
(434,448,o),
(448,462,o),
(448,480,cs),
(448,498,o),
(432,512,o),
(412,512,cs),
(164,512,ls),
(144,512,o),
(128,498,o),
(128,480,cs),
(128,462,o),
(114,448,o),
(96,448,cs),
(78,448,o),
(64,434,o),
(64,416,cs),
(64,398,o),
(80,384,o),
(100,384,cs),
(220,384,ls),
(240,384,o),
(256,370,o),
(256,352,cs),
(256,334,o),
(270,320,o),
(288,320,cs),
(306,320,o),
(320,334,o),
(320,352,cs)
);
}
);
width = 512;
}
);
note = z;
unicode = 122;
},
{
glyphname = zero;
lastChange = "2023-08-27 17:37:39 +0000";
layers = (
{
layerId = m002;
shapes = (
{
closed = 1;
nodes = (
(320,51,o),
(306,64,o),
(288,64,cs),
(270,64,o),
(256,78,o),
(256,96,cs),
(256,114,o),
(242,128,o),
(224,128,cs),
(206,128,o),
(192,142,o),
(192,160,cs),
(192,178,o),
(178,192,o),
(160,192,cs),
(142,192,o),
(128,206,o),
(128,224,cs),
(128,242,o),
(142,256,o),
(160,256,cs),
(178,256,o),
(192,270,o),
(192,288,cs),
(192,306,o),
(178,320,o),
(160,320,cs),
(142,320,o),
(128,336,o),
(128,356,cs),
(128,604,ls),
(128,624,o),
(114,640,o),
(96,640,cs),
(78,640,o),
(64,626,o),
(64,608,cs),
(64,590,o),
(50,576,o),
(32,576,cs),
(14,576,o),
(0,560,o),
(0,540,cs),
(0,164,ls),
(0,144,o),
(14,128,o),
(32,128,cs),
(50,128,o),
(64,114,o),
(64,96,cs),
(64,78,o),
(78,64,o),
(96,64,cs),
(114,64,o),
(128,50,o),
(128,32,cs),
(128,14,o),
(144,0,o),
(164,0,cs),
(284,0,ls),
(304,0,o),
(320,14,o),
(320,32,cs)
);
},
{
closed = 1;
nodes = (
(384,115,o),
(398,128,o),
(416,128,cs),
(434,128,o),
(448,144,o),
(448,164,cs),
(448,540,ls),
(448,560,o),
(434,576,o),
(416,576,cs),
(398,576,o),
(384,590,o),
(384,608,cs),
(384,626,o),
(370,640,o),
(352,640,cs),
(334,640,o),
(320,654,o),
(320,672,cs),
(320,690,o),
(304,704,o),
(284,704,cs),
(164,704,ls),
(144,704,o),
(128,690,o),
(128,672,cs),
(128,654,o),
(142,640,o),
(160,640,cs),
(178,640,o),
(192,626,o),
(192,608,cs),
(192,590,o),
(206,576,o),
(224,576,cs),
(242,576,o),
(256,562,o),
(256,544,cs),
(256,526,o),
(270,512,o),
(288,512,cs),
(306,512,o),
(320,498,o),
(320,480,cs),
(320,462,o),
(306,448,o),
(288,448,cs),
(270,448,o),
(256,434,o),
(256,416,cs),
(256,398,o),
(242,384,o),
(224,384,cs),
(206,384,o),
(192,370,o),
(192,352,cs),
(192,334,o),
(206,320,o),
(224,320,cs),
(242,320,o),
(256,334,o),
(256,352,cs),
(256,370,o),
(270,384,o),
(288,384,cs),
(306,384,o),
(320,368,o),
(320,348,cs),
(320,100,ls),
(320,80,o),
(334,64,o),
(352,64,cs),
(370,64,o),
(384,78,o),
(384,96,cs)
);
}
);
width = 512;
}
);
note = zero;
unicode = 48;
},
{
glyphname = one;
lastChange = "2023-08-27 17:37:42 +0000";
layers = (
{
layerId = m002;
shapes = (
{
closed = 1;
nodes = (
(256,51,o),
(242,64,o),
(224,64,cs),
(206,64,o),
(192,80,o),
(192,100,cs),
(192,668,ls),
(192,688,o),
(178,704,o),
(160,704,cs),
(142,704,o),
(128,690,o),
(128,672,cs),
(128,654,o),
(114,640,o),
(96,640,cs),
(78,640,o),
(64,626,o),
(64,608,cs),
(64,590,o),
(50,576,o),
(32,576,cs),
(14,576,o),
(0,562,o),
(0,544,cs),
(0,526,o),
(14,512,o),
(32,512,cs),
(50,512,o),
(64,496,o),
(64,476,cs),
(64,100,ls),
(64,80,o),
(50,64,o),
(32,64,cs),
(14,64,o),
(0,50,o),
(0,32,cs),
(0,14,o),
(16,0,o),
(36,0,cs),
(220,0,ls),
(240,0,o),
(256,14,o),
(256,32,cs)
);
}
);
width = 320;
}
);
note = one;
unicode = 49;
},
{
glyphname = two;
lastChange = "2023-08-27 17:37:48 +0000";
layers = (
{
layerId = m002;
shapes = (
{
closed = 1;
nodes = (
(64,563,o),
(78,576,o),
(96,576,cs),
(114,576,o),
(128,590,o),
(128,608,cs),
(128,626,o),
(142,640,o),
(160,640,cs),
(178,640,o),
(192,626,o),
(192,608,cs),
(192,590,o),
(206,576,o),
(224,576,cs),
(242,576,o),
(256,560,o),
(256,540,cs),
(256,420,ls),
(256,400,o),
(242,384,o),
(224,384,cs),
(206,384,o),
(192,370,o),
(192,352,cs),
(192,334,o),
(178,320,o),
(160,320,cs),
(142,320,o),
(128,306,o),
(128,288,cs),
(128,270,o),
(114,256,o),
(96,256,cs),
(78,256,o),
(64,242,o),
(64,224,cs),
(64,206,o),
(50,192,o),
(32,192,cs),
(14,192,o),
(0,176,o),
(0,156,cs),
(0,36,ls),
(0,16,o),
(16,0,o),
(36,0,cs),
(284,0,ls),
(304,0,o),
(320,14,o),
(320,32,cs),
(320,50,o),
(334,64,o),
(352,64,cs),
(370,64,o),
(384,78,o),
(384,96,cs),
(384,114,o),
(368,128,o),
(348,128,cs),
(164,128,ls),
(144,128,o),
(128,144,o),
(128,164,cs),
(128,220,ls),
(128,240,o),
(142,256,o),
(160,256,cs),
(178,256,o),
(192,270,o),
(192,288,cs),
(192,306,o),
(206,320,o),
(224,320,cs),
(242,320,o),
(256,334,o),
(256,352,cs),
(256,370,o),
(270,384,o),
(288,384,cs),
(306,384,o),
(320,398,o),
(320,416,cs),
(320,434,o),
(334,448,o),
(352,448,cs),
(370,448,o),
(384,464,o),
(384,484,cs),
(384,604,ls),
(384,624,o),
(370,640,o),
(352,640,cs),
(334,640,o),
(320,654,o),
(320,672,cs),
(320,690,o),
(304,704,o),
(284,704,cs),
(100,704,ls),
(80,704,o),
(64,690,o),
(64,672,cs),
(64,654,o),
(50,640,o),
(32,640,cs),
(14,640,o),
(0,624,o),
(0,604,cs),
(0,548,ls),
(0,528,o),
(14,512,o),
(32,512,cs),
(50,512,o),
(64,526,o),
(64,544,cs)
);
}
);
width = 448;
}
);
note = two;
unicode = 50;
},
{
glyphname = three;
lastChange = "2023-08-27 17:37:53 +0000";
layers = (
{
layerId = m002;
shapes = (
{
closed = 1;
nodes = (
(64,563,o),
(50,576,o),
(32,576,cs),
(14,576,o),
(0,562,o),
(0,544,cs),
(0,526,o),
(14,512,o),
(32,512,cs),
(50,512,o),
(64,526,o),
(64,544,cs)
);
},
{
closed = 1;
nodes = (
(192,115,o),
(178,128,o),
(160,128,cs),
(142,128,o),
(128,142,o),
(128,160,cs),
(128,178,o),
(112,192,o),
(92,192,cs),
(36,192,ls),
(16,192,o),
(0,176,o),
(0,156,cs),
(0,100,ls),
(0,80,o),
(14,64,o),
(32,64,cs),
(50,64,o),
(64,50,o),
(64,32,cs),
(64,14,o),
(80,0,o),
(100,0,cs),
(284,0,ls),
(304,0,o),
(320,14,o),
(320,32,cs),
(320,50,o),
(304,64,o),
(284,64,cs),
(228,64,ls),
(208,64,o),
(192,78,o),
(192,96,cs)
);
},
{
closed = 1;
nodes = (
(384,115,o),
(398,128,o),
(416,128,cs),
(434,128,o),
(448,144,o),
(448,164,cs),
(448,284,ls),
(448,304,o),
(434,320,o),
(416,320,cs),
(398,320,o),
(384,336,o),
(384,356,cs),
(384,412,ls),
(384,432,o),
(398,448,o),
(416,448,cs),
(434,448,o),
(448,464,o),
(448,484,cs),
(448,540,ls),
(448,560,o),
(434,576,o),
(416,576,cs),
(398,576,o),
(384,590,o),
(384,608,cs),
(384,626,o),
(370,640,o),
(352,640,cs),
(334,640,o),
(320,654,o),
(320,672,cs),
(320,690,o),
(304,704,o),
(284,704,cs),
(164,704,ls),
(144,704,o),
(128,690,o),
(128,672,cs),
(128,654,o),
(114,640,o),
(96,640,cs),
(78,640,o),
(64,626,o),
(64,608,cs),
(64,590,o),
(80,576,o),
(100,576,cs),
(220,576,ls),
(240,576,o),
(256,562,o),
(256,544,cs),
(256,526,o),
(270,512,o),
(288,512,cs),
(306,512,o),
(320,496,o),
(320,476,cs),
(320,420,ls),
(320,400,o),
(304,384,o),
(284,384,cs),
(228,384,ls),
(208,384,o),
(192,370,o),
(192,352,cs),
(192,334,o),
(206,320,o),
(224,320,cs),
(242,320,o),
(256,306,o),
(256,288,cs),
(256,270,o),
(270,256,o),
(288,256,cs),
(306,256,o),
(320,240,o),
(320,220,cs),
(320,100,ls),
(320,80,o),
(334,64,o),
(352,64,cs),
(370,64,o),
(384,78,o),
(384,96,cs)
);
}
);
width = 512;
}
);
note = three;
unicode = 51;
},
{
glyphname = four;
lastChange = "2023-08-27 17:37:56 +0000";
layers = (
{
layerId = m002;
shapes = (
{
closed = 1;
nodes = (
(448,156,ls),
(448,176,o),
(462,192,o),
(480,192,cs),
(498,192,o),
(512,206,o),
(512,224,cs),
(512,242,o),
(526,256,o),
(544,256,cs),
(562,256,o),
(576,270,o),
(576,288,cs),
(576,306,o),
(560,320,o),
(540,320,cs),
(484,320,ls),
(464,320,o),
(448,336,o),
(448,356,cs),
(448,668,ls),
(448,688,o),
(432,704,o),
(412,704,cs),
(356,704,ls),
(336,704,o),
(320,690,o),
(320,672,cs),
(320,654,o),
(306,640,o),
(288,640,cs),
(270,640,o),
(256,626,o),
(256,608,cs),
(256,590,o),
(242,576,o),
(224,576,cs),
(206,576,o),
(192,562,o),
(192,544,cs),
(192,526,o),
(178,512,o),
(160,512,cs),
(142,512,o),
(128,498,o),
(128,480,cs),
(128,462,o),
(114,448,o),
(96,448,cs),
(78,448,o),
(64,434,o),
(64,416,cs),
(64,398,o),
(50,384,o),
(32,384,cs),
(14,384,o),
(0,368,o),
(0,348,cs),
(0,228,ls),
(0,208,o),
(16,192,o),
(36,192,cs),
(284,192,ls),
(304,192,o),
(320,176,o),
(320,156,cs),
(320,36,ls),
(320,16,o),
(336,0,o),
(356,0,cs),
(412,0,ls),
(432,0,o),
(448,16,o),
(448,36,cs)
);
},
{
closed = 1;
nodes = (
(164,320,ls),
(144,320,o),
(128,336,o),
(128,356,cs),
(128,412,ls),
(128,432,o),
(142,448,o),
(160,448,cs),
(178,448,o),
(192,462,o),
(192,480,cs),
(192,498,o),
(206,512,o),
(224,512,cs),
(242,512,o),
(256,526,o),
(256,544,cs),
(256,562,o),
(270,576,o),
(288,576,cs),
(306,576,o),
(320,560,o),
(320,540,cs),
(320,356,ls),
(320,336,o),
(304,320,o),
(284,320,cs)
);
}
);
width = 640;
}
);
note = four;
unicode = 52;
},
{
glyphname = five;
lastChange = "2023-08-27 17:37:58 +0000";
layers = (
{
layerId = m002;
shapes = (
{
closed = 1;
nodes = (
(64,307,o),
(78,320,o),
(96,320,cs),
(114,320,o),
(128,334,o),
(128,352,cs),
(128,370,o),
(144,384,o),
(164,384,cs),
(220,384,ls),
(240,384,o),
(256,370,o),
(256,352,cs),
(256,334,o),
(270,320,o),
(288,320,cs),
(306,320,o),
(320,304,o),
(320,284,cs),
(320,100,ls),
(320,80,o),
(304,64,o),
(284,64,cs),
(228,64,ls),
(208,64,o),
(192,78,o),
(192,96,cs),
(192,114,o),
(178,128,o),
(160,128,cs),
(142,128,o),
(128,142,o),
(128,160,cs),
(128,178,o),
(112,192,o),
(92,192,cs),
(36,192,ls),
(16,192,o),
(0,176,o),
(0,156,cs),
(0,100,ls),
(0,80,o),
(14,64,o),
(32,64,cs),
(50,64,o),
(64,50,o),
(64,32,cs),
(64,14,o),
(80,0,o),
(100,0,cs),
(284,0,ls),
(304,0,o),
(320,14,o),
(320,32,cs),
(320,50,o),
(334,64,o),
(352,64,cs),
(370,64,o),
(384,78,o),
(384,96,cs),
(384,114,o),
(398,128,o),
(416,128,cs),
(434,128,o),
(448,144,o),
(448,164,cs),
(448,348,ls),
(448,368,o),
(434,384,o),
(416,384,cs),
(398,384,o),
(384,398,o),
(384,416,cs),
(384,434,o),
(370,448,o),
(352,448,cs),
(334,448,o),
(320,462,o),
(320,480,cs),
(320,498,o),
(304,512,o),
(284,512,cs),
(228,512,ls),
(208,512,o),
(192,498,o),
(192,480,cs),
(192,462,o),
(178,448,o),
(160,448,cs),
(142,448,o),
(128,464,o),
(128,484,cs),
(128,604,ls),
(128,624,o),
(144,640,o),
(164,640,cs),
(412,640,ls),
(432,640,o),
(448,654,o),
(448,672,cs),
(448,690,o),
(432,704,o),
(412,704,cs),
(36,704,ls),
(16,704,o),
(0,688,o),
(0,668,cs),
(0,292,ls),
(0,272,o),
(14,256,o),
(32,256,cs),
(50,256,o),
(64,270,o),
(64,288,cs)
);
}
);
width = 512;
}
);
note = five;
unicode = 53;
},
{
glyphname = six;
lastChange = "2023-08-27 17:38:03 +0000";
layers = (
{
layerId = m002;
shapes = (
{
closed = 1;
nodes = (
(256,115,o),
(242,128,o),
(224,128,cs),
(206,128,o),
(192,142,o),
(192,160,cs),
(192,178,o),
(178,192,o),
(160,192,cs),
(142,192,o),
(128,208,o),
(128,228,cs),
(128,284,ls),
(128,304,o),
(142,320,o),
(160,320,cs),
(178,320,o),
(192,334,o),
(192,352,cs),
(192,370,o),
(178,384,o),
(160,384,cs),
(142,384,o),
(128,400,o),
(128,420,cs),
(128,540,ls),
(128,560,o),
(114,576,o),
(96,576,cs),
(78,576,o),
(64,562,o),
(64,544,cs),
(64,526,o),
(50,512,o),
(32,512,cs),
(14,512,o),
(0,496,o),
(0,476,cs),
(0,164,ls),
(0,144,o),
(14,128,o),
(32,128,cs),
(50,128,o),
(64,114,o),
(64,96,cs),
(64,78,o),
(78,64,o),
(96,64,cs),
(114,64,o),
(128,50,o),
(128,32,cs),
(128,14,o),
(144,0,o),
(164,0,cs),
(348,0,ls),
(368,0,o),
(384,14,o),
(384,32,cs),
(384,50,o),
(368,64,o),
(348,64,cs),
(292,64,ls),
(272,64,o),
(256,78,o),
(256,96,cs)
);
},
{
closed = 1;
nodes = (
(448,115,o),
(462,128,o),
(480,128,cs),
(498,128,o),
(512,144,o),
(512,164,cs),
(512,284,ls),
(512,304,o),
(498,320,o),
(480,320,cs),
(462,320,o),
(448,334,o),
(448,352,cs),
(448,370,o),
(434,384,o),
(416,384,cs),
(398,384,o),
(384,398,o),
(384,416,cs),
(384,434,o),
(368,448,o),
(348,448,cs),
(228,448,ls),
(208,448,o),
(192,434,o),
(192,416,cs),
(192,398,o),
(206,384,o),
(224,384,cs),
(242,384,o),
(256,370,o),
(256,352,cs),
(256,334,o),
(270,320,o),
(288,320,cs),
(306,320,o),
(320,306,o),
(320,288,cs),
(320,270,o),
(334,256,o),
(352,256,cs),
(370,256,o),
(384,240,o),
(384,220,cs),
(384,100,ls),
(384,80,o),
(398,64,o),
(416,64,cs),
(434,64,o),
(448,78,o),
(448,96,cs)
);
},
{
closed = 1;
nodes = (
(512,604,ls),
(512,624,o),
(498,640,o),
(480,640,cs),
(462,640,o),
(448,654,o),
(448,672,cs),
(448,690,o),
(432,704,o),
(412,704,cs),
(228,704,ls),
(208,704,o),
(192,690,o),
(192,672,cs),
(192,654,o),
(178,640,o),
(160,640,cs),
(142,640,o),
(128,626,o),
(128,608,cs),
(128,590,o),
(142,576,o),
(160,576,cs),
(178,576,o),
(192,590,o),
(192,608,cs),
(192,626,o),
(208,640,o),
(228,640,cs),
(284,640,ls),
(304,640,o),
(320,626,o),
(320,608,cs),
(320,590,o),
(334,576,o),
(352,576,cs),
(370,576,o),
(384,562,o),
(384,544,cs),
(384,526,o),
(400,512,o),
(420,512,cs),
(476,512,ls),
(496,512,o),
(512,528,o),
(512,548,cs)
);
}
);
width = 576;
}
);
note = six;
unicode = 54;
},
{
glyphname = seven;
lastChange = "2023-08-27 17:38:09 +0000";
layers = (
{
layerId = m002;
shapes = (
{
closed = 1;
nodes = (
(64,563,o),
(50,576,o),
(32,576,cs),
(14,576,o),
(0,562,o),
(0,544,cs),
(0,526,o),
(14,512,o),
(32,512,cs),
(50,512,o),
(64,526,o),
(64,544,cs)
);
},
{
closed = 1;
nodes = (
(320,51,o),
(334,64,o),
(352,64,cs),
(370,64,o),
(384,78,o),
(384,96,cs),
(384,114,o),
(370,128,o),
(352,128,cs),
(334,128,o),
(320,144,o),
(320,164,cs),
(320,412,ls),
(320,432,o),
(306,448,o),
(288,448,cs),
(270,448,o),
(256,434,o),
(256,416,cs),
(256,398,o),
(242,384,o),
(224,384,cs),
(206,384,o),
(192,368,o),
(192,348,cs),
(192,36,ls),
(192,16,o),
(208,0,o),
(228,0,cs),
(284,0,ls),
(304,0,o),
(320,14,o),
(320,32,cs)
);
},
{
closed = 1;
nodes = (
(384,499,o),
(370,512,o),
(352,512,cs),
(334,512,o),
(320,498,o),
(320,480,cs),
(320,462,o),
(334,448,o),
(352,448,cs),
(370,448,o),
(384,462,o),
(384,480,cs)
);
},
{
closed = 1;
nodes = (
(448,563,o),
(462,576,o),
(480,576,cs),
(498,576,o),
(512,592,o),
(512,612,cs),
(512,668,ls),
(512,688,o),
(496,704,o),
(476,704,cs),
(164,704,ls),
(144,704,o),
(128,690,o),
(128,672,cs),
(128,654,o),
(114,640,o),
(96,640,cs),
(78,640,o),
(64,626,o),
(64,608,cs),
(64,590,o),
(80,576,o),
(100,576,cs),
(348,576,ls),
(368,576,o),
(384,562,o),
(384,544,cs),
(384,526,o),
(398,512,o),
(416,512,cs),
(434,512,o),
(448,526,o),
(448,544,cs)
);
}
);
width = 576;
}
);
note = seven;
unicode = 55;
},
{
glyphname = eight;
lastChange = "2023-08-27 17:38:11 +0000";
layers = (
{
layerId = m002;
shapes = (
{
closed = 1;
nodes = (
(256,115,o),
(242,128,o),
(224,128,cs),
(206,128,o),
(192,142,o),
(192,160,cs),
(192,178,o),
(178,192,o),
(160,192,cs),
(142,192,o),
(128,208,o),
(128,228,cs),
(128,284,ls),
(128,304,o),
(114,320,o),
(96,320,cs),
(78,320,o),
(64,306,o),
(64,288,cs),
(64,270,o),
(50,256,o),
(32,256,cs),
(14,256,o),
(0,240,o),
(0,220,cs),
(0,164,ls),
(0,144,o),
(14,128,o),
(32,128,cs),
(50,128,o),
(64,114,o),
(64,96,cs),
(64,78,o),
(78,64,o),
(96,64,cs),
(114,64,o),
(128,50,o),
(128,32,cs),
(128,14,o),
(144,0,o),
(164,0,cs),
(348,0,ls),
(368,0,o),
(384,14,o),
(384,32,cs),
(384,50,o),
(368,64,o),
(348,64,cs),
(292,64,ls),
(272,64,o),
(256,78,o),
(256,96,cs)
);
},
{
closed = 1;
nodes = (
(448,115,o),
(462,128,o),
(480,128,cs),
(498,128,o),
(512,144,o),
(512,164,cs),
(512,220,ls),
(512,240,o),
(498,256,o),
(480,256,cs),
(462,256,o),
(448,270,o),
(448,288,cs),
(448,306,o),
(434,320,o),
(416,320,cs),
(398,320,o),
(384,334,o),
(384,352,cs),
(384,370,o),
(368,384,o),
(348,384,cs),
(292,384,ls),
(272,384,o),
(256,398,o),
(256,416,cs),
(256,434,o),
(242,448,o),
(224,448,cs),
(206,448,o),
(192,462,o),
(192,480,cs),
(192,498,o),
(178,512,o),
(160,512,cs),
(142,512,o),
(128,528,o),
(128,548,cs),
(128,604,ls),
(128,624,o),
(114,640,o),
(96,640,cs),
(78,640,o),
(64,626,o),
(64,608,cs),
(64,590,o),
(50,576,o),
(32,576,cs),
(14,576,o),
(0,560,o),
(0,540,cs),
(0,484,ls),
(0,464,o),
(14,448,o),
(32,448,cs),
(50,448,o),
(64,434,o),
(64,416,cs),
(64,398,o),
(78,384,o),
(96,384,cs),
(114,384,o),
(128,370,o),
(128,352,cs),
(128,334,o),
(144,320,o),
(164,320,cs),
(220,320,ls),
(240,320,o),
(256,306,o),
(256,288,cs),
(256,270,o),
(270,256,o),
(288,256,cs),
(306,256,o),
(320,242,o),
(320,224,cs),
(320,206,o),
(334,192,o),
(352,192,cs),
(370,192,o),
(384,176,o),
(384,156,cs),
(384,100,ls),
(384,80,o),
(398,64,o),
(416,64,cs),
(434,64,o),
(448,78,o),
(448,96,cs)
);
},
{
closed = 1;
nodes = (
(448,435,o),
(462,448,o),
(480,448,cs),
(498,448,o),
(512,464,o),
(512,484,cs),
(512,604,ls),
(512,624,o),
(498,640,o),
(480,640,cs),
(462,640,o),
(448,654,o),
(448,672,cs),
(448,690,o),
(432,704,o),
(412,704,cs),
(164,704,ls),
(144,704,o),
(128,690,o),
(128,672,cs),
(128,654,o),
(144,640,o),
(164,640,cs),
(284,640,ls),
(304,640,o),
(320,626,o),
(320,608,cs),
(320,590,o),
(334,576,o),
(352,576,cs),
(370,576,o),
(384,560,o),
(384,540,cs),
(384,420,ls),
(384,400,o),
(398,384,o),
(416,384,cs),
(434,384,o),
(448,398,o),
(448,416,cs)
);
}
);
width = 576;
}
);
note = eight;
unicode = 56;
},
{
glyphname = nine;
lastChange = "2023-08-27 17:38:23 +0000";
layers = (
{
layerId = m002;
shapes = (
{
closed = 1;
nodes = (
(192,115,o),
(178,128,o),
(160,128,cs),
(142,128,o),
(128,142,o),
(128,160,cs),
(128,178,o),
(112,192,o),
(92,192,cs),
(36,192,ls),
(16,192,o),
(0,176,o),
(0,156,cs),
(0,100,ls),
(0,80,o),
(14,64,o),
(32,64,cs),
(50,64,o),
(64,50,o),
(64,32,cs),
(64,14,o),
(80,0,o),
(100,0,cs),
(284,0,ls),
(304,0,o),
(320,14,o),
(320,32,cs),
(320,50,o),
(304,64,o),
(284,64,cs),
(228,64,ls),
(208,64,o),
(192,78,o),
(192,96,cs)
);
},
{
closed = 1;
nodes = (
(384,115,o),
(370,128,o),
(352,128,cs),
(334,128,o),
(320,114,o),
(320,96,cs),
(320,78,o),
(334,64,o),
(352,64,cs),
(370,64,o),
(384,78,o),
(384,96,cs)
);
},
{
closed = 1;
nodes = (
(448,179,o),
(462,192,o),
(480,192,cs),
(498,192,o),
(512,208,o),
(512,228,cs),
(512,540,ls),
(512,560,o),
(498,576,o),
(480,576,cs),
(462,576,o),
(448,590,o),
(448,608,cs),
(448,626,o),
(434,640,o),
(416,640,cs),
(398,640,o),
(384,654,o),
(384,672,cs),
(384,690,o),
(368,704,o),
(348,704,cs),
(164,704,ls),
(144,704,o),
(128,690,o),
(128,672,cs),
(128,654,o),
(114,640,o),
(96,640,cs),
(78,640,o),
(64,626,o),
(64,608,cs),
(64,590,o),
(50,576,o),
(32,576,cs),
(14,576,o),
(0,560,o),
(0,540,cs),
(0,420,ls),
(0,400,o),
(14,384,o),
(32,384,cs),
(50,384,o),
(64,370,o),
(64,352,cs),
(64,334,o),
(78,320,o),
(96,320,cs),
(114,320,o),
(128,306,o),
(128,288,cs),
(128,270,o),
(144,256,o),
(164,256,cs),
(348,256,ls),
(368,256,o),
(384,240,o),
(384,220,cs),
(384,164,ls),
(384,144,o),
(398,128,o),
(416,128,cs),
(434,128,o),
(448,142,o),
(448,160,cs)
);
},
{
closed = 1;
nodes = (
(256,371,o),
(242,384,o),
(224,384,cs),
(206,384,o),
(192,398,o),
(192,416,cs),
(192,434,o),
(178,448,o),
(160,448,cs),
(142,448,o),
(128,464,o),
(128,484,cs),
(128,604,ls),
(128,624,o),
(144,640,o),
(164,640,cs),
(220,640,ls),
(240,640,o),
(256,626,o),
(256,608,cs),
(256,590,o),
(270,576,o),
(288,576,cs),
(306,576,o),
(320,562,o),
(320,544,cs),
(320,526,o),
(334,512,o),
(352,512,cs),
(370,512,o),
(384,496,o),
(384,476,cs),
(384,356,ls),
(384,336,o),
(368,320,o),
(348,320,cs),
(292,320,ls),
(272,320,o),
(256,334,o),
(256,352,cs)
);
}
);
width = 576;
}
);
note = nine;
unicode = 57;
},
{
glyphname = period;
lastChange = "2023-08-27 17:37:33 +0000";
layers = (
{
layerId = m002;
shapes = (
{
closed = 1;
nodes = (
(192,92,ls),
(192,112,o),
(176,128,o),
(156,128,cs),
(100,128,ls),
(80,128,o),
(64,112,o),
(64,92,cs),
(64,36,ls),
(64,16,o),
(80,0,o),
(100,0,cs),
(156,0,ls),
(176,0,o),
(192,16,o),
(192,36,cs)
);
}
);
width = 256;
}
);
note = period;
unicode = 46;
},
{
glyphname = comma;
lastChange = "2023-08-27 17:37:26 +0000";
layers = (
{
layerId = m002;
shapes = (
{
closed = 1;
nodes = (
(64,-141,o),
(50,-128,o),
(32,-128,cs),
(14,-128,o),
(0,-142,o),
(0,-160,cs),
(0,-178,o),
(14,-192,o),
(32,-192,cs),
(50,-192,o),
(64,-178,o),
(64,-160,cs)
);
},
{
closed = 1;
nodes = (
(128,-77,o),
(142,-64,o),
(160,-64,cs),
(178,-64,o),
(192,-48,o),
(192,-28,cs),
(192,92,ls),
(192,112,o),
(176,128,o),
(156,128,cs),
(100,128,ls),
(80,128,o),
(64,114,o),
(64,96,cs),
(64,78,o),
(50,64,o),
(32,64,cs),
(14,64,o),
(0,50,o),
(0,32,cs),
(0,14,o),
(14,0,o),
(32,0,cs),
(50,0,o),
(64,-16,o),
(64,-36,cs),
(64,-92,ls),
(64,-112,o),
(78,-128,o),
(96,-128,cs),
(114,-128,o),
(128,-114,o),
(128,-96,cs)
);
}
);
width = 256;
}
);
note = comma;
unicode = 44;
},
{
glyphname = colon;
lastChange = "2023-08-27 17:38:26 +0000";
layers = (
{
layerId = m002;
shapes = (
{
closed = 1;
nodes = (
(192,92,ls),
(192,112,o),
(176,128,o),
(156,128,cs),
(100,128,ls),
(80,128,o),
(64,112,o),
(64,92,cs),
(64,36,ls),
(64,16,o),
(80,0,o),
(100,0,cs),
(156,0,ls),
(176,0,o),
(192,16,o),
(192,36,cs)
);
},
{
closed = 1;
nodes = (
(192,412,ls),
(192,432,o),
(176,448,o),
(156,448,cs),
(100,448,ls),
(80,448,o),
(64,432,o),
(64,412,cs),
(64,356,ls),
(64,336,o),
(80,320,o),
(100,320,cs),
(156,320,ls),
(176,320,o),
(192,336,o),
(192,356,cs)
);
}
);
width = 256;
}
);
note = colon;
unicode = 58;
},
{
glyphname = semicolon;
lastChange = "2023-08-27 17:38:34 +0000";
layers = (
{
layerId = m002;
shapes = (
{
closed = 1;
nodes = (
(64,-141,o),
(50,-128,o),
(32,-128,cs),
(14,-128,o),
(0,-142,o),
(0,-160,cs),
(0,-178,o),
(14,-192,o),
(32,-192,cs),
(50,-192,o),
(64,-178,o),
(64,-160,cs)
);
},
{
closed = 1;
nodes = (
(128,-77,o),
(142,-64,o),
(160,-64,cs),
(178,-64,o),
(192,-48,o),
(192,-28,cs),
(192,92,ls),
(192,112,o),
(176,128,o),
(156,128,cs),
(100,128,ls),
(80,128,o),
(64,114,o),
(64,96,cs),
(64,78,o),
(50,64,o),
(32,64,cs),
(14,64,o),
(0,50,o),
(0,32,cs),
(0,14,o),
(14,0,o),
(32,0,cs),
(50,0,o),
(64,-16,o),
(64,-36,cs),
(64,-92,ls),
(64,-112,o),
(78,-128,o),
(96,-128,cs),
(114,-128,o),
(128,-114,o),
(128,-96,cs)
);
},
{
closed = 1;
nodes = (
(192,412,ls),
(192,432,o),
(176,448,o),
(156,448,cs),
(100,448,ls),
(80,448,o),
(64,432,o),
(64,412,cs),
(64,356,ls),
(64,336,o),
(80,320,o),
(100,320,cs),
(156,320,ls),
(176,320,o),
(192,336,o),
(192,356,cs)
);
}
);
width = 256;
}
);
note = semicolon;
unicode = 59;
},
{
glyphname = exclam;
lastChange = "2023-08-27 17:36:14 +0000";
layers = (
{
layerId = m002;
shapes = (
{
closed = 1;
nodes = (
(192,51,o),
(206,64,o),
(224,64,cs),
(242,64,o),
(256,78,o),
(256,96,cs),
(256,114,o),
(240,128,o),
(220,128,cs),
(100,128,ls),
(80,128,o),
(64,112,o),
(64,92,cs),
(64,36,ls),
(64,16,o),
(80,0,o),
(100,0,cs),
(156,0,ls),
(176,0,o),
(192,14,o),
(192,32,cs)
);
},
{
closed = 1;
nodes = (
(192,243,o),
(206,256,o),
(224,256,cs),
(242,256,o),
(256,270,o),
(256,288,cs),
(256,306,o),
(242,320,o),
(224,320,cs),
(206,320,o),
(192,336,o),
(192,356,cs),
(192,668,ls),
(192,688,o),
(178,704,o),
(160,704,cs),
(142,704,o),
(128,690,o),
(128,672,cs),
(128,654,o),
(114,640,o),
(96,640,cs),
(78,640,o),
(64,626,o),
(64,608,cs),
(64,590,o),
(50,576,o),
(32,576,cs),
(14,576,o),
(0,562,o),
(0,544,cs),
(0,526,o),
(14,512,o),
(32,512,cs),
(50,512,o),
(64,496,o),
(64,476,cs),
(64,228,ls),
(64,208,o),
(80,192,o),
(100,192,cs),
(156,192,ls),
(176,192,o),
(192,206,o),
(192,224,cs)
);
}
);
width = 320;
}
);
note = exclam;
unicode = 33;
},
{
glyphname = question;
lastChange = "2023-08-27 17:40:32 +0000";
layers = (
{
layerId = m002;
shapes = (
{
closed = 1;
nodes = (
(256,243,o),
(242,256,o),
(224,256,cs),
(206,256,o),
(192,242,o),
(192,224,cs),
(192,206,o),
(206,192,o),
(224,192,cs),
(242,192,o),
(256,206,o),
(256,224,cs)
);
},
{
closed = 1;
nodes = (
(64,499,o),
(50,512,o),
(32,512,cs),
(14,512,o),
(0,498,o),
(0,480,cs),
(0,462,o),
(14,448,o),
(32,448,cs),
(50,448,o),
(64,462,o),
(64,480,cs)
);
},
{
closed = 1;
nodes = (
(256,92,ls),
(256,112,o),
(240,128,o),
(220,128,cs),
(164,128,ls),
(144,128,o),
(128,112,o),
(128,92,cs),
(128,36,ls),
(128,16,o),
(144,0,o),
(164,0,cs),
(220,0,ls),
(240,0,o),
(256,16,o),
(256,36,cs)
);
},
{
closed = 1;
nodes = (
(320,307,o),
(306,320,o),
(288,320,cs),
(270,320,o),
(256,306,o),
(256,288,cs),
(256,270,o),
(270,256,o),
(288,256,cs),
(306,256,o),
(320,270,o),
(320,288,cs)
);
},
{
closed = 1;
nodes = (
(384,371,o),
(398,384,o),
(416,384,cs),
(434,384,o),
(448,400,o),
(448,420,cs),
(448,476,ls),
(448,496,o),
(434,512,o),
(416,512,cs),
(398,512,o),
(384,526,o),
(384,544,cs),
(384,562,o),
(370,576,o),
(352,576,cs),
(334,576,o),
(320,590,o),
(320,608,cs),
(320,626,o),
(304,640,o),
(284,640,cs),
(164,640,ls),
(144,640,o),
(128,626,o),
(128,608,cs),
(128,590,o),
(114,576,o),
(96,576,cs),
(78,576,o),
(64,562,o),
(64,544,cs),
(64,526,o),
(78,512,o),
(96,512,cs),
(114,512,o),
(128,526,o),
(128,544,cs),
(128,562,o),
(142,576,o),
(160,576,cs),
(178,576,o),
(192,562,o),
(192,544,cs),
(192,526,o),
(206,512,o),
(224,512,cs),
(242,512,o),
(256,498,o),
(256,480,cs),
(256,462,o),
(270,448,o),
(288,448,cs),
(306,448,o),
(320,432,o),
(320,412,cs),
(320,356,ls),
(320,336,o),
(334,320,o),
(352,320,cs),
(370,320,o),
(384,334,o),
(384,352,cs)
);
}
);
width = 512;
}
);
note = question;
unicode = 63;
},
{
glyphname = asterisk;
lastChange = "2023-08-27 17:37:20 +0000";
layers = (
{
layerId = m002;
shapes = (
{
closed = 1;
nodes = (
(320,412,ls),
(320,432,o),
(306,448,o),
(288,448,cs),
(270,448,o),
(256,462,o),
(256,480,cs),
(256,498,o),
(272,512,o),
(292,512,cs),
(348,512,ls),
(368,512,o),
(384,526,o),
(384,544,cs),
(384,562,o),
(368,576,o),
(348,576,cs),
(292,576,ls),
(272,576,o),
(256,590,o),
(256,608,cs),
(256,626,o),
(242,640,o),
(224,640,cs),
(206,640,o),
(192,654,o),
(192,672,cs),
(192,690,o),
(178,704,o),
(160,704,cs),
(142,704,o),
(128,688,o),
(128,668,cs),
(128,612,ls),
(128,592,o),
(112,576,o),
(92,576,cs),
(36,576,ls),
(16,576,o),
(0,562,o),
(0,544,cs),
(0,526,o),
(14,512,o),
(32,512,cs),
(50,512,o),
(64,498,o),
(64,480,cs),
(64,462,o),
(50,448,o),
(32,448,cs),
(14,448,o),
(0,432,o),
(0,412,cs),
(0,356,ls),
(0,336,o),
(14,320,o),
(32,320,cs),
(50,320,o),
(64,334,o),
(64,352,cs),
(64,370,o),
(78,384,o),
(96,384,cs),
(114,384,o),
(128,398,o),
(128,416,cs),
(128,434,o),
(142,448,o),
(160,448,cs),
(178,448,o),
(192,434,o),
(192,416,cs),
(192,398,o),
(206,384,o),
(224,384,cs),
(242,384,o),
(256,370,o),
(256,352,cs),
(256,334,o),
(270,320,o),
(288,320,cs),
(306,320,o),
(320,336,o),
(320,356,cs)
);
}
);
width = 448;
}
);
note = asterisk;
unicode = 42;
},
{
glyphname = numbersign;
lastChange = "2023-08-27 17:36:21 +0000";
layers = (
{
layerId = m002;
shapes = (
{
closed = 1;
nodes = (
(448,64,l),
(480,64,ls),
(498,64,o),
(512,80,o),
(512,100,cs),
(512,192,l),
(604,192,ls),
(624,192,o),
(640,206,o),
(640,224,cs),
(640,242,o),
(624,256,o),
(604,256,cs),
(512,256,l),
(512,384,l),
(604,384,ls),
(624,384,o),
(640,398,o),
(640,416,cs),
(640,434,o),
(624,448,o),
(604,448,cs),
(512,448,l),
(512,604,ls),
(512,624,o),
(498,640,o),
(480,640,cs),
(462,640,o),
(448,624,o),
(448,604,cs),
(448,576,l),
(416,576,ls),
(398,576,o),
(384,560,o),
(384,540,cs),
(384,448,l),
(256,448,l),
(256,604,ls),
(256,624,o),
(242,640,o),
(224,640,cs),
(206,640,o),
(192,624,o),
(192,604,cs),
(192,576,l),
(160,576,ls),
(142,576,o),
(128,560,o),
(128,540,cs),
(128,448,l),
(36,448,ls),
(16,448,o),
(0,434,o),
(0,416,cs),
(0,398,o),
(16,384,o),
(36,384,cs),
(128,384,l),
(128,256,l),
(36,256,ls),
(16,256,o),
(0,242,o),
(0,224,cs),
(0,206,o),
(16,192,o),
(36,192,cs),
(128,192,l),
(128,36,ls),
(128,16,o),
(142,0,o),
(160,0,cs),
(178,0,o),
(192,16,o),
(192,36,cs),
(192,64,l),
(224,64,ls),
(242,64,o),
(256,80,o),
(256,100,cs),
(256,192,l),
(384,192,l),
(384,36,ls),
(384,16,o),
(398,0,o),
(416,0,cs),
(434,0,o),
(448,14,o),
(448,32,cs)
);
},
{
closed = 1;
nodes = (
(256,384,l),
(384,384,l),
(384,256,l),
(256,256,l)
);
}
);
width = 704;
}
);
note = numbersign;
unicode = 35;
},
{
glyphname = slash;
lastChange = "2023-08-27 17:37:36 +0000";
layers = (
{
layerId = m002;
shapes = (
{
closed = 1;
nodes = (
(128,51,o),
(114,64,o),
(96,64,cs),
(78,64,o),
(64,50,o),
(64,32,cs),
(64,14,o),
(78,0,o),
(96,0,cs),
(114,0,o),
(128,14,o),
(128,32,cs)
);
},
{
closed = 1;
nodes = (
(192,115,o),
(178,128,o),
(160,128,cs),
(142,128,o),
(128,114,o),
(128,96,cs),
(128,78,o),
(142,64,o),
(160,64,cs),
(178,64,o),
(192,78,o),
(192,96,cs)
);
},
{
closed = 1;
nodes = (
(256,179,o),
(242,192,o),
(224,192,cs),
(206,192,o),
(192,178,o),
(192,160,cs),
(192,142,o),
(206,128,o),
(224,128,cs),
(242,128,o),
(256,142,o),
(256,160,cs)
);
},
{
closed = 1;
nodes = (
(320,243,o),
(306,256,o),
(288,256,cs),
(270,256,o),
(256,242,o),
(256,224,cs),
(256,206,o),
(270,192,o),
(288,192,cs),
(306,192,o),
(320,206,o),
(320,224,cs)
);
},
{
closed = 1;
nodes = (
(384,307,o),
(370,320,o),
(352,320,cs),
(334,320,o),
(320,306,o),
(320,288,cs),
(320,270,o),
(334,256,o),
(352,256,cs),
(370,256,o),
(384,270,o),
(384,288,cs)
);
},
{
closed = 1;
nodes = (
(448,371,o),
(434,384,o),
(416,384,cs),
(398,384,o),
(384,370,o),
(384,352,cs),
(384,334,o),
(398,320,o),
(416,320,cs),
(434,320,o),
(448,334,o),
(448,352,cs)
);
},
{
closed = 1;
nodes = (
(512,435,o),
(498,448,o),
(480,448,cs),
(462,448,o),
(448,434,o),
(448,416,cs),
(448,398,o),
(462,384,o),
(480,384,cs),
(498,384,o),
(512,398,o),
(512,416,cs)
);
},
{
closed = 1;
nodes = (
(576,499,o),
(562,512,o),
(544,512,cs),
(526,512,o),
(512,498,o),
(512,480,cs),
(512,462,o),
(526,448,o),
(544,448,cs),
(562,448,o),
(576,462,o),
(576,480,cs)
);
},
{
closed = 1;
nodes = (
(640,563,o),
(626,576,o),
(608,576,cs),
(590,576,o),
(576,562,o),
(576,544,cs),
(576,526,o),
(590,512,o),
(608,512,cs),
(626,512,o),
(640,526,o),
(640,544,cs)
);
},
{
closed = 1;
nodes = (
(704,627,o),
(690,640,o),
(672,640,cs),
(654,640,o),
(640,626,o),
(640,608,cs),
(640,590,o),
(654,576,o),
(672,576,cs),
(690,576,o),
(704,590,o),
(704,608,cs)
);
}
);
width = 768;
}
);
note = slash;
unicode = 47;
},
{
glyphname = backslash;
lastChange = "2023-08-27 17:43:54 +0000";
layers = (
{
layerId = m002;
shapes = (
{
closed = 1;
nodes = (
(640,92,ls),
(640,112,o),
(626,128,o),
(608,128,cs),
(590,128,o),
(576,142,o),
(576,160,cs),
(576,178,o),
(562,192,o),
(544,192,cs),
(526,192,o),
(512,206,o),
(512,224,cs),
(512,242,o),
(498,256,o),
(480,256,cs),
(462,256,o),
(448,270,o),
(448,288,cs),
(448,306,o),
(434,320,o),
(416,320,cs),
(398,320,o),
(384,334,o),
(384,352,cs),
(384,370,o),
(370,384,o),
(352,384,cs),
(334,384,o),
(320,398,o),
(320,416,cs),
(320,434,o),
(306,448,o),
(288,448,cs),
(270,448,o),
(256,462,o),
(256,480,cs),
(256,498,o),
(242,512,o),
(224,512,cs),
(206,512,o),
(192,526,o),
(192,544,cs),
(192,562,o),
(178,576,o),
(160,576,cs),
(142,576,o),
(128,590,o),
(128,608,cs),
(128,626,o),
(112,640,o),
(92,640,cs),
(36,640,ls),
(16,640,o),
(0,624,o),
(0,604,cs),
(0,548,ls),
(0,528,o),
(14,512,o),
(32,512,cs),
(50,512,o),
(64,498,o),
(64,480,cs),
(64,462,o),
(78,448,o),
(96,448,cs),
(114,448,o),
(128,434,o),
(128,416,cs),
(128,398,o),
(142,384,o),
(160,384,cs),
(178,384,o),
(192,370,o),
(192,352,cs),
(192,334,o),
(206,320,o),
(224,320,cs),
(242,320,o),
(256,306,o),
(256,288,cs),
(256,270,o),
(270,256,o),
(288,256,cs),
(306,256,o),
(320,242,o),
(320,224,cs),
(320,206,o),
(334,192,o),
(352,192,cs),
(370,192,o),
(384,178,o),
(384,160,cs),
(384,142,o),
(398,128,o),
(416,128,cs),
(434,128,o),
(448,114,o),
(448,96,cs),
(448,78,o),
(462,64,o),
(480,64,cs),
(498,64,o),
(512,50,o),
(512,32,cs),
(512,14,o),
(528,0,o),
(548,0,cs),
(604,0,ls),
(624,0,o),
(640,16,o),
(640,36,cs)
);
}
);
width = 704;
}
);
note = backslash;
unicode = 92;
},
{
glyphname = hyphen;
lastChange = "2023-08-27 17:37:29 +0000";
layers = (
{
layerId = m002;
shapes = (
{
closed = 1;
nodes = (
(36,256,ls),
(16,256,o),
(0,242,o),
(0,224,cs),
(0,206,o),
(16,192,o),
(36,192,cs),
(348,192,ls),
(368,192,o),
(384,206,o),
(384,224,cs),
(384,242,o),
(368,256,o),
(348,256,cs)
);
}
);
width = 448;
}
);
note = hyphen;
unicode = 45;
},
{
glyphname = underscore;
lastChange = "2023-08-27 17:44:29 +0000";
layers = (
{
layerId = m002;
shapes = (
{
closed = 1;
nodes = (
(-28,64,ls),
(-48,64,o),
(-64,50,o),
(-64,32,cs),
(-64,14,o),
(-48,0,o),
(-28,0,cs),
(540,0,ls),
(560,0,o),
(576,14,o),
(576,32,cs),
(576,50,o),
(560,64,o),
(540,64,cs)
);
}
);
width = 640;
}
);
note = underscore;
unicode = 95;
},
{
glyphname = parenleft;
lastChange = "2023-08-27 17:36:55 +0000";
layers = (
{
layerId = m002;
shapes = (
{
closed = 1;
nodes = (
(256,-141,o),
(270,-128,o),
(288,-128,cs),
(306,-128,o),
(320,-114,o),
(320,-96,cs),
(320,-78,o),
(304,-64,o),
(284,-64,cs),
(228,-64,ls),
(208,-64,o),
(192,-50,o),
(192,-32,cs),
(192,-14,o),
(178,0,o),
(160,0,cs),
(142,0,o),
(128,16,o),
(128,36,cs),
(128,476,ls),
(128,496,o),
(142,512,o),
(160,512,cs),
(178,512,o),
(192,526,o),
(192,544,cs),
(192,562,o),
(206,576,o),
(224,576,cs),
(242,576,o),
(256,562,o),
(256,544,cs),
(256,526,o),
(272,512,o),
(292,512,cs),
(348,512,ls),
(368,512,o),
(384,528,o),
(384,548,cs),
(384,604,ls),
(384,624,o),
(370,640,o),
(352,640,cs),
(334,640,o),
(320,654,o),
(320,672,cs),
(320,690,o),
(304,704,o),
(284,704,cs),
(228,704,ls),
(208,704,o),
(192,690,o),
(192,672,cs),
(192,654,o),
(178,640,o),
(160,640,cs),
(142,640,o),
(128,626,o),
(128,608,cs),
(128,590,o),
(114,576,o),
(96,576,cs),
(78,576,o),
(64,562,o),
(64,544,cs),
(64,526,o),
(50,512,o),
(32,512,cs),
(14,512,o),
(0,496,o),
(0,476,cs),
(0,-28,ls),
(0,-48,o),
(14,-64,o),
(32,-64,cs),
(50,-64,o),
(64,-78,o),
(64,-96,cs),
(64,-114,o),
(78,-128,o),
(96,-128,cs),
(114,-128,o),
(128,-142,o),
(128,-160,cs),
(128,-178,o),
(144,-192,o),
(164,-192,cs),
(220,-192,ls),
(240,-192,o),
(256,-178,o),
(256,-160,cs)
);
}
);
width = 448;
}
);
note = parenleft;
unicode = 40;
},
{
glyphname = braceleft;
lastChange = "2023-08-27 17:48:00 +0000";
layers = (
{
layerId = m002;
shapes = (
{
closed = 1;
nodes = (
(256,-100,ls),
(256,-80,o),
(242,-64,o),
(224,-64,cs),
(206,-64,o),
(192,-48,o),
(192,-28,cs),
(192,156,ls),
(192,176,o),
(178,192,o),
(160,192,cs),
(142,192,o),
(128,206,o),
(128,224,cs),
(128,242,o),
(142,256,o),
(160,256,cs),
(178,256,o),
(192,272,o),
(192,292,cs),
(192,540,ls),
(192,560,o),
(178,576,o),
(160,576,cs),
(142,576,o),
(128,562,o),
(128,544,cs),
(128,526,o),
(114,512,o),
(96,512,cs),
(78,512,o),
(64,496,o),
(64,476,cs),
(64,292,ls),
(64,272,o),
(50,256,o),
(32,256,cs),
(14,256,o),
(0,242,o),
(0,224,cs),
(0,206,o),
(14,192,o),
(32,192,cs),
(50,192,o),
(64,176,o),
(64,156,cs),
(64,-92,ls),
(64,-112,o),
(78,-128,o),
(96,-128,cs),
(114,-128,o),
(128,-142,o),
(128,-160,cs),
(128,-178,o),
(144,-192,o),
(164,-192,cs),
(220,-192,ls),
(240,-192,o),
(256,-176,o),
(256,-156,cs)
);
},
{
closed = 1;
nodes = (
(256,627,o),
(242,640,o),
(224,640,cs),
(206,640,o),
(192,626,o),
(192,608,cs),
(192,590,o),
(206,576,o),
(224,576,cs),
(242,576,o),
(256,590,o),
(256,608,cs)
);
}
);
width = 320;
}
);
note = braceleft;
unicode = 123;
},
{
glyphname = bracketleft;
lastChange = "2023-08-27 17:43:51 +0000";
layers = (
{
layerId = m002;
shapes = (
{
closed = 1;
nodes = (
(192,604,ls),
(192,624,o),
(208,640,o),
(228,640,cs),
(284,640,ls),
(304,640,o),
(320,654,o),
(320,672,cs),
(320,690,o),
(304,704,o),
(284,704,cs),
(100,704,ls),
(80,704,o),
(64,688,o),
(64,668,cs),
(64,-92,ls),
(64,-112,o),
(80,-128,o),
(100,-128,cs),
(284,-128,ls),
(304,-128,o),
(320,-114,o),
(320,-96,cs),
(320,-78,o),
(304,-64,o),
(284,-64,cs),
(228,-64,ls),
(208,-64,o),
(192,-48,o),
(192,-28,cs)
);
}
);
width = 384;
}
);
note = bracketleft;
unicode = 91;
},
{
glyphname = quotedbl;
lastChange = "2023-08-27 17:36:18 +0000";
layers = (
{
layerId = m002;
shapes = (
{
closed = 1;
nodes = (
(384,448,l),
(416,448,ls),
(434,448,o),
(448,464,o),
(448,484,cs),
(448,668,ls),
(448,688,o),
(432,704,o),
(412,704,cs),
(356,704,ls),
(336,704,o),
(320,688,o),
(320,668,cs),
(320,640,l),
(288,640,ls),
(270,640,o),
(256,626,o),
(256,608,cs),
(256,590,o),
(272,576,o),
(292,576,cs),
(320,576,l),
(320,420,ls),
(320,400,o),
(334,384,o),
(352,384,cs),
(370,384,o),
(384,398,o),
(384,416,cs)
);
},
{
closed = 1;
nodes = (
(128,448,l),
(160,448,ls),
(178,448,o),
(192,464,o),
(192,484,cs),
(192,668,ls),
(192,688,o),
(176,704,o),
(156,704,cs),
(100,704,ls),
(80,704,o),
(64,688,o),
(64,668,cs),
(64,640,l),
(32,640,ls),
(14,640,o),
(0,626,o),
(0,608,cs),
(0,590,o),
(16,576,o),
(36,576,cs),
(64,576,l),
(64,420,ls),
(64,400,o),
(78,384,o),
(96,384,cs),
(114,384,o),
(128,398,o),
(128,416,cs)
);
}
);
width = 512;
}
);
note = quotedbl;
unicode = 34;
},
{
glyphname = quotesingle;
lastChange = "2023-08-27 17:36:52 +0000";
layers = (
{
layerId = m002;
shapes = (
{
closed = 1;
nodes = (
(128,435,o),
(142,448,o),
(160,448,cs),
(178,448,o),
(192,464,o),
(192,484,cs),
(192,668,ls),
(192,688,o),
(176,704,o),
(156,704,cs),
(100,704,ls),
(80,704,o),
(64,690,o),
(64,672,cs),
(64,654,o),
(50,640,o),
(32,640,cs),
(14,640,o),
(0,626,o),
(0,608,cs),
(0,590,o),
(14,576,o),
(32,576,cs),
(50,576,o),
(64,560,o),
(64,540,cs),
(64,420,ls),
(64,400,o),
(78,384,o),
(96,384,cs),
(114,384,o),
(128,398,o),
(128,416,cs)
);
}
);
width = 256;
}
);
note = quotesingle;
unicode = 39;
},
{
glyphname = at;
lastChange = "2023-08-27 17:40:46 +0000";
layers = (
{
layerId = m002;
shapes = (
{
closed = 1;
nodes = (
(256,371,o),
(242,384,o),
(224,384,cs),
(206,384,o),
(192,370,o),
(192,352,cs),
(192,334,o),
(206,320,o),
(224,320,cs),
(242,320,o),
(256,334,o),
(256,352,cs)
);
},
{
closed = 1;
nodes = (
(292,-128,ls),
(272,-128,o),
(256,-114,o),
(256,-96,cs),
(256,-78,o),
(242,-64,o),
(224,-64,cs),
(206,-64,o),
(192,-50,o),
(192,-32,cs),
(192,-14,o),
(178,0,o),
(160,0,cs),
(142,0,o),
(128,16,o),
(128,36,cs),
(128,476,ls),
(128,496,o),
(114,512,o),
(96,512,cs),
(78,512,o),
(64,498,o),
(64,480,cs),
(64,462,o),
(50,448,o),
(32,448,cs),
(14,448,o),
(0,432,o),
(0,412,cs),
(0,-28,ls),
(0,-48,o),
(14,-64,o),
(32,-64,cs),
(50,-64,o),
(64,-78,o),
(64,-96,cs),
(64,-114,o),
(78,-128,o),
(96,-128,cs),
(114,-128,o),
(128,-142,o),
(128,-160,cs),
(128,-178,o),
(144,-192,o),
(164,-192,cs),
(604,-192,ls),
(624,-192,o),
(640,-178,o),
(640,-160,cs),
(640,-142,o),
(624,-128,o),
(604,-128,cs)
);
},
{
closed = 1;
nodes = (
(704,-77,o),
(690,-64,o),
(672,-64,cs),
(654,-64,o),
(640,-78,o),
(640,-96,cs),
(640,-114,o),
(654,-128,o),
(672,-128,cs),
(690,-128,o),
(704,-114,o),
(704,-96,cs)
);
},
{
closed = 1;
nodes = (
(768,-13,o),
(754,0,o),
(736,0,cs),
(718,0,o),
(704,-14,o),
(704,-32,cs),
(704,-50,o),
(718,-64,o),
(736,-64,cs),
(754,-64,o),
(768,-50,o),
(768,-32,cs)
);
},
{
closed = 1;
nodes = (
(576,51,o),
(590,64,o),
(608,64,cs),
(626,64,o),
(640,78,o),
(640,96,cs),
(640,114,o),
(626,128,o),
(608,128,cs),
(590,128,o),
(576,144,o),
(576,164,cs),
(576,348,ls),
(576,368,o),
(562,384,o),
(544,384,cs),
(526,384,o),
(512,398,o),
(512,416,cs),
(512,434,o),
(498,448,o),
(480,448,cs),
(462,448,o),
(448,462,o),
(448,480,cs),
(448,498,o),
(432,512,o),
(412,512,cs),
(356,512,ls),
(336,512,o),
(320,498,o),
(320,480,cs),
(320,462,o),
(306,448,o),
(288,448,cs),
(270,448,o),
(256,434,o),
(256,416,cs),
(256,398,o),
(272,384,o),
(292,384,cs),
(412,384,ls),
(432,384,o),
(448,370,o),
(448,352,cs),
(448,334,o),
(432,320,o),
(412,320,cs),
(356,320,ls),
(336,320,o),
(320,306,o),
(320,288,cs),
(320,270,o),
(306,256,o),
(288,256,cs),
(270,256,o),
(256,242,o),
(256,224,cs),
(256,206,o),
(242,192,o),
(224,192,cs),
(206,192,o),
(192,176,o),
(192,156,cs),
(192,100,ls),
(192,80,o),
(206,64,o),
(224,64,cs),
(242,64,o),
(256,50,o),
(256,32,cs),
(256,14,o),
(272,0,o),
(292,0,cs),
(540,0,ls),
(560,0,o),
(576,14,o),
(576,32,cs)
);
},
{
closed = 1;
nodes = (
(320,220,ls),
(320,240,o),
(336,256,o),
(356,256,cs),
(412,256,ls),
(432,256,o),
(448,240,o),
(448,220,cs),
(448,100,ls),
(448,80,o),
(432,64,o),
(412,64,cs),
(356,64,ls),
(336,64,o),
(320,80,o),
(320,100,cs)
);
},
{
closed = 1;
nodes = (
(704,179,o),
(718,192,o),
(736,192,cs),
(754,192,o),
(768,208,o),
(768,228,cs),
(768,476,ls),
(768,496,o),
(754,512,o),
(736,512,cs),
(718,512,o),
(704,526,o),
(704,544,cs),
(704,562,o),
(690,576,o),
(672,576,cs),
(654,576,o),
(640,590,o),
(640,608,cs),
(640,626,o),
(624,640,o),
(604,640,cs),
(228,640,ls),
(208,640,o),
(192,626,o),
(192,608,cs),
(192,590,o),
(178,576,o),
(160,576,cs),
(142,576,o),
(128,562,o),
(128,544,cs),
(128,526,o),
(142,512,o),
(160,512,cs),
(178,512,o),
(192,526,o),
(192,544,cs),
(192,562,o),
(208,576,o),
(228,576,cs),
(476,576,ls),
(496,576,o),
(512,562,o),
(512,544,cs),
(512,526,o),
(526,512,o),
(544,512,cs),
(562,512,o),
(576,498,o),
(576,480,cs),
(576,462,o),
(590,448,o),
(608,448,cs),
(626,448,o),
(640,432,o),
(640,412,cs),
(640,164,ls),
(640,144,o),
(654,128,o),
(672,128,cs),
(690,128,o),
(704,142,o),
(704,160,cs)
);
}
);
width = 832;
}
);
note = at;
unicode = 64;
},
{
glyphname = ampersand;
lastChange = "2023-08-27 17:36:49 +0000";
layers = (
{
layerId = m002;
shapes = (
{
closed = 1;
nodes = (
(512,115,o),
(498,128,o),
(480,128,cs),
(462,128,o),
(448,142,o),
(448,160,cs),
(448,178,o),
(434,192,o),
(416,192,cs),
(398,192,o),
(384,206,o),
(384,224,cs),
(384,242,o),
(370,256,o),
(352,256,cs),
(334,256,o),
(320,272,o),
(320,292,cs),
(320,348,ls),
(320,368,o),
(304,384,o),
(284,384,cs),
(228,384,ls),
(208,384,o),
(192,398,o),
(192,416,cs),
(192,434,o),
(178,448,o),
(160,448,cs),
(142,448,o),
(128,464,o),
(128,484,cs),
(128,604,ls),
(128,624,o),
(144,640,o),
(164,640,cs),
(220,640,ls),
(240,640,o),
(256,626,o),
(256,608,cs),
(256,590,o),
(270,576,o),
(288,576,cs),
(306,576,o),
(320,560,o),
(320,540,cs),
(320,420,ls),
(320,400,o),
(334,384,o),
(352,384,cs),
(370,384,o),
(384,398,o),
(384,416,cs),
(384,434,o),
(398,448,o),
(416,448,cs),
(434,448,o),
(448,464,o),
(448,484,cs),
(448,540,ls),
(448,560,o),
(434,576,o),
(416,576,cs),
(398,576,o),
(384,590,o),
(384,608,cs),
(384,626,o),
(370,640,o),
(352,640,cs),
(334,640,o),
(320,654,o),
(320,672,cs),
(320,690,o),
(304,704,o),
(284,704,cs),
(100,704,ls),
(80,704,o),
(64,690,o),
(64,672,cs),
(64,654,o),
(50,640,o),
(32,640,cs),
(14,640,o),
(0,624,o),
(0,604,cs),
(0,484,ls),
(0,464,o),
(14,448,o),
(32,448,cs),
(50,448,o),
(64,434,o),
(64,416,cs),
(64,398,o),
(78,384,o),
(96,384,cs),
(114,384,o),
(128,370,o),
(128,352,cs),
(128,334,o),
(114,320,o),
(96,320,cs),
(78,320,o),
(64,306,o),
(64,288,cs),
(64,270,o),
(50,256,o),
(32,256,cs),
(14,256,o),
(0,240,o),
(0,220,cs),
(0,100,ls),
(0,80,o),
(14,64,o),
(32,64,cs),
(50,64,o),
(64,50,o),
(64,32,cs),
(64,14,o),
(80,0,o),
(100,0,cs),
(284,0,ls),
(304,0,o),
(320,14,o),
(320,32,cs),
(320,50,o),
(304,64,o),
(284,64,cs),
(164,64,ls),
(144,64,o),
(128,80,o),
(128,100,cs),
(128,220,ls),
(128,240,o),
(144,256,o),
(164,256,cs),
(220,256,ls),
(240,256,o),
(256,242,o),
(256,224,cs),
(256,206,o),
(270,192,o),
(288,192,cs),
(306,192,o),
(320,176,o),
(320,156,cs),
(320,100,ls),
(320,80,o),
(336,64,o),
(356,64,cs),
(412,64,ls),
(432,64,o),
(448,50,o),
(448,32,cs),
(448,14,o),
(464,0,o),
(484,0,cs),
(604,0,ls),
(624,0,o),
(640,14,o),
(640,32,cs),
(640,50,o),
(624,64,o),
(604,64,cs),
(548,64,ls),
(528,64,o),
(512,78,o),
(512,96,cs)
);
},
{
closed = 1;
nodes = (
(704,115,o),
(690,128,o),
(672,128,cs),
(654,128,o),
(640,114,o),
(640,96,cs),
(640,78,o),
(654,64,o),
(672,64,cs),
(690,64,o),
(704,78,o),
(704,96,cs)
);
},
{
closed = 1;
nodes = (
(512,243,o),
(498,256,o),
(480,256,cs),
(462,256,o),
(448,242,o),
(448,224,cs),
(448,206,o),
(462,192,o),
(480,192,cs),
(498,192,o),
(512,206,o),
(512,224,cs)
);
},
{
closed = 1;
nodes = (
(576,307,o),
(590,320,o),
(608,320,cs),
(626,320,o),
(640,334,o),
(640,352,cs),
(640,370,o),
(654,384,o),
(672,384,cs),
(690,384,o),
(704,398,o),
(704,416,cs),
(704,434,o),
(688,448,o),
(668,448,cs),
(548,448,ls),
(528,448,o),
(512,432,o),
(512,412,cs),
(512,292,ls),
(512,272,o),
(526,256,o),
(544,256,cs),
(562,256,o),
(576,270,o),
(576,288,cs)
);
}
);
width = 768;
}
);
note = ampersand;
unicode = 38;
},
{
glyphname = bar;
lastChange = "2023-08-27 17:48:05 +0000";
layers = (
{
layerId = m002;
shapes = (
{
closed = 1;
nodes = (
(192,-141,o),
(206,-128,o),
(224,-128,cs),
(242,-128,o),
(256,-112,o),
(256,-92,cs),
(256,668,ls),
(256,688,o),
(242,704,o),
(224,704,cs),
(206,704,o),
(192,690,o),
(192,672,cs),
(192,654,o),
(178,640,o),
(160,640,cs),
(142,640,o),
(128,624,o),
(128,604,cs),
(128,-156,ls),
(128,-176,o),
(142,-192,o),
(160,-192,cs),
(178,-192,o),
(192,-178,o),
(192,-160,cs)
);
}
);
width = 320;
}
);
note = bar;
unicode = 124;
},
{
glyphname = Euro;
lastChange = "2023-08-27 17:48:29 +0000";
layers = (
{
layerId = m002;
shapes = (
{
closed = 1;
nodes = (
(320,115,o),
(306,128,o),
(288,128,cs),
(270,128,o),
(256,142,o),
(256,160,cs),
(256,178,o),
(242,192,o),
(224,192,cs),
(206,192,o),
(192,206,o),
(192,224,cs),
(192,242,o),
(208,256,o),
(228,256,cs),
(348,256,ls),
(368,256,o),
(384,270,o),
(384,288,cs),
(384,306,o),
(368,320,o),
(348,320,cs),
(228,320,ls),
(208,320,o),
(192,334,o),
(192,352,cs),
(192,370,o),
(208,384,o),
(228,384,cs),
(348,384,ls),
(368,384,o),
(384,398,o),
(384,416,cs),
(384,434,o),
(368,448,o),
(348,448,cs),
(228,448,ls),
(208,448,o),
(192,464,o),
(192,484,cs),
(192,540,ls),
(192,560,o),
(178,576,o),
(160,576,cs),
(142,576,o),
(128,562,o),
(128,544,cs),
(128,526,o),
(114,512,o),
(96,512,cs),
(78,512,o),
(64,498,o),
(64,480,cs),
(64,462,o),
(50,448,o),
(32,448,cs),
(14,448,o),
(0,434,o),
(0,416,cs),
(0,398,o),
(14,384,o),
(32,384,cs),
(50,384,o),
(64,370,o),
(64,352,cs),
(64,334,o),
(50,320,o),
(32,320,cs),
(14,320,o),
(0,306,o),
(0,288,cs),
(0,270,o),
(14,256,o),
(32,256,cs),
(50,256,o),
(64,240,o),
(64,220,cs),
(64,164,ls),
(64,144,o),
(78,128,o),
(96,128,cs),
(114,128,o),
(128,114,o),
(128,96,cs),
(128,78,o),
(142,64,o),
(160,64,cs),
(178,64,o),
(192,50,o),
(192,32,cs),
(192,14,o),
(208,0,o),
(228,0,cs),
(412,0,ls),
(432,0,o),
(448,14,o),
(448,32,cs),
(448,50,o),
(432,64,o),
(412,64,cs),
(356,64,ls),
(336,64,o),
(320,78,o),
(320,96,cs)
);
},
{
closed = 1;
nodes = (
(512,115,o),
(498,128,o),
(480,128,cs),
(462,128,o),
(448,114,o),
(448,96,cs),
(448,78,o),
(462,64,o),
(480,64,cs),
(498,64,o),
(512,78,o),
(512,96,cs)
);
},
{
closed = 1;
nodes = (
(576,179,o),
(562,192,o),
(544,192,cs),
(526,192,o),
(512,178,o),
(512,160,cs),
(512,142,o),
(526,128,o),
(544,128,cs),
(562,128,o),
(576,142,o),
(576,160,cs)
);
},
{
closed = 1;
nodes = (
(576,668,ls),
(576,688,o),
(562,704,o),
(544,704,cs),
(526,704,o),
(512,690,o),
(512,672,cs),
(512,654,o),
(498,640,o),
(480,640,cs),
(462,640,o),
(448,654,o),
(448,672,cs),
(448,690,o),
(432,704,o),
(412,704,cs),
(292,704,ls),
(272,704,o),
(256,690,o),
(256,672,cs),
(256,654,o),
(242,640,o),
(224,640,cs),
(206,640,o),
(192,626,o),
(192,608,cs),
(192,590,o),
(206,576,o),
(224,576,cs),
(242,576,o),
(256,590,o),
(256,608,cs),
(256,626,o),
(270,640,o),
(288,640,cs),
(306,640,o),
(320,626,o),
(320,608,cs),
(320,590,o),
(334,576,o),
(352,576,cs),
(370,576,o),
(384,562,o),
(384,544,cs),
(384,526,o),
(400,512,o),
(420,512,cs),
(540,512,ls),
(560,512,o),
(576,528,o),
(576,548,cs)
);
}
);
width = 640;
}
);
note = Euro;
unicode = 8364;
},
{
glyphname = cent;
lastChange = "2023-08-27 17:48:19 +0000";
layers = (
{
layerId = m002;
shapes = (
{
closed = 1;
nodes = (
(192,-36,ls),
(192,-16,o),
(208,0,o),
(228,0,cs),
(348,0,ls),
(368,0,o),
(384,14,o),
(384,32,cs),
(384,50,o),
(368,64,o),
(348,64,cs),
(292,64,ls),
(272,64,o),
(256,78,o),
(256,96,cs),
(256,114,o),
(242,128,o),
(224,128,cs),
(206,128,o),
(192,142,o),
(192,160,cs),
(192,178,o),
(178,192,o),
(160,192,cs),
(142,192,o),
(128,208,o),
(128,228,cs),
(128,412,ls),
(128,432,o),
(114,448,o),
(96,448,cs),
(78,448,o),
(64,434,o),
(64,416,cs),
(64,398,o),
(50,384,o),
(32,384,cs),
(14,384,o),
(0,368,o),
(0,348,cs),
(0,164,ls),
(0,144,o),
(14,128,o),
(32,128,cs),
(50,128,o),
(64,114,o),
(64,96,cs),
(64,78,o),
(78,64,o),
(96,64,cs),
(114,64,o),
(128,48,o),
(128,28,cs),
(128,-92,ls),
(128,-112,o),
(142,-128,o),
(160,-128,cs),
(178,-128,o),
(192,-112,o),
(192,-92,cs)
);
},
{
closed = 1;
nodes = (
(448,115,o),
(434,128,o),
(416,128,cs),
(398,128,o),
(384,114,o),
(384,96,cs),
(384,78,o),
(398,64,o),
(416,64,cs),
(434,64,o),
(448,78,o),
(448,96,cs)
);
},
{
closed = 1;
nodes = (
(256,348,ls),
(256,368,o),
(242,384,o),
(224,384,cs),
(206,384,o),
(192,368,o),
(192,348,cs),
(192,228,ls),
(192,208,o),
(206,192,o),
(224,192,cs),
(242,192,o),
(256,208,o),
(256,228,cs)
);
},
{
closed = 1;
nodes = (
(448,476,ls),
(448,496,o),
(434,512,o),
(416,512,cs),
(398,512,o),
(384,498,o),
(384,480,cs),
(384,462,o),
(370,448,o),
(352,448,cs),
(334,448,o),
(320,464,o),
(320,484,cs),
(320,604,ls),
(320,624,o),
(306,640,o),
(288,640,cs),
(270,640,o),
(256,624,o),
(256,604,cs),
(256,548,ls),
(256,528,o),
(240,512,o),
(220,512,cs),
(164,512,ls),
(144,512,o),
(128,498,o),
(128,480,cs),
(128,462,o),
(144,448,o),
(164,448,cs),
(220,448,ls),
(240,448,o),
(256,434,o),
(256,416,cs),
(256,398,o),
(270,384,o),
(288,384,cs),
(306,384,o),
(320,370,o),
(320,352,cs),
(320,334,o),
(336,320,o),
(356,320,cs),
(412,320,ls),
(432,320,o),
(448,336,o),
(448,356,cs)
);
}
);
width = 512;
}
);
note = cent;
unicode = 162;
},
{
glyphname = dollar;
lastChange = "2023-08-27 17:36:36 +0000";
layers = (
{
layerId = m002;
shapes = (
{
closed = 1;
nodes = (
(256,-36,ls),
(256,-16,o),
(272,0,o),
(292,0,cs),
(348,0,ls),
(368,0,o),
(384,14,o),
(384,32,cs),
(384,50,o),
(368,64,o),
(348,64,cs),
(292,64,ls),
(272,64,o),
(256,80,o),
(256,100,cs),
(256,284,ls),
(256,304,o),
(270,320,o),
(288,320,cs),
(306,320,o),
(320,306,o),
(320,288,cs),
(320,270,o),
(334,256,o),
(352,256,cs),
(370,256,o),
(384,240,o),
(384,220,cs),
(384,100,ls),
(384,80,o),
(398,64,o),
(416,64,cs),
(434,64,o),
(448,78,o),
(448,96,cs),
(448,114,o),
(462,128,o),
(480,128,cs),
(498,128,o),
(512,144,o),
(512,164,cs),
(512,284,ls),
(512,304,o),
(498,320,o),
(480,320,cs),
(462,320,o),
(448,334,o),
(448,352,cs),
(448,370,o),
(434,384,o),
(416,384,cs),
(398,384,o),
(384,398,o),
(384,416,cs),
(384,434,o),
(370,448,o),
(352,448,cs),
(334,448,o),
(320,464,o),
(320,484,cs),
(320,540,ls),
(320,560,o),
(334,576,o),
(352,576,cs),
(370,576,o),
(384,562,o),
(384,544,cs),
(384,526,o),
(400,512,o),
(420,512,cs),
(476,512,ls),
(496,512,o),
(512,528,o),
(512,548,cs),
(512,604,ls),
(512,624,o),
(498,640,o),
(480,640,cs),
(462,640,o),
(448,654,o),
(448,672,cs),
(448,690,o),
(432,704,o),
(412,704,cs),
(356,704,ls),
(336,704,o),
(320,718,o),
(320,736,cs),
(320,754,o),
(306,768,o),
(288,768,cs),
(270,768,o),
(256,754,o),
(256,736,cs),
(256,718,o),
(240,704,o),
(220,704,cs),
(164,704,ls),
(144,704,o),
(128,690,o),
(128,672,cs),
(128,654,o),
(114,640,o),
(96,640,cs),
(78,640,o),
(64,626,o),
(64,608,cs),
(64,590,o),
(50,576,o),
(32,576,cs),
(14,576,o),
(0,560,o),
(0,540,cs),
(0,420,ls),
(0,400,o),
(14,384,o),
(32,384,cs),
(50,384,o),
(64,370,o),
(64,352,cs),
(64,334,o),
(80,320,o),
(100,320,cs),
(156,320,ls),
(176,320,o),
(192,304,o),
(192,284,cs),
(192,164,ls),
(192,144,o),
(178,128,o),
(160,128,cs),
(142,128,o),
(128,142,o),
(128,160,cs),
(128,178,o),
(112,192,o),
(92,192,cs),
(36,192,ls),
(16,192,o),
(0,176,o),
(0,156,cs),
(0,100,ls),
(0,80,o),
(14,64,o),
(32,64,cs),
(50,64,o),
(64,50,o),
(64,32,cs),
(64,14,o),
(80,0,o),
(100,0,cs),
(156,0,ls),
(176,0,o),
(192,-16,o),
(192,-36,cs),
(192,-92,ls),
(192,-112,o),
(206,-128,o),
(224,-128,cs),
(242,-128,o),
(256,-112,o),
(256,-92,cs)
);
},
{
closed = 1;
nodes = (
(128,604,ls),
(128,624,o),
(144,640,o),
(164,640,cs),
(220,640,ls),
(240,640,o),
(256,624,o),
(256,604,cs),
(256,484,ls),
(256,464,o),
(240,448,o),
(220,448,cs),
(164,448,ls),
(144,448,o),
(128,464,o),
(128,484,cs)
);
}
);
width = 576;
}
);
note = dollar;
unicode = 36;
},
{
glyphname = sterling;
lastChange = "2023-08-27 17:48:24 +0000";
layers = (
{
layerId = m002;
shapes = (
{
closed = 1;
nodes = (
(256,13,o),
(272,0,o),
(292,0,cs),
(348,0,ls),
(368,0,o),
(384,14,o),
(384,32,cs),
(384,50,o),
(368,64,o),
(348,64,cs),
(292,64,ls),
(272,64,o),
(256,50,o),
(256,32,cs)
);
},
{
closed = 1;
nodes = (
(128,51,o),
(144,64,o),
(164,64,cs),
(220,64,ls),
(240,64,o),
(256,78,o),
(256,96,cs),
(256,114,o),
(242,128,o),
(224,128,cs),
(206,128,o),
(192,144,o),
(192,164,cs),
(192,220,ls),
(192,240,o),
(208,256,o),
(228,256,cs),
(284,256,ls),
(304,256,o),
(320,270,o),
(320,288,cs),
(320,306,o),
(304,320,o),
(284,320,cs),
(228,320,ls),
(208,320,o),
(192,334,o),
(192,352,cs),
(192,370,o),
(178,384,o),
(160,384,cs),
(142,384,o),
(128,400,o),
(128,420,cs),
(128,540,ls),
(128,560,o),
(144,576,o),
(164,576,cs),
(220,576,ls),
(240,576,o),
(256,562,o),
(256,544,cs),
(256,526,o),
(270,512,o),
(288,512,cs),
(306,512,o),
(320,498,o),
(320,480,cs),
(320,462,o),
(336,448,o),
(356,448,cs),
(412,448,ls),
(432,448,o),
(448,464,o),
(448,484,cs),
(448,604,ls),
(448,624,o),
(434,640,o),
(416,640,cs),
(398,640,o),
(384,626,o),
(384,608,cs),
(384,590,o),
(370,576,o),
(352,576,cs),
(334,576,o),
(320,590,o),
(320,608,cs),
(320,626,o),
(304,640,o),
(284,640,cs),
(100,640,ls),
(80,640,o),
(64,626,o),
(64,608,cs),
(64,590,o),
(50,576,o),
(32,576,cs),
(14,576,o),
(0,560,o),
(0,540,cs),
(0,420,ls),
(0,400,o),
(14,384,o),
(32,384,cs),
(50,384,o),
(64,370,o),
(64,352,cs),
(64,334,o),
(50,320,o),
(32,320,cs),
(14,320,o),
(0,306,o),
(0,288,cs),
(0,270,o),
(14,256,o),
(32,256,cs),
(50,256,o),
(64,240,o),
(64,220,cs),
(64,164,ls),
(64,144,o),
(50,128,o),
(32,128,cs),
(14,128,o),
(0,112,o),
(0,92,cs),
(0,36,ls),
(0,16,o),
(16,0,o),
(36,0,cs),
(92,0,ls),
(112,0,o),
(128,14,o),
(128,32,cs)
);
},
{
closed = 1;
nodes = (
(448,115,o),
(434,128,o),
(416,128,cs),
(398,128,o),
(384,114,o),
(384,96,cs),
(384,78,o),
(398,64,o),
(416,64,cs),
(434,64,o),
(448,78,o),
(448,96,cs)
);
}
);
width = 512;
}
);
note = sterling;
unicode = 163;
},
{
glyphname = yen;
lastChange = "2023-08-27 17:48:26 +0000";
layers = (
{
layerId = m002;
shapes = (
{
closed = 1;
nodes = (
(384,92,ls),
(384,112,o),
(400,128,o),
(420,128,cs),
(476,128,ls),
(496,128,o),
(512,142,o),
(512,160,cs),
(512,178,o),
(496,192,o),
(476,192,cs),
(420,192,ls),
(400,192,o),
(384,206,o),
(384,224,cs),
(384,242,o),
(400,256,o),
(420,256,cs),
(540,256,ls),
(560,256,o),
(576,270,o),
(576,288,cs),
(576,306,o),
(560,320,o),
(540,320,cs),
(484,320,ls),
(464,320,o),
(448,334,o),
(448,352,cs),
(448,370,o),
(434,384,o),
(416,384,cs),
(398,384,o),
(384,370,o),
(384,352,cs),
(384,334,o),
(370,320,o),
(352,320,cs),
(334,320,o),
(320,334,o),
(320,352,cs),
(320,370,o),
(306,384,o),
(288,384,cs),
(270,384,o),
(256,398,o),
(256,416,cs),
(256,434,o),
(242,448,o),
(224,448,cs),
(206,448,o),
(192,464,o),
(192,484,cs),
(192,668,ls),
(192,688,o),
(178,704,o),
(160,704,cs),
(142,704,o),
(128,690,o),
(128,672,cs),
(128,654,o),
(114,640,o),
(96,640,cs),
(78,640,o),
(64,626,o),
(64,608,cs),
(64,590,o),
(50,576,o),
(32,576,cs),
(14,576,o),
(0,562,o),
(0,544,cs),
(0,526,o),
(14,512,o),
(32,512,cs),
(50,512,o),
(64,496,o),
(64,476,cs),
(64,420,ls),
(64,400,o),
(78,384,o),
(96,384,cs),
(114,384,o),
(128,370,o),
(128,352,cs),
(128,334,o),
(114,320,o),
(96,320,cs),
(78,320,o),
(64,306,o),
(64,288,cs),
(64,270,o),
(80,256,o),
(100,256,cs),
(220,256,ls),
(240,256,o),
(256,242,o),
(256,224,cs),
(256,206,o),
(240,192,o),
(220,192,cs),
(164,192,ls),
(144,192,o),
(128,178,o),
(128,160,cs),
(128,142,o),
(144,128,o),
(164,128,cs),
(220,128,ls),
(240,128,o),
(256,112,o),
(256,92,cs),
(256,36,ls),
(256,16,o),
(272,0,o),
(292,0,cs),
(348,0,ls),
(368,0,o),
(384,16,o),
(384,36,cs)
);
},
{
closed = 1;
nodes = (
(512,435,o),
(526,448,o),
(544,448,cs),
(562,448,o),
(576,464,o),
(576,484,cs),
(576,668,ls),
(576,688,o),
(562,704,o),
(544,704,cs),
(526,704,o),
(512,690,o),
(512,672,cs),
(512,654,o),
(498,640,o),
(480,640,cs),
(462,640,o),
(448,624,o),
(448,604,cs),
(448,420,ls),
(448,400,o),
(462,384,o),
(480,384,cs),
(498,384,o),
(512,398,o),
(512,416,cs)
);
}
);
width = 640;
}
);
note = yen;
unicode = 165;
},
{
glyphname = plus;
lastChange = "2023-08-27 17:37:23 +0000";
layers = (
{
layerId = m002;
shapes = (
{
closed = 1;
nodes = (
(384,51,o),
(398,64,o),
(416,64,cs),
(434,64,o),
(448,78,o),
(448,96,cs),
(448,114,o),
(434,128,o),
(416,128,cs),
(398,128,o),
(384,144,o),
(384,164,cs),
(384,220,ls),
(384,240,o),
(400,256,o),
(420,256,cs),
(604,256,ls),
(624,256,o),
(640,270,o),
(640,288,cs),
(640,306,o),
(624,320,o),
(604,320,cs),
(420,320,ls),
(400,320,o),
(384,336,o),
(384,356,cs),
(384,604,ls),
(384,624,o),
(370,640,o),
(352,640,cs),
(334,640,o),
(320,626,o),
(320,608,cs),
(320,590,o),
(306,576,o),
(288,576,cs),
(270,576,o),
(256,562,o),
(256,544,cs),
(256,526,o),
(242,512,o),
(224,512,cs),
(206,512,o),
(192,498,o),
(192,480,cs),
(192,462,o),
(206,448,o),
(224,448,cs),
(242,448,o),
(256,432,o),
(256,412,cs),
(256,356,ls),
(256,336,o),
(240,320,o),
(220,320,cs),
(36,320,ls),
(16,320,o),
(0,306,o),
(0,288,cs),
(0,270,o),
(16,256,o),
(36,256,cs),
(220,256,ls),
(240,256,o),
(256,240,o),
(256,220,cs),
(256,36,ls),
(256,16,o),
(272,0,o),
(292,0,cs),
(348,0,ls),
(368,0,o),
(384,14,o),
(384,32,cs)
);
}
);
width = 704;
}
);
note = plus;
unicode = 43;
},
{
glyphname = equal;
lastChange = "2023-08-27 17:40:02 +0000";
layers = (
{
layerId = m002;
shapes = (
{
closed = 1;
nodes = (
(100,192,ls),
(80,192,o),
(64,178,o),
(64,160,cs),
(64,142,o),
(80,128,o),
(100,128,cs),
(476,128,ls),
(496,128,o),
(512,142,o),
(512,160,cs),
(512,178,o),
(496,192,o),
(476,192,cs)
);
},
{
closed = 1;
nodes = (
(100,384,ls),
(80,384,o),
(64,370,o),
(64,352,cs),
(64,334,o),
(80,320,o),
(100,320,cs),
(476,320,ls),
(496,320,o),
(512,334,o),
(512,352,cs),
(512,370,o),
(496,384,o),
(476,384,cs)
);
}
);
width = 576;
}
);
note = equal;
unicode = 61;
},
{
glyphname = less;
lastChange = "2023-08-27 17:39:55 +0000";
layers = (
{
layerId = m002;
shapes = (
{
closed = 1;
nodes = (
(320,51,o),
(306,64,o),
(288,64,cs),
(270,64,o),
(256,78,o),
(256,96,cs),
(256,114,o),
(242,128,o),
(224,128,cs),
(206,128,o),
(192,142,o),
(192,160,cs),
(192,178,o),
(178,192,o),
(160,192,cs),
(142,192,o),
(128,206,o),
(128,224,cs),
(128,242,o),
(114,256,o),
(96,256,cs),
(78,256,o),
(64,270,o),
(64,288,cs),
(64,306,o),
(78,320,o),
(96,320,cs),
(114,320,o),
(128,334,o),
(128,352,cs),
(128,370,o),
(142,384,o),
(160,384,cs),
(178,384,o),
(192,398,o),
(192,416,cs),
(192,434,o),
(206,448,o),
(224,448,cs),
(242,448,o),
(256,462,o),
(256,480,cs),
(256,498,o),
(270,512,o),
(288,512,cs),
(306,512,o),
(320,526,o),
(320,544,cs),
(320,562,o),
(304,576,o),
(284,576,cs),
(228,576,ls),
(208,576,o),
(192,562,o),
(192,544,cs),
(192,526,o),
(178,512,o),
(160,512,cs),
(142,512,o),
(128,498,o),
(128,480,cs),
(128,462,o),
(114,448,o),
(96,448,cs),
(78,448,o),
(64,434,o),
(64,416,cs),
(64,398,o),
(50,384,o),
(32,384,cs),
(14,384,o),
(0,368,o),
(0,348,cs),
(0,228,ls),
(0,208,o),
(14,192,o),
(32,192,cs),
(50,192,o),
(64,178,o),
(64,160,cs),
(64,142,o),
(78,128,o),
(96,128,cs),
(114,128,o),
(128,114,o),
(128,96,cs),
(128,78,o),
(142,64,o),
(160,64,cs),
(178,64,o),
(192,50,o),
(192,32,cs),
(192,14,o),
(208,0,o),
(228,0,cs),
(284,0,ls),
(304,0,o),
(320,14,o),
(320,32,cs)
);
}
);
width = 384;
}
);
note = less;
unicode = 60;
},
{
glyphname = percent;
lastChange = "2023-08-27 17:36:40 +0000";
layers = (
{
layerId = m002;
shapes = (
{
closed = 1;
nodes = (
(128,51,o),
(114,64,o),
(96,64,cs),
(78,64,o),
(64,50,o),
(64,32,cs),
(64,14,o),
(78,0,o),
(96,0,cs),
(114,0,o),
(128,14,o),
(128,32,cs)
);
},
{
closed = 1;
nodes = (
(640,-13,o),
(626,0,o),
(608,0,cs),
(590,0,o),
(576,14,o),
(576,32,cs),
(576,50,o),
(562,64,o),
(544,64,cs),
(526,64,o),
(512,80,o),
(512,100,cs),
(512,220,ls),
(512,240,o),
(498,256,o),
(480,256,cs),
(462,256,o),
(448,242,o),
(448,224,cs),
(448,206,o),
(434,192,o),
(416,192,cs),
(398,192,o),
(384,176,o),
(384,156,cs),
(384,100,ls),
(384,80,o),
(398,64,o),
(416,64,cs),
(434,64,o),
(448,50,o),
(448,32,cs),
(448,14,o),
(462,0,o),
(480,0,cs),
(498,0,o),
(512,-14,o),
(512,-32,cs),
(512,-50,o),
(528,-64,o),
(548,-64,cs),
(604,-64,ls),
(624,-64,o),
(640,-50,o),
(640,-32,cs)
);
},
{
closed = 1;
nodes = (
(704,51,o),
(718,64,o),
(736,64,cs),
(754,64,o),
(768,80,o),
(768,100,cs),
(768,156,ls),
(768,176,o),
(754,192,o),
(736,192,cs),
(718,192,o),
(704,206,o),
(704,224,cs),
(704,242,o),
(690,256,o),
(672,256,cs),
(654,256,o),
(640,270,o),
(640,288,cs),
(640,306,o),
(624,320,o),
(604,320,cs),
(548,320,ls),
(528,320,o),
(512,306,o),
(512,288,cs),
(512,270,o),
(526,256,o),
(544,256,cs),
(562,256,o),
(576,242,o),
(576,224,cs),
(576,206,o),
(590,192,o),
(608,192,cs),
(626,192,o),
(640,176,o),
(640,156,cs),
(640,36,ls),
(640,16,o),
(654,0,o),
(672,0,cs),
(690,0,o),
(704,14,o),
(704,32,cs)
);
},
{
closed = 1;
nodes = (
(192,115,o),
(178,128,o),
(160,128,cs),
(142,128,o),
(128,114,o),
(128,96,cs),
(128,78,o),
(142,64,o),
(160,64,cs),
(178,64,o),
(192,78,o),
(192,96,cs)
);
},
{
closed = 1;
nodes = (
(256,179,o),
(242,192,o),
(224,192,cs),
(206,192,o),
(192,178,o),
(192,160,cs),
(192,142,o),
(206,128,o),
(224,128,cs),
(242,128,o),
(256,142,o),
(256,160,cs)
);
},
{
closed = 1;
nodes = (
(320,243,o),
(306,256,o),
(288,256,cs),
(270,256,o),
(256,242,o),
(256,224,cs),
(256,206,o),
(270,192,o),
(288,192,cs),
(306,192,o),
(320,206,o),
(320,224,cs)
);
},
{
closed = 1;
nodes = (
(384,307,o),
(370,320,o),
(352,320,cs),
(334,320,o),
(320,306,o),
(320,288,cs),
(320,270,o),
(334,256,o),
(352,256,cs),
(370,256,o),
(384,270,o),
(384,288,cs)
);
},
{
closed = 1;
nodes = (
(448,371,o),
(434,384,o),
(416,384,cs),
(398,384,o),
(384,370,o),
(384,352,cs),
(384,334,o),
(398,320,o),
(416,320,cs),
(434,320,o),
(448,334,o),
(448,352,cs)
);
},
{
closed = 1;
nodes = (
(256,371,o),
(242,384,o),
(224,384,cs),
(206,384,o),
(192,398,o),
(192,416,cs),
(192,434,o),
(178,448,o),
(160,448,cs),
(142,448,o),
(128,464,o),
(128,484,cs),
(128,604,ls),
(128,624,o),
(114,640,o),
(96,640,cs),
(78,640,o),
(64,626,o),
(64,608,cs),
(64,590,o),
(50,576,o),
(32,576,cs),
(14,576,o),
(0,560,o),
(0,540,cs),
(0,484,ls),
(0,464,o),
(14,448,o),
(32,448,cs),
(50,448,o),
(64,434,o),
(64,416,cs),
(64,398,o),
(78,384,o),
(96,384,cs),
(114,384,o),
(128,370,o),
(128,352,cs),
(128,334,o),
(144,320,o),
(164,320,cs),
(220,320,ls),
(240,320,o),
(256,334,o),
(256,352,cs)
);
},
{
closed = 1;
nodes = (
(512,435,o),
(498,448,o),
(480,448,cs),
(462,448,o),
(448,434,o),
(448,416,cs),
(448,398,o),
(462,384,o),
(480,384,cs),
(498,384,o),
(512,398,o),
(512,416,cs)
);
},
{
closed = 1;
nodes = (
(320,435,o),
(334,448,o),
(352,448,cs),
(370,448,o),
(384,464,o),
(384,484,cs),
(384,540,ls),
(384,560,o),
(370,576,o),
(352,576,cs),
(334,576,o),
(320,590,o),
(320,608,cs),
(320,626,o),
(306,640,o),
(288,640,cs),
(270,640,o),
(256,654,o),
(256,672,cs),
(256,690,o),
(240,704,o),
(220,704,cs),
(164,704,ls),
(144,704,o),
(128,690,o),
(128,672,cs),
(128,654,o),
(142,640,o),
(160,640,cs),
(178,640,o),
(192,626,o),
(192,608,cs),
(192,590,o),
(206,576,o),
(224,576,cs),
(242,576,o),
(256,560,o),
(256,540,cs),
(256,420,ls),
(256,400,o),
(270,384,o),
(288,384,cs),
(306,384,o),
(320,398,o),
(320,416,cs)
);
},
{
closed = 1;
nodes = (
(576,499,o),
(562,512,o),
(544,512,cs),
(526,512,o),
(512,498,o),
(512,480,cs),
(512,462,o),
(526,448,o),
(544,448,cs),
(562,448,o),
(576,462,o),
(576,480,cs)
);
},
{
closed = 1;
nodes = (
(640,563,o),
(626,576,o),
(608,576,cs),
(590,576,o),
(576,562,o),
(576,544,cs),
(576,526,o),
(590,512,o),
(608,512,cs),
(626,512,o),
(640,526,o),
(640,544,cs)
);
},
{
closed = 1;
nodes = (
(704,627,o),
(690,640,o),
(672,640,cs),
(654,640,o),
(640,626,o),
(640,608,cs),
(640,590,o),
(654,576,o),
(672,576,cs),
(690,576,o),
(704,590,o),
(704,608,cs)
);
}
);
width = 832;
}
);
note = percent;
unicode = 37;
},
{
glyphname = upArrow;
lastChange = "2023-08-28 11:14:55 +0000";
layers = (
{
layerId = m002;
shapes = (
{
angle = 90;
pos = (576,704);
ref = less;
scale = (-1,1);
},
{
closed = 1;
nodes = (
(256,36,ls),
(256,16,o),
(270,0,o),
(288,0,cs),
(306,0,o),
(320,16,o),
(320,36,cs),
(320,624,ls),
(320,644,o),
(306,660,o),
(288,660,cs),
(270,660,o),
(256,644,o),
(256,624,cs)
);
}
);
width = 640;
}
);
unicode = 8593;
},
{
glyphname = northEastArrow;
lastChange = "2023-08-28 11:20:58 +0000";
layers = (
{
layerId = m002;
shapes = (
{
angle = -130;
pos = (776,471);
ref = less;
scale = (1,-1);
},
{
closed = 1;
nodes = (
(9,55,ls),
(-3,40,o),
(-3,19,o),
(11,7,cs),
(25,-4,o),
(46,-1,o),
(58,14,cs),
(528,574,ls),
(542,590,o),
(541,610,o),
(527,622,cs),
(513,634,o),
(493,631,o),
(479,615,cs)
);
}
);
width = 703;
}
);
unicode = 8599;
},
{
glyphname = rightArrow;
lastChange = "2023-08-28 11:17:17 +0000";
layers = (
{
layerId = m002;
shapes = (
{
pos = (640,64);
ref = less;
scale = (-1,1);
},
{
closed = 1;
nodes = (
(36,384,ls),
(16,384,o),
(0,370,o),
(0,352,cs),
(0,334,o),
(16,320,o),
(36,320,cs),
(560,320,ls),
(580,320,o),
(596,334,o),
(596,352,cs),
(596,370,o),
(580,384,o),
(560,384,cs)
);
}
);
width = 640;
}
);
unicode = 8594;
},
{
glyphname = southEastArrow;
lastChange = "2023-08-28 11:21:19 +0000";
layers = (
{
layerId = m002;
shapes = (
{
angle = 130;
pos = (776,233);
ref = less;
},
{
closed = 1;
nodes = (
(493,73,o),
(513,70,o),
(527,82,cs),
(541,94,o),
(542,114,o),
(528,130,cs),
(58,690,ls),
(46,705,o),
(25,708,o),
(11,697,cs),
(-3,685,o),
(-3,664,o),
(9,649,cs),
(479,89,ls)
);
}
);
width = 703;
}
);
unicode = 8600;
},
{
glyphname = downArrow;
lastChange = "2023-08-28 11:15:07 +0000";
layers = (
{
layerId = m002;
shapes = (
{
angle = 90;
pos = (576,0);
ref = less;
},
{
closed = 1;
nodes = (
(256,60,o),
(270,44,o),
(288,44,cs),
(306,44,o),
(320,60,o),
(320,80,cs),
(320,668,ls),
(320,688,o),
(306,704,o),
(288,704,cs),
(270,704,o),
(256,688,o),
(256,668,cs),
(256,80,ls)
);
}
);
width = 640;
}
);
unicode = 8595;
},
{
glyphname = southWestArrow;
lastChange = "2023-08-28 11:21:25 +0000";
layers = (
{
layerId = m002;
shapes = (
{
angle = 50;
pos = (-137,233);
ref = less;
scale = (1,-1);
},
{
closed = 1;
nodes = (
(630,649,ls),
(642,664,o),
(642,685,o),
(628,697,cs),
(614,708,o),
(593,705,o),
(581,690,cs),
(111,130,ls),
(97,114,o),
(98,94,o),
(112,82,cs),
(126,70,o),
(146,73,o),
(160,89,cs)
);
}
);
width = 703;
}
);
unicode = 8601;
},
{
glyphname = leftArrow;
lastChange = "2023-08-28 11:17:37 +0000";
layers = (
{
layerId = m002;
shapes = (
{
pos = (640,64);
ref = less;
scale = (-1,1);
},
{
closed = 1;
nodes = (
(36,384,ls),
(16,384,o),
(0,370,o),
(0,352,cs),
(0,334,o),
(16,320,o),
(36,320,cs),
(560,320,ls),
(580,320,o),
(596,334,o),
(596,352,cs),
(596,370,o),
(580,384,o),
(560,384,cs)
);
}
);
width = 704;
}
);
unicode = 8592;
},
{
glyphname = northWestArrow;
lastChange = "2023-08-28 11:21:31 +0000";
layers = (
{
layerId = m002;
shapes = (
{
angle = -50;
pos = (-137,471);
ref = less;
},
{
closed = 1;
nodes = (
(146,631,o),
(126,634,o),
(112,622,cs),
(98,610,o),
(97,590,o),
(111,574,cs),
(581,14,ls),
(593,-1,o),
(614,-4,o),
(628,7,cs),
(642,19,o),
(642,40,o),
(630,55,cs),
(160,615,ls)
);
}
);
width = 703;
}
);
unicode = 8598;
},
{
glyphname = leftRightArrow;
lastChange = "2023-08-28 11:18:40 +0000";
layers = (
{
layerId = m002;
shapes = (
{
angle = 180;
pos = (704,640);
ref = less;
},
{
closed = 1;
nodes = (
(644,320,o),
(660,334,o),
(660,352,cs),
(660,370,o),
(644,384,o),
(624,384,cs),
(36,384,ls),
(16,384,o),
(0,370,o),
(0,352,cs),
(0,334,o),
(16,320,o),
(36,320,cs),
(624,320,ls)
);
},
{
pos = (0,640);
ref = less;
scale = (1,-1);
}
);
width = 768;
}
);
unicode = 8596;
},
{
glyphname = upDownArrow;
lastChange = "2023-08-28 11:15:46 +0000";
layers = (
{
layerId = m002;
shapes = (
{
angle = 90;
pos = (576,0);
ref = less;
},
{
closed = 1;
nodes = (
(256,60,o),
(270,44,o),
(288,44,cs),
(306,44,o),
(320,60,o),
(320,80,cs),
(320,668,ls),
(320,688,o),
(306,704,o),
(288,704,cs),
(270,704,o),
(256,688,o),
(256,668,cs),
(256,80,ls)
);
},
{
angle = 90;
pos = (576,704);
ref = less;
scale = (-1,1);
}
);
width = 640;
}
);
unicode = 8597;
},
{
glyphname = dieresiscomb;
lastChange = "2023-08-30 17:55:40 +0000";
layers = (
{
anchors = (
{
name = _top;
pos = (102,512);
},
{
name = top;
pos = (102,647);
}
);
layerId = m002;
shapes = (
{
closed = 1;
nodes = (
(204,634,o),
(190,647,o),
(172,647,cs),
(154,647,o),
(140,633,o),
(140,615,cs),
(140,597,o),
(154,583,o),
(172,583,cs),
(190,583,o),
(204,597,o),
(204,615,cs)
);
},
{
closed = 1;
nodes = (
(64,634,o),
(50,647,o),
(32,647,cs),
(14,647,o),
(0,633,o),
(0,615,cs),
(0,597,o),
(14,583,o),
(32,583,cs),
(50,583,o),
(64,597,o),
(64,615,cs)
);
}
);
width = 204;
}
);
unicode = 776;
},
{
glyphname = gravecomb;
lastChange = "2023-11-28 13:26:59 +0000";
layers = (
{
anchors = (
{
name = _top;
pos = (64,512);
},
{
name = top;
pos = (74,688);
}
);
layerId = m002;
shapes = (
{
closed = 1;
nodes = (
(64,675,o),
(50,688,o),
(32,688,cs),
(14,688,o),
(0,674,o),
(0,656,cs),
(0,638,o),
(14,624,o),
(32,624,cs),
(50,624,o),
(64,638,o),
(64,656,cs)
);
},
{
closed = 1;
nodes = (
(147,595,o),
(133,608,o),
(115,608,cs),
(97,608,o),
(83,594,o),
(83,576,cs),
(83,558,o),
(97,544,o),
(115,544,cs),
(133,544,o),
(147,558,o),
(147,576,cs)
);
}
);
width = 147;
}
);
unicode = 768;
},
{
glyphname = acutecomb;
lastChange = "2023-08-30 17:55:59 +0000";
layers = (
{
anchors = (
{
name = _top;
pos = (64,512);
},
{
name = top;
pos = (64,712);
}
);
layerId = m002;
shapes = (
{
closed = 1;
nodes = (
(64,635,o),
(50,648,o),
(32,648,cs),
(14,648,o),
(0,634,o),
(0,616,cs),
(0,598,o),
(14,584,o),
(32,584,cs),
(50,584,o),
(64,598,o),
(64,616,cs)
);
},
{
closed = 1;
nodes = (
(128,699,o),
(114,712,o),
(96,712,cs),
(78,712,o),
(64,698,o),
(64,680,cs),
(64,662,o),
(78,648,o),
(96,648,cs),
(114,648,o),
(128,662,o),
(128,680,cs)
);
}
);
width = 128;
}
);
unicode = 769;
},
{
glyphname = circumflexcomb;
lastChange = "2023-08-30 17:56:08 +0000";
layers = (
{
anchors = (
{
name = _top;
pos = (129,512);
},
{
name = top;
pos = (129,716);
}
);
layerId = m002;
shapes = (
{
closed = 1;
nodes = (
(64,627,o),
(50,640,o),
(32,640,cs),
(14,640,o),
(0,626,o),
(0,608,cs),
(0,590,o),
(14,576,o),
(32,576,cs),
(50,576,o),
(64,590,o),
(64,608,cs)
);
},
{
closed = 1;
nodes = (
(258,628,o),
(244,641,o),
(226,641,cs),
(208,641,o),
(194,627,o),
(194,609,cs),
(194,591,o),
(208,577,o),
(226,577,cs),
(244,577,o),
(258,591,o),
(258,609,cs)
);
},
{
closed = 1;
nodes = (
(160,703,o),
(146,716,o),
(128,716,cs),
(110,716,o),
(96,702,o),
(96,684,cs),
(96,666,o),
(110,652,o),
(128,652,cs),
(146,652,o),
(160,666,o),
(160,684,cs)
);
}
);
width = 258;
}
);
unicode = 770;
},
{
glyphname = ringcomb;
lastChange = "2023-08-30 17:56:17 +0000";
layers = (
{
anchors = (
{
name = _top;
pos = (117,512);
},
{
name = top;
pos = (117,802);
}
);
layerId = m002;
shapes = (
{
closed = 1;
nodes = (
(148,593,o),
(134,606,o),
(116,606,cs),
(98,606,o),
(84,592,o),
(84,574,cs),
(84,556,o),
(98,542,o),
(116,542,cs),
(134,542,o),
(148,556,o),
(148,574,cs)
);
},
{
closed = 1;
nodes = (
(64,643,o),
(50,656,o),
(32,656,cs),
(14,656,o),
(0,642,o),
(0,624,cs),
(0,606,o),
(14,592,o),
(32,592,cs),
(50,592,o),
(64,606,o),
(64,624,cs)
);
},
{
closed = 1;
nodes = (
(64,740,o),
(50,753,o),
(32,753,cs),
(14,753,o),
(0,739,o),
(0,721,cs),
(0,703,o),
(14,689,o),
(32,689,cs),
(50,689,o),
(64,703,o),
(64,721,cs)
);
},
{
closed = 1;
nodes = (
(148,789,o),
(134,802,o),
(116,802,cs),
(98,802,o),
(84,788,o),
(84,770,cs),
(84,752,o),
(98,738,o),
(116,738,cs),
(134,738,o),
(148,752,o),
(148,770,cs)
);
},
{
closed = 1;
nodes = (
(233,741,o),
(219,754,o),
(201,754,cs),
(183,754,o),
(169,740,o),
(169,722,cs),
(169,704,o),
(183,690,o),
(201,690,cs),
(219,690,o),
(233,704,o),
(233,722,cs)
);
},
{
closed = 1;
nodes = (
(233,643,o),
(219,656,o),
(201,656,cs),
(183,656,o),
(169,642,o),
(169,624,cs),
(169,606,o),
(183,592,o),
(201,592,cs),
(219,592,o),
(233,606,o),
(233,624,cs)
);
}
);
width = 233;
}
);
unicode = 778;
},
{
glyphname = tildecomb;
lastChange = "2023-08-30 17:56:46 +0000";
layers = (
{
anchors = (
{
name = _top;
pos = (149,512);
},
{
name = top;
pos = (149,743);
}
);
layerId = m002;
shapes = (
{
closed = 1;
nodes = (
(214,650,o),
(200,663,o),
(182,663,cs),
(164,663,o),
(150,649,o),
(150,631,cs),
(150,613,o),
(164,599,o),
(182,599,cs),
(200,599,o),
(214,613,o),
(214,631,cs)
);
},
{
closed = 1;
nodes = (
(64,669,o),
(50,682,o),
(32,682,cs),
(14,682,o),
(0,668,o),
(0,650,cs),
(0,632,o),
(14,618,o),
(32,618,cs),
(50,618,o),
(64,632,o),
(64,650,cs)
);
},
{
closed = 1;
nodes = (
(148,730,o),
(134,743,o),
(116,743,cs),
(98,743,o),
(84,729,o),
(84,711,cs),
(84,693,o),
(98,679,o),
(116,679,cs),
(134,679,o),
(148,693,o),
(148,711,cs)
);
},
{
closed = 1;
nodes = (
(298,713,o),
(284,726,o),
(266,726,cs),
(248,726,o),
(234,712,o),
(234,694,cs),
(234,676,o),
(248,662,o),
(266,662,cs),
(284,662,o),
(298,676,o),
(298,694,cs)
);
}
);
width = 298;
}
);
unicode = 771;
},
{
glyphname = dieresis;
lastChange = "2023-08-30 17:30:47 +0000";
layers = (
{
layerId = m002;
shapes = (
{
closed = 1;
nodes = (
(204,634,o),
(190,647,o),
(172,647,cs),
(154,647,o),
(140,633,o),
(140,615,cs),
(140,597,o),
(154,583,o),
(172,583,cs),
(190,583,o),
(204,597,o),
(204,615,cs)
);
},
{
closed = 1;
nodes = (
(64,634,o),
(50,647,o),
(32,647,cs),
(14,647,o),
(0,633,o),
(0,615,cs),
(0,597,o),
(14,583,o),
(32,583,cs),
(50,583,o),
(64,597,o),
(64,615,cs)
);
}
);
width = 204;
}
);
unicode = 168;
},
{
glyphname = grave;
lastChange = "2023-08-30 17:30:00 +0000";
layers = (
{
layerId = m002;
shapes = (
{
closed = 1;
nodes = (
(92,675,o),
(78,688,o),
(60,688,cs),
(42,688,o),
(28,674,o),
(28,656,cs),
(28,638,o),
(42,624,o),
(60,624,cs),
(78,624,o),
(92,638,o),
(92,656,cs)
);
},
{
closed = 1;
nodes = (
(175,595,o),
(161,608,o),
(143,608,cs),
(125,608,o),
(111,594,o),
(111,576,cs),
(111,558,o),
(125,544,o),
(143,544,cs),
(161,544,o),
(175,558,o),
(175,576,cs)
);
}
);
width = 210;
}
);
note = grave;
unicode = 96;
},
{
glyphname = acute;
lastChange = "2023-08-30 16:21:46 +0000";
layers = (
{
layerId = m002;
shapes = (
{
closed = 1;
nodes = (
(92,635,o),
(78,648,o),
(60,648,cs),
(42,648,o),
(28,634,o),
(28,616,cs),
(28,598,o),
(42,584,o),
(60,584,cs),
(78,584,o),
(92,598,o),
(92,616,cs)
);
},
{
closed = 1;
nodes = (
(156,699,o),
(142,712,o),
(124,712,cs),
(106,712,o),
(92,698,o),
(92,680,cs),
(92,662,o),
(106,648,o),
(124,648,cs),
(142,648,o),
(156,662,o),
(156,680,cs)
);
}
);
width = 210;
}
);
unicode = 180;
},
{
glyphname = circumflex;
lastChange = "2023-08-30 17:32:08 +0000";
layers = (
{
layerId = m002;
shapes = (
{
closed = 1;
nodes = (
(64,627,o),
(50,640,o),
(32,640,cs),
(14,640,o),
(0,626,o),
(0,608,cs),
(0,590,o),
(14,576,o),
(32,576,cs),
(50,576,o),
(64,590,o),
(64,608,cs)
);
},
{
closed = 1;
nodes = (
(258,628,o),
(244,641,o),
(226,641,cs),
(208,641,o),
(194,627,o),
(194,609,cs),
(194,591,o),
(208,577,o),
(226,577,cs),
(244,577,o),
(258,591,o),
(258,609,cs)
);
},
{
closed = 1;
nodes = (
(160,703,o),
(146,716,o),
(128,716,cs),
(110,716,o),
(96,702,o),
(96,684,cs),
(96,666,o),
(110,652,o),
(128,652,cs),
(146,652,o),
(160,666,o),
(160,684,cs)
);
}
);
width = 258;
}
);
unicode = 710;
},
{
glyphname = ring;
lastChange = "2023-08-30 17:45:13 +0000";
layers = (
{
layerId = m002;
shapes = (
{
closed = 1;
nodes = (
(148,593,o),
(134,606,o),
(116,606,cs),
(98,606,o),
(84,592,o),
(84,574,cs),
(84,556,o),
(98,542,o),
(116,542,cs),
(134,542,o),
(148,556,o),
(148,574,cs)
);
},
{
closed = 1;
nodes = (
(64,643,o),
(50,656,o),
(32,656,cs),
(14,656,o),
(0,642,o),
(0,624,cs),
(0,606,o),
(14,592,o),
(32,592,cs),
(50,592,o),
(64,606,o),
(64,624,cs)
);
},
{
closed = 1;
nodes = (
(64,740,o),
(50,753,o),
(32,753,cs),
(14,753,o),
(0,739,o),
(0,721,cs),
(0,703,o),
(14,689,o),
(32,689,cs),
(50,689,o),
(64,703,o),
(64,721,cs)
);
},
{
closed = 1;
nodes = (
(148,789,o),
(134,802,o),
(116,802,cs),
(98,802,o),
(84,788,o),
(84,770,cs),
(84,752,o),
(98,738,o),
(116,738,cs),
(134,738,o),
(148,752,o),
(148,770,cs)
);
},
{
closed = 1;
nodes = (
(233,741,o),
(219,754,o),
(201,754,cs),
(183,754,o),
(169,740,o),
(169,722,cs),
(169,704,o),
(183,690,o),
(201,690,cs),
(219,690,o),
(233,704,o),
(233,722,cs)
);
},
{
closed = 1;
nodes = (
(233,643,o),
(219,656,o),
(201,656,cs),
(183,656,o),
(169,642,o),
(169,624,cs),
(169,606,o),
(183,592,o),
(201,592,cs),
(219,592,o),
(233,606,o),
(233,624,cs)
);
}
);
width = 233;
}
);
unicode = 730;
},
{
glyphname = tilde;
lastChange = "2023-08-30 17:46:35 +0000";
layers = (
{
layerId = m002;
shapes = (
{
closed = 1;
nodes = (
(214,650,o),
(200,663,o),
(182,663,cs),
(164,663,o),
(150,649,o),
(150,631,cs),
(150,613,o),
(164,599,o),
(182,599,cs),
(200,599,o),
(214,613,o),
(214,631,cs)
);
},
{
closed = 1;
nodes = (
(64,669,o),
(50,682,o),
(32,682,cs),
(14,682,o),
(0,668,o),
(0,650,cs),
(0,632,o),
(14,618,o),
(32,618,cs),
(50,618,o),
(64,632,o),
(64,650,cs)
);
},
{
closed = 1;
nodes = (
(148,730,o),
(134,743,o),
(116,743,cs),
(98,743,o),
(84,729,o),
(84,711,cs),
(84,693,o),
(98,679,o),
(116,679,cs),
(134,679,o),
(148,693,o),
(148,711,cs)
);
},
{
closed = 1;
nodes = (
(298,713,o),
(284,726,o),
(266,726,cs),
(248,726,o),
(234,712,o),
(234,694,cs),
(234,676,o),
(248,662,o),
(266,662,cs),
(284,662,o),
(298,676,o),
(298,694,cs)
);
}
);
width = 298;
}
);
unicode = 732;
},
